M48
; DRILL file {KiCad (5.1.0)-1} date 4/7/2019 12:40:17 AM
; FORMAT={-:-/ absolute / inch / decimal}
; #@! TF.CreationDate,2019-04-07T00:40:17-04:00
; #@! TF.GenerationSoftware,Kicad,Pcbnew,(5.1.0)-1
FMAT,2
INCH
T1C0.0157
T2C0.0520
T3C0.0669
T4C0.1190
T5C0.1260
%
G90
G05
T1
X5.37Y-4.68
X5.86Y-4.89
X6.005Y-4.875
X6.04Y-4.64
X6.485Y-4.885
X6.705Y-4.83
X6.785Y-4.825
T2
X4.95Y-4.35
X5.025Y-4.15
X5.1Y-4.35
X5.175Y-4.15
X5.25Y-4.35
X5.325Y-4.15
X5.4Y-4.35
X5.475Y-4.15
X5.55Y-4.35
X5.625Y-4.15
X5.7Y-4.35
X5.775Y-4.15
X5.85Y-4.35
X5.925Y-4.15
X6.0Y-4.35
X6.075Y-4.15
X6.15Y-4.35
X6.225Y-4.15
X6.3Y-4.35
X6.375Y-4.15
X6.45Y-4.35
T3
X6.3722Y-4.685
X6.6478Y-4.685
T4
X4.66Y-4.02
X4.66Y-4.16
X6.74Y-4.02
X6.74Y-4.16
T5
X6.64Y-4.34
X4.76Y-4.34
T0
M30
