G04 #@! TF.GenerationSoftware,KiCad,Pcbnew,(5.1.0)-1*
G04 #@! TF.CreationDate,2019-04-07T00:40:10-04:00*
G04 #@! TF.ProjectId,Lightgunverter SCART Breakout,4c696768-7467-4756-9e76-657274657220,rev?*
G04 #@! TF.SameCoordinates,Original*
G04 #@! TF.FileFunction,Copper,L1,Top*
G04 #@! TF.FilePolarity,Positive*
%FSLAX46Y46*%
G04 Gerber Fmt 4.6, Leading zero omitted, Abs format (unit mm)*
G04 Created by KiCad (PCBNEW (5.1.0)-1) date 2019-04-07 00:40:10*
%MOMM*%
%LPD*%
G04 APERTURE LIST*
%ADD10O,1.981200X3.962400*%
%ADD11R,2.800000X2.800000*%
%ADD12R,2.200000X2.800000*%
%ADD13R,2.000000X2.800000*%
%ADD14R,2.500000X4.000000*%
%ADD15C,0.800000*%
%ADD16C,0.250000*%
%ADD17C,0.254000*%
G04 APERTURE END LIST*
D10*
X125730000Y-110490000D03*
X127635000Y-105410000D03*
X129540000Y-110490000D03*
X131445000Y-105410000D03*
X133350000Y-110490000D03*
X135255000Y-105410000D03*
X137160000Y-110490000D03*
X139065000Y-105410000D03*
X140970000Y-110490000D03*
X142875000Y-105410000D03*
X144780000Y-110490000D03*
X146685000Y-105410000D03*
X148590000Y-110490000D03*
X150495000Y-105410000D03*
X152400000Y-110490000D03*
X154305000Y-105410000D03*
X156210000Y-110490000D03*
X158115000Y-105410000D03*
X160020000Y-110490000D03*
X161925000Y-105410000D03*
X163830000Y-110490000D03*
D11*
X160655000Y-115299000D03*
D12*
X168055000Y-122699000D03*
X169955000Y-115299000D03*
D13*
X172755000Y-115299000D03*
D14*
X161047000Y-127508000D03*
X157247000Y-127508000D03*
X153447000Y-127508000D03*
X149647000Y-127508000D03*
X145847000Y-127508000D03*
X142047000Y-127508000D03*
X138247000Y-127508000D03*
X134447000Y-127508000D03*
X130647000Y-127508000D03*
X126847000Y-127508000D03*
D15*
X164719000Y-124079000D03*
X172339000Y-122555000D03*
X153416000Y-117856000D03*
X148844000Y-124206000D03*
X136398000Y-118872000D03*
X170307000Y-122682000D03*
X152527000Y-123825000D03*
D16*
X172755000Y-117313000D02*
X172755000Y-115299000D01*
X169672000Y-120396000D02*
X172755000Y-117313000D01*
X165909000Y-120396000D02*
X169672000Y-120396000D01*
X161047000Y-127508000D02*
X161047000Y-125258000D01*
X161047000Y-125258000D02*
X165909000Y-120396000D01*
X161925000Y-107641200D02*
X161925000Y-105410000D01*
X161925000Y-112522000D02*
X161925000Y-107641200D01*
X163449000Y-114046000D02*
X161925000Y-112522000D01*
X165909000Y-120396000D02*
X163449000Y-117936000D01*
X163449000Y-117936000D02*
X163449000Y-114046000D01*
X130647000Y-125258000D02*
X130683000Y-125222000D01*
X130647000Y-127508000D02*
X130647000Y-125258000D01*
X130683000Y-125222000D02*
X130683000Y-123952000D01*
X157247000Y-127508000D02*
X157247000Y-124100000D01*
X144780000Y-104140000D02*
X144780000Y-108258800D01*
X144780000Y-108258800D02*
X144780000Y-110490000D01*
X146177000Y-102743000D02*
X144780000Y-104140000D01*
X158623000Y-102743000D02*
X146177000Y-102743000D01*
X160655000Y-114173000D02*
X158242000Y-111760000D01*
X160655000Y-115299000D02*
X160655000Y-114173000D01*
X158242000Y-111760000D02*
X158242000Y-108712000D01*
X158242000Y-108712000D02*
X160020000Y-106934000D01*
X160020000Y-106934000D02*
X160020000Y-104140000D01*
X160020000Y-104140000D02*
X158623000Y-102743000D01*
X168072000Y-122682000D02*
X168055000Y-122699000D01*
X170307000Y-122682000D02*
X168072000Y-122682000D01*
X127635000Y-107641200D02*
X127635000Y-105410000D01*
X127635000Y-124470000D02*
X127635000Y-107641200D01*
X126847000Y-125258000D02*
X127635000Y-124470000D01*
X126847000Y-127508000D02*
X126847000Y-125258000D01*
X135255000Y-107641200D02*
X135255000Y-105410000D01*
X135255000Y-124450000D02*
X135255000Y-107641200D01*
X134447000Y-125258000D02*
X135255000Y-124450000D01*
X134447000Y-127508000D02*
X134447000Y-125258000D01*
X139065000Y-107641200D02*
X139065000Y-105410000D01*
X139065000Y-124440000D02*
X139065000Y-107641200D01*
X138247000Y-125258000D02*
X139065000Y-124440000D01*
X138247000Y-127508000D02*
X138247000Y-125258000D01*
X152527000Y-110617000D02*
X152400000Y-110490000D01*
X152527000Y-123825000D02*
X152527000Y-110617000D01*
X154305000Y-107641200D02*
X154305000Y-105410000D01*
X154305000Y-124400000D02*
X154305000Y-107641200D01*
X153447000Y-125258000D02*
X154305000Y-124400000D01*
X153447000Y-127508000D02*
X153447000Y-125258000D01*
D17*
G36*
X173330000Y-99854418D02*
G01*
X173330001Y-99854428D01*
X173330001Y-101658323D01*
X173318528Y-101600381D01*
X173315803Y-101591578D01*
X173225868Y-101308068D01*
X173202290Y-101253058D01*
X173179508Y-101197783D01*
X173175125Y-101189677D01*
X173031836Y-100929034D01*
X172998048Y-100879687D01*
X172964936Y-100829850D01*
X172959062Y-100822749D01*
X172767876Y-100594904D01*
X172725146Y-100553060D01*
X172682987Y-100510605D01*
X172675846Y-100504781D01*
X172444045Y-100318408D01*
X172394031Y-100285680D01*
X172344398Y-100252202D01*
X172336261Y-100247876D01*
X172072675Y-100110077D01*
X172017219Y-100087672D01*
X171962068Y-100064488D01*
X171953246Y-100061825D01*
X171667915Y-99977847D01*
X171609175Y-99966642D01*
X171550558Y-99954609D01*
X171541386Y-99953710D01*
X171245178Y-99926753D01*
X171185361Y-99927171D01*
X171125544Y-99926753D01*
X171116372Y-99927653D01*
X170820569Y-99958742D01*
X170761972Y-99970771D01*
X170703210Y-99981980D01*
X170694388Y-99984644D01*
X170410257Y-100072598D01*
X170355139Y-100095768D01*
X170299650Y-100118186D01*
X170291514Y-100122513D01*
X170029878Y-100263979D01*
X169980311Y-100297412D01*
X169930232Y-100330183D01*
X169923091Y-100336008D01*
X169693915Y-100525597D01*
X169651774Y-100568034D01*
X169609024Y-100609897D01*
X169603150Y-100616998D01*
X169415164Y-100847492D01*
X169382049Y-100897334D01*
X169348265Y-100946674D01*
X169343882Y-100954781D01*
X169204246Y-101217399D01*
X169181458Y-101272687D01*
X169157886Y-101327683D01*
X169155162Y-101336487D01*
X169069193Y-101621225D01*
X169057570Y-101679925D01*
X169045137Y-101738419D01*
X169044174Y-101747584D01*
X169015150Y-102043596D01*
X169015150Y-102172406D01*
X169035801Y-102276697D01*
X169035800Y-105497952D01*
X169025478Y-105531300D01*
X169016932Y-105612622D01*
X169015299Y-105620870D01*
X169015299Y-105628164D01*
X169012016Y-105659404D01*
X169012016Y-105668620D01*
X169012165Y-105689898D01*
X169015298Y-105719700D01*
X169015298Y-105749680D01*
X169016262Y-105758844D01*
X169049416Y-106054424D01*
X169061853Y-106112936D01*
X169073471Y-106171614D01*
X169076196Y-106180413D01*
X169076197Y-106180419D01*
X169076199Y-106180425D01*
X169166130Y-106463928D01*
X169189691Y-106518899D01*
X169212491Y-106574217D01*
X169216874Y-106582323D01*
X169360163Y-106842965D01*
X169393947Y-106892305D01*
X169427062Y-106942147D01*
X169432936Y-106949247D01*
X169624122Y-107177094D01*
X169666853Y-107218939D01*
X169709013Y-107261395D01*
X169716155Y-107267219D01*
X169947956Y-107453591D01*
X169997968Y-107486318D01*
X170047600Y-107519795D01*
X170055737Y-107524121D01*
X170319323Y-107661921D01*
X170374783Y-107684328D01*
X170429931Y-107707511D01*
X170438753Y-107710174D01*
X170724083Y-107794152D01*
X170782837Y-107805360D01*
X170841441Y-107817390D01*
X170850613Y-107818289D01*
X171146820Y-107845246D01*
X171206638Y-107844828D01*
X171266455Y-107845246D01*
X171275626Y-107844347D01*
X171571430Y-107813257D01*
X171630017Y-107801230D01*
X171688787Y-107790020D01*
X171697609Y-107787356D01*
X171981740Y-107699403D01*
X172036883Y-107676223D01*
X172092348Y-107653814D01*
X172100485Y-107649487D01*
X172362121Y-107508021D01*
X172411705Y-107474576D01*
X172461768Y-107441816D01*
X172468909Y-107435992D01*
X172698085Y-107246401D01*
X172740224Y-107203966D01*
X172782974Y-107162103D01*
X172788848Y-107155002D01*
X172976834Y-106924509D01*
X173009938Y-106874682D01*
X173043733Y-106825327D01*
X173048116Y-106817221D01*
X173187753Y-106554603D01*
X173210560Y-106499269D01*
X173234114Y-106444314D01*
X173236838Y-106435515D01*
X173236840Y-106435509D01*
X173322806Y-106150773D01*
X173330000Y-106114440D01*
X173330000Y-113260928D01*
X171755000Y-113260928D01*
X171630518Y-113273188D01*
X171510820Y-113309498D01*
X171405000Y-113366061D01*
X171299180Y-113309498D01*
X171179482Y-113273188D01*
X171055000Y-113260928D01*
X170240750Y-113264000D01*
X170082000Y-113422750D01*
X170082000Y-115172000D01*
X170102000Y-115172000D01*
X170102000Y-115426000D01*
X170082000Y-115426000D01*
X170082000Y-117175250D01*
X170240750Y-117334000D01*
X171055000Y-117337072D01*
X171179482Y-117324812D01*
X171299180Y-117288502D01*
X171405000Y-117231939D01*
X171510820Y-117288502D01*
X171630518Y-117324812D01*
X171664990Y-117328207D01*
X170306894Y-118686305D01*
X170282932Y-118565842D01*
X170170990Y-118295589D01*
X170008475Y-118052368D01*
X169801632Y-117845525D01*
X169558411Y-117683010D01*
X169288158Y-117571068D01*
X169001260Y-117514000D01*
X168708740Y-117514000D01*
X168421842Y-117571068D01*
X168151589Y-117683010D01*
X167908368Y-117845525D01*
X167701525Y-118052368D01*
X167539010Y-118295589D01*
X167427068Y-118565842D01*
X167370000Y-118852740D01*
X167370000Y-119145260D01*
X167427068Y-119432158D01*
X167511502Y-119636000D01*
X166223802Y-119636000D01*
X164209000Y-117621199D01*
X164209000Y-116699000D01*
X168216928Y-116699000D01*
X168229188Y-116823482D01*
X168265498Y-116943180D01*
X168324463Y-117053494D01*
X168403815Y-117150185D01*
X168500506Y-117229537D01*
X168610820Y-117288502D01*
X168730518Y-117324812D01*
X168855000Y-117337072D01*
X169669250Y-117334000D01*
X169828000Y-117175250D01*
X169828000Y-115426000D01*
X168378750Y-115426000D01*
X168220000Y-115584750D01*
X168216928Y-116699000D01*
X164209000Y-116699000D01*
X164209000Y-114083322D01*
X164212676Y-114045999D01*
X164209000Y-114008676D01*
X164209000Y-114008667D01*
X164198199Y-113899000D01*
X168216928Y-113899000D01*
X168220000Y-115013250D01*
X168378750Y-115172000D01*
X169828000Y-115172000D01*
X169828000Y-113422750D01*
X169669250Y-113264000D01*
X168855000Y-113260928D01*
X168730518Y-113273188D01*
X168610820Y-113309498D01*
X168500506Y-113368463D01*
X168403815Y-113447815D01*
X168324463Y-113544506D01*
X168265498Y-113654820D01*
X168229188Y-113774518D01*
X168216928Y-113899000D01*
X164198199Y-113899000D01*
X164198003Y-113897014D01*
X164154546Y-113753753D01*
X164083974Y-113621724D01*
X164070811Y-113605685D01*
X164012799Y-113534996D01*
X164012795Y-113534992D01*
X163989001Y-113505999D01*
X163960008Y-113482205D01*
X163510853Y-113033051D01*
X163703000Y-112941942D01*
X163703000Y-110617000D01*
X163957000Y-110617000D01*
X163957000Y-112941942D01*
X164208959Y-113061411D01*
X164334758Y-113031060D01*
X164627539Y-112902795D01*
X164889671Y-112719876D01*
X165111080Y-112489332D01*
X165283258Y-112220023D01*
X165399588Y-111922299D01*
X165455600Y-111607600D01*
X165455600Y-110617000D01*
X163957000Y-110617000D01*
X163703000Y-110617000D01*
X163683000Y-110617000D01*
X163683000Y-110363000D01*
X163703000Y-110363000D01*
X163703000Y-108038058D01*
X163957000Y-108038058D01*
X163957000Y-110363000D01*
X165455600Y-110363000D01*
X165455600Y-110015872D01*
X166421000Y-110015872D01*
X166421000Y-110456128D01*
X166506890Y-110887925D01*
X166675369Y-111294669D01*
X166919962Y-111660729D01*
X167231271Y-111972038D01*
X167597331Y-112216631D01*
X168004075Y-112385110D01*
X168435872Y-112471000D01*
X168876128Y-112471000D01*
X169307925Y-112385110D01*
X169714669Y-112216631D01*
X170080729Y-111972038D01*
X170392038Y-111660729D01*
X170636631Y-111294669D01*
X170805110Y-110887925D01*
X170891000Y-110456128D01*
X170891000Y-110015872D01*
X170805110Y-109584075D01*
X170636631Y-109177331D01*
X170392038Y-108811271D01*
X170080729Y-108499962D01*
X169714669Y-108255369D01*
X169307925Y-108086890D01*
X168876128Y-108001000D01*
X168435872Y-108001000D01*
X168004075Y-108086890D01*
X167597331Y-108255369D01*
X167231271Y-108499962D01*
X166919962Y-108811271D01*
X166675369Y-109177331D01*
X166506890Y-109584075D01*
X166421000Y-110015872D01*
X165455600Y-110015872D01*
X165455600Y-109372400D01*
X165399588Y-109057701D01*
X165283258Y-108759977D01*
X165111080Y-108490668D01*
X164889671Y-108260124D01*
X164627539Y-108077205D01*
X164334758Y-107948940D01*
X164208959Y-107918589D01*
X163957000Y-108038058D01*
X163703000Y-108038058D01*
X163451041Y-107918589D01*
X163325242Y-107948940D01*
X163032461Y-108077205D01*
X162770329Y-108260124D01*
X162685000Y-108348974D01*
X162685000Y-107837619D01*
X162832504Y-107758777D01*
X163080034Y-107555634D01*
X163283177Y-107308105D01*
X163434125Y-107025700D01*
X163527078Y-106719273D01*
X163550600Y-106480454D01*
X163550600Y-104339546D01*
X163527078Y-104100727D01*
X163434125Y-103794300D01*
X163283177Y-103511895D01*
X163080034Y-103264366D01*
X162832505Y-103061223D01*
X162550100Y-102910275D01*
X162243673Y-102817322D01*
X161925000Y-102785935D01*
X161606328Y-102817322D01*
X161299901Y-102910275D01*
X161017496Y-103061223D01*
X160769967Y-103264366D01*
X160566824Y-103511895D01*
X160532010Y-103577027D01*
X160531003Y-103576201D01*
X159186804Y-102232003D01*
X159163001Y-102202999D01*
X159047276Y-102108026D01*
X158915247Y-102037454D01*
X158771986Y-101993997D01*
X158660333Y-101983000D01*
X158660322Y-101983000D01*
X158623000Y-101979324D01*
X158585678Y-101983000D01*
X146214322Y-101983000D01*
X146176999Y-101979324D01*
X146139676Y-101983000D01*
X146139667Y-101983000D01*
X146028014Y-101993997D01*
X145884753Y-102037454D01*
X145752724Y-102108026D01*
X145636999Y-102202999D01*
X145613201Y-102231997D01*
X144269003Y-103576196D01*
X144267991Y-103577027D01*
X144233177Y-103511895D01*
X144030034Y-103264366D01*
X143782505Y-103061223D01*
X143500100Y-102910275D01*
X143193673Y-102817322D01*
X142875000Y-102785935D01*
X142556328Y-102817322D01*
X142249901Y-102910275D01*
X141967496Y-103061223D01*
X141719967Y-103264366D01*
X141516824Y-103511895D01*
X141365876Y-103794300D01*
X141272923Y-104100727D01*
X141249401Y-104339546D01*
X141249400Y-106480453D01*
X141272922Y-106719272D01*
X141365875Y-107025699D01*
X141516823Y-107308104D01*
X141719966Y-107555634D01*
X141967495Y-107758777D01*
X142249900Y-107909725D01*
X142556327Y-108002678D01*
X142875000Y-108034065D01*
X143193672Y-108002678D01*
X143500099Y-107909725D01*
X143782504Y-107758777D01*
X144020001Y-107563868D01*
X144020001Y-108062380D01*
X143872496Y-108141223D01*
X143624967Y-108344366D01*
X143421824Y-108591895D01*
X143270876Y-108874300D01*
X143177923Y-109180727D01*
X143154401Y-109419546D01*
X143154400Y-111560453D01*
X143177922Y-111799272D01*
X143270875Y-112105699D01*
X143421823Y-112388104D01*
X143624966Y-112635634D01*
X143872495Y-112838777D01*
X144154900Y-112989725D01*
X144461327Y-113082678D01*
X144780000Y-113114065D01*
X145098672Y-113082678D01*
X145405099Y-112989725D01*
X145687504Y-112838777D01*
X145935034Y-112635634D01*
X146138177Y-112388105D01*
X146289125Y-112105700D01*
X146382078Y-111799273D01*
X146405600Y-111560454D01*
X146405600Y-110617000D01*
X146964400Y-110617000D01*
X146964400Y-111607600D01*
X147020412Y-111922299D01*
X147136742Y-112220023D01*
X147308920Y-112489332D01*
X147530329Y-112719876D01*
X147792461Y-112902795D01*
X148085242Y-113031060D01*
X148211041Y-113061411D01*
X148463000Y-112941942D01*
X148463000Y-110617000D01*
X148717000Y-110617000D01*
X148717000Y-112941942D01*
X148968959Y-113061411D01*
X149094758Y-113031060D01*
X149387539Y-112902795D01*
X149649671Y-112719876D01*
X149871080Y-112489332D01*
X150043258Y-112220023D01*
X150159588Y-111922299D01*
X150215600Y-111607600D01*
X150215600Y-110617000D01*
X148717000Y-110617000D01*
X148463000Y-110617000D01*
X146964400Y-110617000D01*
X146405600Y-110617000D01*
X146405600Y-109419546D01*
X146400957Y-109372400D01*
X146964400Y-109372400D01*
X146964400Y-110363000D01*
X148463000Y-110363000D01*
X148463000Y-108038058D01*
X148717000Y-108038058D01*
X148717000Y-110363000D01*
X150215600Y-110363000D01*
X150215600Y-109372400D01*
X150159588Y-109057701D01*
X150043258Y-108759977D01*
X149871080Y-108490668D01*
X149649671Y-108260124D01*
X149387539Y-108077205D01*
X149094758Y-107948940D01*
X148968959Y-107918589D01*
X148717000Y-108038058D01*
X148463000Y-108038058D01*
X148211041Y-107918589D01*
X148085242Y-107948940D01*
X147792461Y-108077205D01*
X147530329Y-108260124D01*
X147308920Y-108490668D01*
X147136742Y-108759977D01*
X147020412Y-109057701D01*
X146964400Y-109372400D01*
X146400957Y-109372400D01*
X146382078Y-109180727D01*
X146289125Y-108874300D01*
X146138177Y-108591895D01*
X145935034Y-108344366D01*
X145687505Y-108141223D01*
X145540000Y-108062380D01*
X145540000Y-107563869D01*
X145777495Y-107758777D01*
X146059900Y-107909725D01*
X146366327Y-108002678D01*
X146685000Y-108034065D01*
X147003672Y-108002678D01*
X147310099Y-107909725D01*
X147592504Y-107758777D01*
X147840034Y-107555634D01*
X148043177Y-107308105D01*
X148194125Y-107025700D01*
X148287078Y-106719273D01*
X148310600Y-106480454D01*
X148310600Y-104339546D01*
X148287078Y-104100727D01*
X148194125Y-103794300D01*
X148043177Y-103511895D01*
X148035877Y-103503000D01*
X149144124Y-103503000D01*
X149136824Y-103511895D01*
X148985876Y-103794300D01*
X148892923Y-104100727D01*
X148869401Y-104339546D01*
X148869400Y-106480453D01*
X148892922Y-106719272D01*
X148985875Y-107025699D01*
X149136823Y-107308104D01*
X149339966Y-107555634D01*
X149587495Y-107758777D01*
X149869900Y-107909725D01*
X150176327Y-108002678D01*
X150495000Y-108034065D01*
X150813672Y-108002678D01*
X151120099Y-107909725D01*
X151402504Y-107758777D01*
X151650034Y-107555634D01*
X151853177Y-107308105D01*
X152004125Y-107025700D01*
X152097078Y-106719273D01*
X152120600Y-106480454D01*
X152120600Y-104339546D01*
X152097078Y-104100727D01*
X152004125Y-103794300D01*
X151853177Y-103511895D01*
X151845877Y-103503000D01*
X152954124Y-103503000D01*
X152946824Y-103511895D01*
X152795876Y-103794300D01*
X152702923Y-104100727D01*
X152679401Y-104339546D01*
X152679400Y-106480453D01*
X152702922Y-106719272D01*
X152795875Y-107025699D01*
X152946823Y-107308104D01*
X153149966Y-107555634D01*
X153397495Y-107758777D01*
X153545001Y-107837620D01*
X153545001Y-108336132D01*
X153307505Y-108141223D01*
X153025100Y-107990275D01*
X152718673Y-107897322D01*
X152400000Y-107865935D01*
X152081328Y-107897322D01*
X151774901Y-107990275D01*
X151492496Y-108141223D01*
X151244967Y-108344366D01*
X151041824Y-108591895D01*
X150890876Y-108874300D01*
X150797923Y-109180727D01*
X150774401Y-109419546D01*
X150774400Y-111560453D01*
X150797922Y-111799272D01*
X150890875Y-112105699D01*
X151041823Y-112388104D01*
X151244966Y-112635634D01*
X151492495Y-112838777D01*
X151767001Y-112985503D01*
X151767000Y-123121289D01*
X151723063Y-123165226D01*
X151609795Y-123334744D01*
X151531774Y-123523102D01*
X151492000Y-123723061D01*
X151492000Y-123926939D01*
X151531774Y-124126898D01*
X151609795Y-124315256D01*
X151723063Y-124484774D01*
X151867226Y-124628937D01*
X152036744Y-124742205D01*
X152225102Y-124820226D01*
X152425061Y-124860000D01*
X152628939Y-124860000D01*
X152821973Y-124821603D01*
X152812026Y-124833724D01*
X152792674Y-124869928D01*
X152197000Y-124869928D01*
X152072518Y-124882188D01*
X151952820Y-124918498D01*
X151842506Y-124977463D01*
X151745815Y-125056815D01*
X151666463Y-125153506D01*
X151629852Y-125222000D01*
X151464148Y-125222000D01*
X151427537Y-125153506D01*
X151348185Y-125056815D01*
X151251494Y-124977463D01*
X151141180Y-124918498D01*
X151021482Y-124882188D01*
X150897000Y-124869928D01*
X148397000Y-124869928D01*
X148272518Y-124882188D01*
X148152820Y-124918498D01*
X148042506Y-124977463D01*
X147945815Y-125056815D01*
X147866463Y-125153506D01*
X147829852Y-125222000D01*
X147664148Y-125222000D01*
X147627537Y-125153506D01*
X147548185Y-125056815D01*
X147451494Y-124977463D01*
X147341180Y-124918498D01*
X147221482Y-124882188D01*
X147097000Y-124869928D01*
X144597000Y-124869928D01*
X144472518Y-124882188D01*
X144352820Y-124918498D01*
X144242506Y-124977463D01*
X144145815Y-125056815D01*
X144066463Y-125153506D01*
X144029852Y-125222000D01*
X143864148Y-125222000D01*
X143827537Y-125153506D01*
X143748185Y-125056815D01*
X143651494Y-124977463D01*
X143541180Y-124918498D01*
X143421482Y-124882188D01*
X143297000Y-124869928D01*
X140797000Y-124869928D01*
X140672518Y-124882188D01*
X140552820Y-124918498D01*
X140442506Y-124977463D01*
X140345815Y-125056815D01*
X140266463Y-125153506D01*
X140229852Y-125222000D01*
X140064148Y-125222000D01*
X140027537Y-125153506D01*
X139948185Y-125056815D01*
X139851494Y-124977463D01*
X139741180Y-124918498D01*
X139672559Y-124897682D01*
X139699974Y-124864276D01*
X139770546Y-124732247D01*
X139814003Y-124588986D01*
X139825000Y-124477333D01*
X139825000Y-124477325D01*
X139828676Y-124440000D01*
X139825000Y-124402675D01*
X139825000Y-112631026D01*
X139910329Y-112719876D01*
X140172461Y-112902795D01*
X140465242Y-113031060D01*
X140591041Y-113061411D01*
X140843000Y-112941942D01*
X140843000Y-110617000D01*
X141097000Y-110617000D01*
X141097000Y-112941942D01*
X141348959Y-113061411D01*
X141474758Y-113031060D01*
X141767539Y-112902795D01*
X142029671Y-112719876D01*
X142251080Y-112489332D01*
X142423258Y-112220023D01*
X142539588Y-111922299D01*
X142595600Y-111607600D01*
X142595600Y-110617000D01*
X141097000Y-110617000D01*
X140843000Y-110617000D01*
X140823000Y-110617000D01*
X140823000Y-110363000D01*
X140843000Y-110363000D01*
X140843000Y-108038058D01*
X141097000Y-108038058D01*
X141097000Y-110363000D01*
X142595600Y-110363000D01*
X142595600Y-109372400D01*
X142539588Y-109057701D01*
X142423258Y-108759977D01*
X142251080Y-108490668D01*
X142029671Y-108260124D01*
X141767539Y-108077205D01*
X141474758Y-107948940D01*
X141348959Y-107918589D01*
X141097000Y-108038058D01*
X140843000Y-108038058D01*
X140591041Y-107918589D01*
X140465242Y-107948940D01*
X140172461Y-108077205D01*
X139910329Y-108260124D01*
X139825000Y-108348974D01*
X139825000Y-107837619D01*
X139972504Y-107758777D01*
X140220034Y-107555634D01*
X140423177Y-107308105D01*
X140574125Y-107025700D01*
X140667078Y-106719273D01*
X140690600Y-106480454D01*
X140690600Y-104339546D01*
X140667078Y-104100727D01*
X140574125Y-103794300D01*
X140423177Y-103511895D01*
X140220034Y-103264366D01*
X139972505Y-103061223D01*
X139690100Y-102910275D01*
X139383673Y-102817322D01*
X139065000Y-102785935D01*
X138746328Y-102817322D01*
X138439901Y-102910275D01*
X138157496Y-103061223D01*
X137909967Y-103264366D01*
X137706824Y-103511895D01*
X137555876Y-103794300D01*
X137462923Y-104100727D01*
X137439401Y-104339546D01*
X137439400Y-106480453D01*
X137462922Y-106719272D01*
X137555875Y-107025699D01*
X137706823Y-107308104D01*
X137909966Y-107555634D01*
X138157495Y-107758777D01*
X138305001Y-107837620D01*
X138305001Y-108336132D01*
X138067505Y-108141223D01*
X137785100Y-107990275D01*
X137478673Y-107897322D01*
X137160000Y-107865935D01*
X136841328Y-107897322D01*
X136534901Y-107990275D01*
X136252496Y-108141223D01*
X136015000Y-108336132D01*
X136015000Y-107837619D01*
X136162504Y-107758777D01*
X136410034Y-107555634D01*
X136613177Y-107308105D01*
X136764125Y-107025700D01*
X136857078Y-106719273D01*
X136880600Y-106480454D01*
X136880600Y-104339546D01*
X136857078Y-104100727D01*
X136764125Y-103794300D01*
X136613177Y-103511895D01*
X136410034Y-103264366D01*
X136162505Y-103061223D01*
X135880100Y-102910275D01*
X135573673Y-102817322D01*
X135255000Y-102785935D01*
X134936328Y-102817322D01*
X134629901Y-102910275D01*
X134347496Y-103061223D01*
X134099967Y-103264366D01*
X133896824Y-103511895D01*
X133745876Y-103794300D01*
X133652923Y-104100727D01*
X133629401Y-104339546D01*
X133629400Y-106480453D01*
X133652922Y-106719272D01*
X133745875Y-107025699D01*
X133896823Y-107308104D01*
X134099966Y-107555634D01*
X134347495Y-107758777D01*
X134495001Y-107837620D01*
X134495001Y-108348975D01*
X134409671Y-108260124D01*
X134147539Y-108077205D01*
X133854758Y-107948940D01*
X133728959Y-107918589D01*
X133477000Y-108038058D01*
X133477000Y-110363000D01*
X133497000Y-110363000D01*
X133497000Y-110617000D01*
X133477000Y-110617000D01*
X133477000Y-112941942D01*
X133728959Y-113061411D01*
X133854758Y-113031060D01*
X134147539Y-112902795D01*
X134409671Y-112719876D01*
X134495001Y-112631026D01*
X134495000Y-124135198D01*
X133935998Y-124694201D01*
X133907000Y-124717999D01*
X133883202Y-124746997D01*
X133883201Y-124746998D01*
X133812026Y-124833724D01*
X133792674Y-124869928D01*
X133197000Y-124869928D01*
X133072518Y-124882188D01*
X132952820Y-124918498D01*
X132842506Y-124977463D01*
X132745815Y-125056815D01*
X132666463Y-125153506D01*
X132629852Y-125222000D01*
X132464148Y-125222000D01*
X132427537Y-125153506D01*
X132348185Y-125056815D01*
X132251494Y-124977463D01*
X132141180Y-124918498D01*
X132021482Y-124882188D01*
X131897000Y-124869928D01*
X130932750Y-124873000D01*
X130774000Y-125031750D01*
X130774000Y-125222000D01*
X130520000Y-125222000D01*
X130520000Y-125031750D01*
X130361250Y-124873000D01*
X129397000Y-124869928D01*
X129272518Y-124882188D01*
X129152820Y-124918498D01*
X129042506Y-124977463D01*
X128945815Y-125056815D01*
X128866463Y-125153506D01*
X128829852Y-125222000D01*
X128664148Y-125222000D01*
X128627537Y-125153506D01*
X128548185Y-125056815D01*
X128451494Y-124977463D01*
X128341180Y-124918498D01*
X128268251Y-124896375D01*
X128269974Y-124894276D01*
X128340546Y-124762247D01*
X128384003Y-124618986D01*
X128395000Y-124507333D01*
X128395000Y-124507324D01*
X128398676Y-124470001D01*
X128395000Y-124432678D01*
X128395000Y-112643869D01*
X128632495Y-112838777D01*
X128914900Y-112989725D01*
X129221327Y-113082678D01*
X129540000Y-113114065D01*
X129858672Y-113082678D01*
X130165099Y-112989725D01*
X130447504Y-112838777D01*
X130695034Y-112635634D01*
X130898177Y-112388105D01*
X131049125Y-112105700D01*
X131142078Y-111799273D01*
X131165600Y-111560454D01*
X131165600Y-110617000D01*
X131724400Y-110617000D01*
X131724400Y-111607600D01*
X131780412Y-111922299D01*
X131896742Y-112220023D01*
X132068920Y-112489332D01*
X132290329Y-112719876D01*
X132552461Y-112902795D01*
X132845242Y-113031060D01*
X132971041Y-113061411D01*
X133223000Y-112941942D01*
X133223000Y-110617000D01*
X131724400Y-110617000D01*
X131165600Y-110617000D01*
X131165600Y-109419546D01*
X131160957Y-109372400D01*
X131724400Y-109372400D01*
X131724400Y-110363000D01*
X133223000Y-110363000D01*
X133223000Y-108038058D01*
X132971041Y-107918589D01*
X132845242Y-107948940D01*
X132552461Y-108077205D01*
X132290329Y-108260124D01*
X132068920Y-108490668D01*
X131896742Y-108759977D01*
X131780412Y-109057701D01*
X131724400Y-109372400D01*
X131160957Y-109372400D01*
X131142078Y-109180727D01*
X131049125Y-108874300D01*
X130898177Y-108591895D01*
X130695034Y-108344366D01*
X130447505Y-108141223D01*
X130165100Y-107990275D01*
X129858673Y-107897322D01*
X129540000Y-107865935D01*
X129221328Y-107897322D01*
X128914901Y-107990275D01*
X128632496Y-108141223D01*
X128395000Y-108336132D01*
X128395000Y-107837619D01*
X128542504Y-107758777D01*
X128790034Y-107555634D01*
X128993177Y-107308105D01*
X129144125Y-107025700D01*
X129237078Y-106719273D01*
X129260600Y-106480454D01*
X129260600Y-105537000D01*
X129819400Y-105537000D01*
X129819400Y-106527600D01*
X129875412Y-106842299D01*
X129991742Y-107140023D01*
X130163920Y-107409332D01*
X130385329Y-107639876D01*
X130647461Y-107822795D01*
X130940242Y-107951060D01*
X131066041Y-107981411D01*
X131318000Y-107861942D01*
X131318000Y-105537000D01*
X131572000Y-105537000D01*
X131572000Y-107861942D01*
X131823959Y-107981411D01*
X131949758Y-107951060D01*
X132242539Y-107822795D01*
X132504671Y-107639876D01*
X132726080Y-107409332D01*
X132898258Y-107140023D01*
X133014588Y-106842299D01*
X133070600Y-106527600D01*
X133070600Y-105537000D01*
X131572000Y-105537000D01*
X131318000Y-105537000D01*
X129819400Y-105537000D01*
X129260600Y-105537000D01*
X129260600Y-104339546D01*
X129255957Y-104292400D01*
X129819400Y-104292400D01*
X129819400Y-105283000D01*
X131318000Y-105283000D01*
X131318000Y-102958058D01*
X131572000Y-102958058D01*
X131572000Y-105283000D01*
X133070600Y-105283000D01*
X133070600Y-104292400D01*
X133014588Y-103977701D01*
X132898258Y-103679977D01*
X132726080Y-103410668D01*
X132504671Y-103180124D01*
X132242539Y-102997205D01*
X131949758Y-102868940D01*
X131823959Y-102838589D01*
X131572000Y-102958058D01*
X131318000Y-102958058D01*
X131066041Y-102838589D01*
X130940242Y-102868940D01*
X130647461Y-102997205D01*
X130385329Y-103180124D01*
X130163920Y-103410668D01*
X129991742Y-103679977D01*
X129875412Y-103977701D01*
X129819400Y-104292400D01*
X129255957Y-104292400D01*
X129237078Y-104100727D01*
X129144125Y-103794300D01*
X128993177Y-103511895D01*
X128790034Y-103264366D01*
X128542505Y-103061223D01*
X128260100Y-102910275D01*
X127953673Y-102817322D01*
X127635000Y-102785935D01*
X127316328Y-102817322D01*
X127009901Y-102910275D01*
X126727496Y-103061223D01*
X126479967Y-103264366D01*
X126276824Y-103511895D01*
X126125876Y-103794300D01*
X126032923Y-104100727D01*
X126009401Y-104339546D01*
X126009400Y-106480453D01*
X126032922Y-106719272D01*
X126125875Y-107025699D01*
X126276823Y-107308104D01*
X126479966Y-107555634D01*
X126727495Y-107758777D01*
X126875001Y-107837620D01*
X126875001Y-108336132D01*
X126637505Y-108141223D01*
X126355100Y-107990275D01*
X126048673Y-107897322D01*
X125730000Y-107865935D01*
X125411328Y-107897322D01*
X125104901Y-107990275D01*
X124822496Y-108141223D01*
X124574967Y-108344366D01*
X124371824Y-108591895D01*
X124220876Y-108874300D01*
X124127923Y-109180727D01*
X124104401Y-109419546D01*
X124104400Y-111560453D01*
X124127922Y-111799272D01*
X124220875Y-112105699D01*
X124371823Y-112388104D01*
X124574966Y-112635634D01*
X124822495Y-112838777D01*
X125104900Y-112989725D01*
X125411327Y-113082678D01*
X125730000Y-113114065D01*
X126048672Y-113082678D01*
X126355099Y-112989725D01*
X126637504Y-112838777D01*
X126875001Y-112643868D01*
X126875000Y-124155198D01*
X126335998Y-124694201D01*
X126307000Y-124717999D01*
X126283202Y-124746997D01*
X126283201Y-124746998D01*
X126212026Y-124833724D01*
X126192674Y-124869928D01*
X125597000Y-124869928D01*
X125472518Y-124882188D01*
X125352820Y-124918498D01*
X125242506Y-124977463D01*
X125145815Y-125056815D01*
X125066463Y-125153506D01*
X125029852Y-125222000D01*
X124856685Y-125222000D01*
X124856450Y-125219617D01*
X124818710Y-125095207D01*
X124757425Y-124980550D01*
X124674948Y-124880052D01*
X124574450Y-124797575D01*
X124459793Y-124736290D01*
X124335383Y-124698550D01*
X124238419Y-124689000D01*
X124206000Y-124685807D01*
X124173581Y-124689000D01*
X116230000Y-124689000D01*
X116230000Y-110015872D01*
X118669000Y-110015872D01*
X118669000Y-110456128D01*
X118754890Y-110887925D01*
X118923369Y-111294669D01*
X119167962Y-111660729D01*
X119479271Y-111972038D01*
X119845331Y-112216631D01*
X120252075Y-112385110D01*
X120683872Y-112471000D01*
X121124128Y-112471000D01*
X121555925Y-112385110D01*
X121962669Y-112216631D01*
X122328729Y-111972038D01*
X122640038Y-111660729D01*
X122884631Y-111294669D01*
X123053110Y-110887925D01*
X123139000Y-110456128D01*
X123139000Y-110015872D01*
X123053110Y-109584075D01*
X122884631Y-109177331D01*
X122640038Y-108811271D01*
X122328729Y-108499962D01*
X121962669Y-108255369D01*
X121555925Y-108086890D01*
X121124128Y-108001000D01*
X120683872Y-108001000D01*
X120252075Y-108086890D01*
X119845331Y-108255369D01*
X119479271Y-108499962D01*
X119167962Y-108811271D01*
X118923369Y-109177331D01*
X118754890Y-109584075D01*
X118669000Y-110015872D01*
X116230000Y-110015872D01*
X116230000Y-106113678D01*
X116241471Y-106171614D01*
X116244196Y-106180413D01*
X116244197Y-106180419D01*
X116244199Y-106180425D01*
X116334130Y-106463928D01*
X116357691Y-106518899D01*
X116380491Y-106574217D01*
X116384874Y-106582323D01*
X116528163Y-106842965D01*
X116561947Y-106892305D01*
X116595062Y-106942147D01*
X116600936Y-106949247D01*
X116792122Y-107177094D01*
X116834853Y-107218939D01*
X116877013Y-107261395D01*
X116884155Y-107267219D01*
X117115956Y-107453591D01*
X117165968Y-107486318D01*
X117215600Y-107519795D01*
X117223737Y-107524121D01*
X117487323Y-107661921D01*
X117542783Y-107684328D01*
X117597931Y-107707511D01*
X117606753Y-107710174D01*
X117892083Y-107794152D01*
X117950837Y-107805360D01*
X118009441Y-107817390D01*
X118018613Y-107818289D01*
X118314820Y-107845246D01*
X118374638Y-107844828D01*
X118434455Y-107845246D01*
X118443626Y-107844347D01*
X118739430Y-107813257D01*
X118798017Y-107801230D01*
X118856787Y-107790020D01*
X118865609Y-107787356D01*
X119149740Y-107699403D01*
X119204883Y-107676223D01*
X119260348Y-107653814D01*
X119268485Y-107649487D01*
X119530121Y-107508021D01*
X119579705Y-107474576D01*
X119629768Y-107441816D01*
X119636909Y-107435992D01*
X119866085Y-107246401D01*
X119908224Y-107203966D01*
X119950974Y-107162103D01*
X119956848Y-107155002D01*
X120144834Y-106924509D01*
X120177938Y-106874682D01*
X120211733Y-106825327D01*
X120216116Y-106817221D01*
X120355753Y-106554603D01*
X120378560Y-106499269D01*
X120402114Y-106444314D01*
X120404838Y-106435515D01*
X120404840Y-106435509D01*
X120490806Y-106150773D01*
X120502422Y-106092108D01*
X120514862Y-106033584D01*
X120515825Y-106024419D01*
X120544850Y-105728406D01*
X120544850Y-105599596D01*
X120524200Y-105495305D01*
X120524200Y-102274047D01*
X120534522Y-102240699D01*
X120543068Y-102159377D01*
X120544701Y-102151129D01*
X120544701Y-102143835D01*
X120547984Y-102112594D01*
X120547984Y-102103379D01*
X120547835Y-102082100D01*
X120544702Y-102052298D01*
X120544702Y-102022319D01*
X120543738Y-102013154D01*
X120510584Y-101717575D01*
X120498151Y-101659081D01*
X120486528Y-101600381D01*
X120483803Y-101591578D01*
X120393868Y-101308068D01*
X120370290Y-101253058D01*
X120347508Y-101197783D01*
X120343125Y-101189677D01*
X120199836Y-100929034D01*
X120166048Y-100879687D01*
X120132936Y-100829850D01*
X120127062Y-100822749D01*
X119935876Y-100594904D01*
X119893146Y-100553060D01*
X119850987Y-100510605D01*
X119843846Y-100504781D01*
X119612045Y-100318408D01*
X119562031Y-100285680D01*
X119512398Y-100252202D01*
X119504261Y-100247876D01*
X119240675Y-100110077D01*
X119185219Y-100087672D01*
X119130068Y-100064488D01*
X119121246Y-100061825D01*
X118835915Y-99977847D01*
X118777175Y-99966642D01*
X118718558Y-99954609D01*
X118709386Y-99953710D01*
X118413178Y-99926753D01*
X118353361Y-99927171D01*
X118293544Y-99926753D01*
X118284372Y-99927653D01*
X117988569Y-99958742D01*
X117929972Y-99970771D01*
X117871210Y-99981980D01*
X117862388Y-99984644D01*
X117578257Y-100072598D01*
X117523139Y-100095768D01*
X117467650Y-100118186D01*
X117459514Y-100122513D01*
X117197878Y-100263979D01*
X117148311Y-100297412D01*
X117098232Y-100330183D01*
X117091091Y-100336008D01*
X116861915Y-100525597D01*
X116819774Y-100568034D01*
X116777024Y-100609897D01*
X116771150Y-100616998D01*
X116583164Y-100847492D01*
X116550049Y-100897334D01*
X116516265Y-100946674D01*
X116511882Y-100954781D01*
X116372246Y-101217399D01*
X116349458Y-101272687D01*
X116325886Y-101327683D01*
X116323162Y-101336487D01*
X116237193Y-101621225D01*
X116230000Y-101657553D01*
X116230000Y-95021000D01*
X173330001Y-95021000D01*
X173330000Y-99854418D01*
X173330000Y-99854418D01*
G37*
X173330000Y-99854418D02*
X173330001Y-99854428D01*
X173330001Y-101658323D01*
X173318528Y-101600381D01*
X173315803Y-101591578D01*
X173225868Y-101308068D01*
X173202290Y-101253058D01*
X173179508Y-101197783D01*
X173175125Y-101189677D01*
X173031836Y-100929034D01*
X172998048Y-100879687D01*
X172964936Y-100829850D01*
X172959062Y-100822749D01*
X172767876Y-100594904D01*
X172725146Y-100553060D01*
X172682987Y-100510605D01*
X172675846Y-100504781D01*
X172444045Y-100318408D01*
X172394031Y-100285680D01*
X172344398Y-100252202D01*
X172336261Y-100247876D01*
X172072675Y-100110077D01*
X172017219Y-100087672D01*
X171962068Y-100064488D01*
X171953246Y-100061825D01*
X171667915Y-99977847D01*
X171609175Y-99966642D01*
X171550558Y-99954609D01*
X171541386Y-99953710D01*
X171245178Y-99926753D01*
X171185361Y-99927171D01*
X171125544Y-99926753D01*
X171116372Y-99927653D01*
X170820569Y-99958742D01*
X170761972Y-99970771D01*
X170703210Y-99981980D01*
X170694388Y-99984644D01*
X170410257Y-100072598D01*
X170355139Y-100095768D01*
X170299650Y-100118186D01*
X170291514Y-100122513D01*
X170029878Y-100263979D01*
X169980311Y-100297412D01*
X169930232Y-100330183D01*
X169923091Y-100336008D01*
X169693915Y-100525597D01*
X169651774Y-100568034D01*
X169609024Y-100609897D01*
X169603150Y-100616998D01*
X169415164Y-100847492D01*
X169382049Y-100897334D01*
X169348265Y-100946674D01*
X169343882Y-100954781D01*
X169204246Y-101217399D01*
X169181458Y-101272687D01*
X169157886Y-101327683D01*
X169155162Y-101336487D01*
X169069193Y-101621225D01*
X169057570Y-101679925D01*
X169045137Y-101738419D01*
X169044174Y-101747584D01*
X169015150Y-102043596D01*
X169015150Y-102172406D01*
X169035801Y-102276697D01*
X169035800Y-105497952D01*
X169025478Y-105531300D01*
X169016932Y-105612622D01*
X169015299Y-105620870D01*
X169015299Y-105628164D01*
X169012016Y-105659404D01*
X169012016Y-105668620D01*
X169012165Y-105689898D01*
X169015298Y-105719700D01*
X169015298Y-105749680D01*
X169016262Y-105758844D01*
X169049416Y-106054424D01*
X169061853Y-106112936D01*
X169073471Y-106171614D01*
X169076196Y-106180413D01*
X169076197Y-106180419D01*
X169076199Y-106180425D01*
X169166130Y-106463928D01*
X169189691Y-106518899D01*
X169212491Y-106574217D01*
X169216874Y-106582323D01*
X169360163Y-106842965D01*
X169393947Y-106892305D01*
X169427062Y-106942147D01*
X169432936Y-106949247D01*
X169624122Y-107177094D01*
X169666853Y-107218939D01*
X169709013Y-107261395D01*
X169716155Y-107267219D01*
X169947956Y-107453591D01*
X169997968Y-107486318D01*
X170047600Y-107519795D01*
X170055737Y-107524121D01*
X170319323Y-107661921D01*
X170374783Y-107684328D01*
X170429931Y-107707511D01*
X170438753Y-107710174D01*
X170724083Y-107794152D01*
X170782837Y-107805360D01*
X170841441Y-107817390D01*
X170850613Y-107818289D01*
X171146820Y-107845246D01*
X171206638Y-107844828D01*
X171266455Y-107845246D01*
X171275626Y-107844347D01*
X171571430Y-107813257D01*
X171630017Y-107801230D01*
X171688787Y-107790020D01*
X171697609Y-107787356D01*
X171981740Y-107699403D01*
X172036883Y-107676223D01*
X172092348Y-107653814D01*
X172100485Y-107649487D01*
X172362121Y-107508021D01*
X172411705Y-107474576D01*
X172461768Y-107441816D01*
X172468909Y-107435992D01*
X172698085Y-107246401D01*
X172740224Y-107203966D01*
X172782974Y-107162103D01*
X172788848Y-107155002D01*
X172976834Y-106924509D01*
X173009938Y-106874682D01*
X173043733Y-106825327D01*
X173048116Y-106817221D01*
X173187753Y-106554603D01*
X173210560Y-106499269D01*
X173234114Y-106444314D01*
X173236838Y-106435515D01*
X173236840Y-106435509D01*
X173322806Y-106150773D01*
X173330000Y-106114440D01*
X173330000Y-113260928D01*
X171755000Y-113260928D01*
X171630518Y-113273188D01*
X171510820Y-113309498D01*
X171405000Y-113366061D01*
X171299180Y-113309498D01*
X171179482Y-113273188D01*
X171055000Y-113260928D01*
X170240750Y-113264000D01*
X170082000Y-113422750D01*
X170082000Y-115172000D01*
X170102000Y-115172000D01*
X170102000Y-115426000D01*
X170082000Y-115426000D01*
X170082000Y-117175250D01*
X170240750Y-117334000D01*
X171055000Y-117337072D01*
X171179482Y-117324812D01*
X171299180Y-117288502D01*
X171405000Y-117231939D01*
X171510820Y-117288502D01*
X171630518Y-117324812D01*
X171664990Y-117328207D01*
X170306894Y-118686305D01*
X170282932Y-118565842D01*
X170170990Y-118295589D01*
X170008475Y-118052368D01*
X169801632Y-117845525D01*
X169558411Y-117683010D01*
X169288158Y-117571068D01*
X169001260Y-117514000D01*
X168708740Y-117514000D01*
X168421842Y-117571068D01*
X168151589Y-117683010D01*
X167908368Y-117845525D01*
X167701525Y-118052368D01*
X167539010Y-118295589D01*
X167427068Y-118565842D01*
X167370000Y-118852740D01*
X167370000Y-119145260D01*
X167427068Y-119432158D01*
X167511502Y-119636000D01*
X166223802Y-119636000D01*
X164209000Y-117621199D01*
X164209000Y-116699000D01*
X168216928Y-116699000D01*
X168229188Y-116823482D01*
X168265498Y-116943180D01*
X168324463Y-117053494D01*
X168403815Y-117150185D01*
X168500506Y-117229537D01*
X168610820Y-117288502D01*
X168730518Y-117324812D01*
X168855000Y-117337072D01*
X169669250Y-117334000D01*
X169828000Y-117175250D01*
X169828000Y-115426000D01*
X168378750Y-115426000D01*
X168220000Y-115584750D01*
X168216928Y-116699000D01*
X164209000Y-116699000D01*
X164209000Y-114083322D01*
X164212676Y-114045999D01*
X164209000Y-114008676D01*
X164209000Y-114008667D01*
X164198199Y-113899000D01*
X168216928Y-113899000D01*
X168220000Y-115013250D01*
X168378750Y-115172000D01*
X169828000Y-115172000D01*
X169828000Y-113422750D01*
X169669250Y-113264000D01*
X168855000Y-113260928D01*
X168730518Y-113273188D01*
X168610820Y-113309498D01*
X168500506Y-113368463D01*
X168403815Y-113447815D01*
X168324463Y-113544506D01*
X168265498Y-113654820D01*
X168229188Y-113774518D01*
X168216928Y-113899000D01*
X164198199Y-113899000D01*
X164198003Y-113897014D01*
X164154546Y-113753753D01*
X164083974Y-113621724D01*
X164070811Y-113605685D01*
X164012799Y-113534996D01*
X164012795Y-113534992D01*
X163989001Y-113505999D01*
X163960008Y-113482205D01*
X163510853Y-113033051D01*
X163703000Y-112941942D01*
X163703000Y-110617000D01*
X163957000Y-110617000D01*
X163957000Y-112941942D01*
X164208959Y-113061411D01*
X164334758Y-113031060D01*
X164627539Y-112902795D01*
X164889671Y-112719876D01*
X165111080Y-112489332D01*
X165283258Y-112220023D01*
X165399588Y-111922299D01*
X165455600Y-111607600D01*
X165455600Y-110617000D01*
X163957000Y-110617000D01*
X163703000Y-110617000D01*
X163683000Y-110617000D01*
X163683000Y-110363000D01*
X163703000Y-110363000D01*
X163703000Y-108038058D01*
X163957000Y-108038058D01*
X163957000Y-110363000D01*
X165455600Y-110363000D01*
X165455600Y-110015872D01*
X166421000Y-110015872D01*
X166421000Y-110456128D01*
X166506890Y-110887925D01*
X166675369Y-111294669D01*
X166919962Y-111660729D01*
X167231271Y-111972038D01*
X167597331Y-112216631D01*
X168004075Y-112385110D01*
X168435872Y-112471000D01*
X168876128Y-112471000D01*
X169307925Y-112385110D01*
X169714669Y-112216631D01*
X170080729Y-111972038D01*
X170392038Y-111660729D01*
X170636631Y-111294669D01*
X170805110Y-110887925D01*
X170891000Y-110456128D01*
X170891000Y-110015872D01*
X170805110Y-109584075D01*
X170636631Y-109177331D01*
X170392038Y-108811271D01*
X170080729Y-108499962D01*
X169714669Y-108255369D01*
X169307925Y-108086890D01*
X168876128Y-108001000D01*
X168435872Y-108001000D01*
X168004075Y-108086890D01*
X167597331Y-108255369D01*
X167231271Y-108499962D01*
X166919962Y-108811271D01*
X166675369Y-109177331D01*
X166506890Y-109584075D01*
X166421000Y-110015872D01*
X165455600Y-110015872D01*
X165455600Y-109372400D01*
X165399588Y-109057701D01*
X165283258Y-108759977D01*
X165111080Y-108490668D01*
X164889671Y-108260124D01*
X164627539Y-108077205D01*
X164334758Y-107948940D01*
X164208959Y-107918589D01*
X163957000Y-108038058D01*
X163703000Y-108038058D01*
X163451041Y-107918589D01*
X163325242Y-107948940D01*
X163032461Y-108077205D01*
X162770329Y-108260124D01*
X162685000Y-108348974D01*
X162685000Y-107837619D01*
X162832504Y-107758777D01*
X163080034Y-107555634D01*
X163283177Y-107308105D01*
X163434125Y-107025700D01*
X163527078Y-106719273D01*
X163550600Y-106480454D01*
X163550600Y-104339546D01*
X163527078Y-104100727D01*
X163434125Y-103794300D01*
X163283177Y-103511895D01*
X163080034Y-103264366D01*
X162832505Y-103061223D01*
X162550100Y-102910275D01*
X162243673Y-102817322D01*
X161925000Y-102785935D01*
X161606328Y-102817322D01*
X161299901Y-102910275D01*
X161017496Y-103061223D01*
X160769967Y-103264366D01*
X160566824Y-103511895D01*
X160532010Y-103577027D01*
X160531003Y-103576201D01*
X159186804Y-102232003D01*
X159163001Y-102202999D01*
X159047276Y-102108026D01*
X158915247Y-102037454D01*
X158771986Y-101993997D01*
X158660333Y-101983000D01*
X158660322Y-101983000D01*
X158623000Y-101979324D01*
X158585678Y-101983000D01*
X146214322Y-101983000D01*
X146176999Y-101979324D01*
X146139676Y-101983000D01*
X146139667Y-101983000D01*
X146028014Y-101993997D01*
X145884753Y-102037454D01*
X145752724Y-102108026D01*
X145636999Y-102202999D01*
X145613201Y-102231997D01*
X144269003Y-103576196D01*
X144267991Y-103577027D01*
X144233177Y-103511895D01*
X144030034Y-103264366D01*
X143782505Y-103061223D01*
X143500100Y-102910275D01*
X143193673Y-102817322D01*
X142875000Y-102785935D01*
X142556328Y-102817322D01*
X142249901Y-102910275D01*
X141967496Y-103061223D01*
X141719967Y-103264366D01*
X141516824Y-103511895D01*
X141365876Y-103794300D01*
X141272923Y-104100727D01*
X141249401Y-104339546D01*
X141249400Y-106480453D01*
X141272922Y-106719272D01*
X141365875Y-107025699D01*
X141516823Y-107308104D01*
X141719966Y-107555634D01*
X141967495Y-107758777D01*
X142249900Y-107909725D01*
X142556327Y-108002678D01*
X142875000Y-108034065D01*
X143193672Y-108002678D01*
X143500099Y-107909725D01*
X143782504Y-107758777D01*
X144020001Y-107563868D01*
X144020001Y-108062380D01*
X143872496Y-108141223D01*
X143624967Y-108344366D01*
X143421824Y-108591895D01*
X143270876Y-108874300D01*
X143177923Y-109180727D01*
X143154401Y-109419546D01*
X143154400Y-111560453D01*
X143177922Y-111799272D01*
X143270875Y-112105699D01*
X143421823Y-112388104D01*
X143624966Y-112635634D01*
X143872495Y-112838777D01*
X144154900Y-112989725D01*
X144461327Y-113082678D01*
X144780000Y-113114065D01*
X145098672Y-113082678D01*
X145405099Y-112989725D01*
X145687504Y-112838777D01*
X145935034Y-112635634D01*
X146138177Y-112388105D01*
X146289125Y-112105700D01*
X146382078Y-111799273D01*
X146405600Y-111560454D01*
X146405600Y-110617000D01*
X146964400Y-110617000D01*
X146964400Y-111607600D01*
X147020412Y-111922299D01*
X147136742Y-112220023D01*
X147308920Y-112489332D01*
X147530329Y-112719876D01*
X147792461Y-112902795D01*
X148085242Y-113031060D01*
X148211041Y-113061411D01*
X148463000Y-112941942D01*
X148463000Y-110617000D01*
X148717000Y-110617000D01*
X148717000Y-112941942D01*
X148968959Y-113061411D01*
X149094758Y-113031060D01*
X149387539Y-112902795D01*
X149649671Y-112719876D01*
X149871080Y-112489332D01*
X150043258Y-112220023D01*
X150159588Y-111922299D01*
X150215600Y-111607600D01*
X150215600Y-110617000D01*
X148717000Y-110617000D01*
X148463000Y-110617000D01*
X146964400Y-110617000D01*
X146405600Y-110617000D01*
X146405600Y-109419546D01*
X146400957Y-109372400D01*
X146964400Y-109372400D01*
X146964400Y-110363000D01*
X148463000Y-110363000D01*
X148463000Y-108038058D01*
X148717000Y-108038058D01*
X148717000Y-110363000D01*
X150215600Y-110363000D01*
X150215600Y-109372400D01*
X150159588Y-109057701D01*
X150043258Y-108759977D01*
X149871080Y-108490668D01*
X149649671Y-108260124D01*
X149387539Y-108077205D01*
X149094758Y-107948940D01*
X148968959Y-107918589D01*
X148717000Y-108038058D01*
X148463000Y-108038058D01*
X148211041Y-107918589D01*
X148085242Y-107948940D01*
X147792461Y-108077205D01*
X147530329Y-108260124D01*
X147308920Y-108490668D01*
X147136742Y-108759977D01*
X147020412Y-109057701D01*
X146964400Y-109372400D01*
X146400957Y-109372400D01*
X146382078Y-109180727D01*
X146289125Y-108874300D01*
X146138177Y-108591895D01*
X145935034Y-108344366D01*
X145687505Y-108141223D01*
X145540000Y-108062380D01*
X145540000Y-107563869D01*
X145777495Y-107758777D01*
X146059900Y-107909725D01*
X146366327Y-108002678D01*
X146685000Y-108034065D01*
X147003672Y-108002678D01*
X147310099Y-107909725D01*
X147592504Y-107758777D01*
X147840034Y-107555634D01*
X148043177Y-107308105D01*
X148194125Y-107025700D01*
X148287078Y-106719273D01*
X148310600Y-106480454D01*
X148310600Y-104339546D01*
X148287078Y-104100727D01*
X148194125Y-103794300D01*
X148043177Y-103511895D01*
X148035877Y-103503000D01*
X149144124Y-103503000D01*
X149136824Y-103511895D01*
X148985876Y-103794300D01*
X148892923Y-104100727D01*
X148869401Y-104339546D01*
X148869400Y-106480453D01*
X148892922Y-106719272D01*
X148985875Y-107025699D01*
X149136823Y-107308104D01*
X149339966Y-107555634D01*
X149587495Y-107758777D01*
X149869900Y-107909725D01*
X150176327Y-108002678D01*
X150495000Y-108034065D01*
X150813672Y-108002678D01*
X151120099Y-107909725D01*
X151402504Y-107758777D01*
X151650034Y-107555634D01*
X151853177Y-107308105D01*
X152004125Y-107025700D01*
X152097078Y-106719273D01*
X152120600Y-106480454D01*
X152120600Y-104339546D01*
X152097078Y-104100727D01*
X152004125Y-103794300D01*
X151853177Y-103511895D01*
X151845877Y-103503000D01*
X152954124Y-103503000D01*
X152946824Y-103511895D01*
X152795876Y-103794300D01*
X152702923Y-104100727D01*
X152679401Y-104339546D01*
X152679400Y-106480453D01*
X152702922Y-106719272D01*
X152795875Y-107025699D01*
X152946823Y-107308104D01*
X153149966Y-107555634D01*
X153397495Y-107758777D01*
X153545001Y-107837620D01*
X153545001Y-108336132D01*
X153307505Y-108141223D01*
X153025100Y-107990275D01*
X152718673Y-107897322D01*
X152400000Y-107865935D01*
X152081328Y-107897322D01*
X151774901Y-107990275D01*
X151492496Y-108141223D01*
X151244967Y-108344366D01*
X151041824Y-108591895D01*
X150890876Y-108874300D01*
X150797923Y-109180727D01*
X150774401Y-109419546D01*
X150774400Y-111560453D01*
X150797922Y-111799272D01*
X150890875Y-112105699D01*
X151041823Y-112388104D01*
X151244966Y-112635634D01*
X151492495Y-112838777D01*
X151767001Y-112985503D01*
X151767000Y-123121289D01*
X151723063Y-123165226D01*
X151609795Y-123334744D01*
X151531774Y-123523102D01*
X151492000Y-123723061D01*
X151492000Y-123926939D01*
X151531774Y-124126898D01*
X151609795Y-124315256D01*
X151723063Y-124484774D01*
X151867226Y-124628937D01*
X152036744Y-124742205D01*
X152225102Y-124820226D01*
X152425061Y-124860000D01*
X152628939Y-124860000D01*
X152821973Y-124821603D01*
X152812026Y-124833724D01*
X152792674Y-124869928D01*
X152197000Y-124869928D01*
X152072518Y-124882188D01*
X151952820Y-124918498D01*
X151842506Y-124977463D01*
X151745815Y-125056815D01*
X151666463Y-125153506D01*
X151629852Y-125222000D01*
X151464148Y-125222000D01*
X151427537Y-125153506D01*
X151348185Y-125056815D01*
X151251494Y-124977463D01*
X151141180Y-124918498D01*
X151021482Y-124882188D01*
X150897000Y-124869928D01*
X148397000Y-124869928D01*
X148272518Y-124882188D01*
X148152820Y-124918498D01*
X148042506Y-124977463D01*
X147945815Y-125056815D01*
X147866463Y-125153506D01*
X147829852Y-125222000D01*
X147664148Y-125222000D01*
X147627537Y-125153506D01*
X147548185Y-125056815D01*
X147451494Y-124977463D01*
X147341180Y-124918498D01*
X147221482Y-124882188D01*
X147097000Y-124869928D01*
X144597000Y-124869928D01*
X144472518Y-124882188D01*
X144352820Y-124918498D01*
X144242506Y-124977463D01*
X144145815Y-125056815D01*
X144066463Y-125153506D01*
X144029852Y-125222000D01*
X143864148Y-125222000D01*
X143827537Y-125153506D01*
X143748185Y-125056815D01*
X143651494Y-124977463D01*
X143541180Y-124918498D01*
X143421482Y-124882188D01*
X143297000Y-124869928D01*
X140797000Y-124869928D01*
X140672518Y-124882188D01*
X140552820Y-124918498D01*
X140442506Y-124977463D01*
X140345815Y-125056815D01*
X140266463Y-125153506D01*
X140229852Y-125222000D01*
X140064148Y-125222000D01*
X140027537Y-125153506D01*
X139948185Y-125056815D01*
X139851494Y-124977463D01*
X139741180Y-124918498D01*
X139672559Y-124897682D01*
X139699974Y-124864276D01*
X139770546Y-124732247D01*
X139814003Y-124588986D01*
X139825000Y-124477333D01*
X139825000Y-124477325D01*
X139828676Y-124440000D01*
X139825000Y-124402675D01*
X139825000Y-112631026D01*
X139910329Y-112719876D01*
X140172461Y-112902795D01*
X140465242Y-113031060D01*
X140591041Y-113061411D01*
X140843000Y-112941942D01*
X140843000Y-110617000D01*
X141097000Y-110617000D01*
X141097000Y-112941942D01*
X141348959Y-113061411D01*
X141474758Y-113031060D01*
X141767539Y-112902795D01*
X142029671Y-112719876D01*
X142251080Y-112489332D01*
X142423258Y-112220023D01*
X142539588Y-111922299D01*
X142595600Y-111607600D01*
X142595600Y-110617000D01*
X141097000Y-110617000D01*
X140843000Y-110617000D01*
X140823000Y-110617000D01*
X140823000Y-110363000D01*
X140843000Y-110363000D01*
X140843000Y-108038058D01*
X141097000Y-108038058D01*
X141097000Y-110363000D01*
X142595600Y-110363000D01*
X142595600Y-109372400D01*
X142539588Y-109057701D01*
X142423258Y-108759977D01*
X142251080Y-108490668D01*
X142029671Y-108260124D01*
X141767539Y-108077205D01*
X141474758Y-107948940D01*
X141348959Y-107918589D01*
X141097000Y-108038058D01*
X140843000Y-108038058D01*
X140591041Y-107918589D01*
X140465242Y-107948940D01*
X140172461Y-108077205D01*
X139910329Y-108260124D01*
X139825000Y-108348974D01*
X139825000Y-107837619D01*
X139972504Y-107758777D01*
X140220034Y-107555634D01*
X140423177Y-107308105D01*
X140574125Y-107025700D01*
X140667078Y-106719273D01*
X140690600Y-106480454D01*
X140690600Y-104339546D01*
X140667078Y-104100727D01*
X140574125Y-103794300D01*
X140423177Y-103511895D01*
X140220034Y-103264366D01*
X139972505Y-103061223D01*
X139690100Y-102910275D01*
X139383673Y-102817322D01*
X139065000Y-102785935D01*
X138746328Y-102817322D01*
X138439901Y-102910275D01*
X138157496Y-103061223D01*
X137909967Y-103264366D01*
X137706824Y-103511895D01*
X137555876Y-103794300D01*
X137462923Y-104100727D01*
X137439401Y-104339546D01*
X137439400Y-106480453D01*
X137462922Y-106719272D01*
X137555875Y-107025699D01*
X137706823Y-107308104D01*
X137909966Y-107555634D01*
X138157495Y-107758777D01*
X138305001Y-107837620D01*
X138305001Y-108336132D01*
X138067505Y-108141223D01*
X137785100Y-107990275D01*
X137478673Y-107897322D01*
X137160000Y-107865935D01*
X136841328Y-107897322D01*
X136534901Y-107990275D01*
X136252496Y-108141223D01*
X136015000Y-108336132D01*
X136015000Y-107837619D01*
X136162504Y-107758777D01*
X136410034Y-107555634D01*
X136613177Y-107308105D01*
X136764125Y-107025700D01*
X136857078Y-106719273D01*
X136880600Y-106480454D01*
X136880600Y-104339546D01*
X136857078Y-104100727D01*
X136764125Y-103794300D01*
X136613177Y-103511895D01*
X136410034Y-103264366D01*
X136162505Y-103061223D01*
X135880100Y-102910275D01*
X135573673Y-102817322D01*
X135255000Y-102785935D01*
X134936328Y-102817322D01*
X134629901Y-102910275D01*
X134347496Y-103061223D01*
X134099967Y-103264366D01*
X133896824Y-103511895D01*
X133745876Y-103794300D01*
X133652923Y-104100727D01*
X133629401Y-104339546D01*
X133629400Y-106480453D01*
X133652922Y-106719272D01*
X133745875Y-107025699D01*
X133896823Y-107308104D01*
X134099966Y-107555634D01*
X134347495Y-107758777D01*
X134495001Y-107837620D01*
X134495001Y-108348975D01*
X134409671Y-108260124D01*
X134147539Y-108077205D01*
X133854758Y-107948940D01*
X133728959Y-107918589D01*
X133477000Y-108038058D01*
X133477000Y-110363000D01*
X133497000Y-110363000D01*
X133497000Y-110617000D01*
X133477000Y-110617000D01*
X133477000Y-112941942D01*
X133728959Y-113061411D01*
X133854758Y-113031060D01*
X134147539Y-112902795D01*
X134409671Y-112719876D01*
X134495001Y-112631026D01*
X134495000Y-124135198D01*
X133935998Y-124694201D01*
X133907000Y-124717999D01*
X133883202Y-124746997D01*
X133883201Y-124746998D01*
X133812026Y-124833724D01*
X133792674Y-124869928D01*
X133197000Y-124869928D01*
X133072518Y-124882188D01*
X132952820Y-124918498D01*
X132842506Y-124977463D01*
X132745815Y-125056815D01*
X132666463Y-125153506D01*
X132629852Y-125222000D01*
X132464148Y-125222000D01*
X132427537Y-125153506D01*
X132348185Y-125056815D01*
X132251494Y-124977463D01*
X132141180Y-124918498D01*
X132021482Y-124882188D01*
X131897000Y-124869928D01*
X130932750Y-124873000D01*
X130774000Y-125031750D01*
X130774000Y-125222000D01*
X130520000Y-125222000D01*
X130520000Y-125031750D01*
X130361250Y-124873000D01*
X129397000Y-124869928D01*
X129272518Y-124882188D01*
X129152820Y-124918498D01*
X129042506Y-124977463D01*
X128945815Y-125056815D01*
X128866463Y-125153506D01*
X128829852Y-125222000D01*
X128664148Y-125222000D01*
X128627537Y-125153506D01*
X128548185Y-125056815D01*
X128451494Y-124977463D01*
X128341180Y-124918498D01*
X128268251Y-124896375D01*
X128269974Y-124894276D01*
X128340546Y-124762247D01*
X128384003Y-124618986D01*
X128395000Y-124507333D01*
X128395000Y-124507324D01*
X128398676Y-124470001D01*
X128395000Y-124432678D01*
X128395000Y-112643869D01*
X128632495Y-112838777D01*
X128914900Y-112989725D01*
X129221327Y-113082678D01*
X129540000Y-113114065D01*
X129858672Y-113082678D01*
X130165099Y-112989725D01*
X130447504Y-112838777D01*
X130695034Y-112635634D01*
X130898177Y-112388105D01*
X131049125Y-112105700D01*
X131142078Y-111799273D01*
X131165600Y-111560454D01*
X131165600Y-110617000D01*
X131724400Y-110617000D01*
X131724400Y-111607600D01*
X131780412Y-111922299D01*
X131896742Y-112220023D01*
X132068920Y-112489332D01*
X132290329Y-112719876D01*
X132552461Y-112902795D01*
X132845242Y-113031060D01*
X132971041Y-113061411D01*
X133223000Y-112941942D01*
X133223000Y-110617000D01*
X131724400Y-110617000D01*
X131165600Y-110617000D01*
X131165600Y-109419546D01*
X131160957Y-109372400D01*
X131724400Y-109372400D01*
X131724400Y-110363000D01*
X133223000Y-110363000D01*
X133223000Y-108038058D01*
X132971041Y-107918589D01*
X132845242Y-107948940D01*
X132552461Y-108077205D01*
X132290329Y-108260124D01*
X132068920Y-108490668D01*
X131896742Y-108759977D01*
X131780412Y-109057701D01*
X131724400Y-109372400D01*
X131160957Y-109372400D01*
X131142078Y-109180727D01*
X131049125Y-108874300D01*
X130898177Y-108591895D01*
X130695034Y-108344366D01*
X130447505Y-108141223D01*
X130165100Y-107990275D01*
X129858673Y-107897322D01*
X129540000Y-107865935D01*
X129221328Y-107897322D01*
X128914901Y-107990275D01*
X128632496Y-108141223D01*
X128395000Y-108336132D01*
X128395000Y-107837619D01*
X128542504Y-107758777D01*
X128790034Y-107555634D01*
X128993177Y-107308105D01*
X129144125Y-107025700D01*
X129237078Y-106719273D01*
X129260600Y-106480454D01*
X129260600Y-105537000D01*
X129819400Y-105537000D01*
X129819400Y-106527600D01*
X129875412Y-106842299D01*
X129991742Y-107140023D01*
X130163920Y-107409332D01*
X130385329Y-107639876D01*
X130647461Y-107822795D01*
X130940242Y-107951060D01*
X131066041Y-107981411D01*
X131318000Y-107861942D01*
X131318000Y-105537000D01*
X131572000Y-105537000D01*
X131572000Y-107861942D01*
X131823959Y-107981411D01*
X131949758Y-107951060D01*
X132242539Y-107822795D01*
X132504671Y-107639876D01*
X132726080Y-107409332D01*
X132898258Y-107140023D01*
X133014588Y-106842299D01*
X133070600Y-106527600D01*
X133070600Y-105537000D01*
X131572000Y-105537000D01*
X131318000Y-105537000D01*
X129819400Y-105537000D01*
X129260600Y-105537000D01*
X129260600Y-104339546D01*
X129255957Y-104292400D01*
X129819400Y-104292400D01*
X129819400Y-105283000D01*
X131318000Y-105283000D01*
X131318000Y-102958058D01*
X131572000Y-102958058D01*
X131572000Y-105283000D01*
X133070600Y-105283000D01*
X133070600Y-104292400D01*
X133014588Y-103977701D01*
X132898258Y-103679977D01*
X132726080Y-103410668D01*
X132504671Y-103180124D01*
X132242539Y-102997205D01*
X131949758Y-102868940D01*
X131823959Y-102838589D01*
X131572000Y-102958058D01*
X131318000Y-102958058D01*
X131066041Y-102838589D01*
X130940242Y-102868940D01*
X130647461Y-102997205D01*
X130385329Y-103180124D01*
X130163920Y-103410668D01*
X129991742Y-103679977D01*
X129875412Y-103977701D01*
X129819400Y-104292400D01*
X129255957Y-104292400D01*
X129237078Y-104100727D01*
X129144125Y-103794300D01*
X128993177Y-103511895D01*
X128790034Y-103264366D01*
X128542505Y-103061223D01*
X128260100Y-102910275D01*
X127953673Y-102817322D01*
X127635000Y-102785935D01*
X127316328Y-102817322D01*
X127009901Y-102910275D01*
X126727496Y-103061223D01*
X126479967Y-103264366D01*
X126276824Y-103511895D01*
X126125876Y-103794300D01*
X126032923Y-104100727D01*
X126009401Y-104339546D01*
X126009400Y-106480453D01*
X126032922Y-106719272D01*
X126125875Y-107025699D01*
X126276823Y-107308104D01*
X126479966Y-107555634D01*
X126727495Y-107758777D01*
X126875001Y-107837620D01*
X126875001Y-108336132D01*
X126637505Y-108141223D01*
X126355100Y-107990275D01*
X126048673Y-107897322D01*
X125730000Y-107865935D01*
X125411328Y-107897322D01*
X125104901Y-107990275D01*
X124822496Y-108141223D01*
X124574967Y-108344366D01*
X124371824Y-108591895D01*
X124220876Y-108874300D01*
X124127923Y-109180727D01*
X124104401Y-109419546D01*
X124104400Y-111560453D01*
X124127922Y-111799272D01*
X124220875Y-112105699D01*
X124371823Y-112388104D01*
X124574966Y-112635634D01*
X124822495Y-112838777D01*
X125104900Y-112989725D01*
X125411327Y-113082678D01*
X125730000Y-113114065D01*
X126048672Y-113082678D01*
X126355099Y-112989725D01*
X126637504Y-112838777D01*
X126875001Y-112643868D01*
X126875000Y-124155198D01*
X126335998Y-124694201D01*
X126307000Y-124717999D01*
X126283202Y-124746997D01*
X126283201Y-124746998D01*
X126212026Y-124833724D01*
X126192674Y-124869928D01*
X125597000Y-124869928D01*
X125472518Y-124882188D01*
X125352820Y-124918498D01*
X125242506Y-124977463D01*
X125145815Y-125056815D01*
X125066463Y-125153506D01*
X125029852Y-125222000D01*
X124856685Y-125222000D01*
X124856450Y-125219617D01*
X124818710Y-125095207D01*
X124757425Y-124980550D01*
X124674948Y-124880052D01*
X124574450Y-124797575D01*
X124459793Y-124736290D01*
X124335383Y-124698550D01*
X124238419Y-124689000D01*
X124206000Y-124685807D01*
X124173581Y-124689000D01*
X116230000Y-124689000D01*
X116230000Y-110015872D01*
X118669000Y-110015872D01*
X118669000Y-110456128D01*
X118754890Y-110887925D01*
X118923369Y-111294669D01*
X119167962Y-111660729D01*
X119479271Y-111972038D01*
X119845331Y-112216631D01*
X120252075Y-112385110D01*
X120683872Y-112471000D01*
X121124128Y-112471000D01*
X121555925Y-112385110D01*
X121962669Y-112216631D01*
X122328729Y-111972038D01*
X122640038Y-111660729D01*
X122884631Y-111294669D01*
X123053110Y-110887925D01*
X123139000Y-110456128D01*
X123139000Y-110015872D01*
X123053110Y-109584075D01*
X122884631Y-109177331D01*
X122640038Y-108811271D01*
X122328729Y-108499962D01*
X121962669Y-108255369D01*
X121555925Y-108086890D01*
X121124128Y-108001000D01*
X120683872Y-108001000D01*
X120252075Y-108086890D01*
X119845331Y-108255369D01*
X119479271Y-108499962D01*
X119167962Y-108811271D01*
X118923369Y-109177331D01*
X118754890Y-109584075D01*
X118669000Y-110015872D01*
X116230000Y-110015872D01*
X116230000Y-106113678D01*
X116241471Y-106171614D01*
X116244196Y-106180413D01*
X116244197Y-106180419D01*
X116244199Y-106180425D01*
X116334130Y-106463928D01*
X116357691Y-106518899D01*
X116380491Y-106574217D01*
X116384874Y-106582323D01*
X116528163Y-106842965D01*
X116561947Y-106892305D01*
X116595062Y-106942147D01*
X116600936Y-106949247D01*
X116792122Y-107177094D01*
X116834853Y-107218939D01*
X116877013Y-107261395D01*
X116884155Y-107267219D01*
X117115956Y-107453591D01*
X117165968Y-107486318D01*
X117215600Y-107519795D01*
X117223737Y-107524121D01*
X117487323Y-107661921D01*
X117542783Y-107684328D01*
X117597931Y-107707511D01*
X117606753Y-107710174D01*
X117892083Y-107794152D01*
X117950837Y-107805360D01*
X118009441Y-107817390D01*
X118018613Y-107818289D01*
X118314820Y-107845246D01*
X118374638Y-107844828D01*
X118434455Y-107845246D01*
X118443626Y-107844347D01*
X118739430Y-107813257D01*
X118798017Y-107801230D01*
X118856787Y-107790020D01*
X118865609Y-107787356D01*
X119149740Y-107699403D01*
X119204883Y-107676223D01*
X119260348Y-107653814D01*
X119268485Y-107649487D01*
X119530121Y-107508021D01*
X119579705Y-107474576D01*
X119629768Y-107441816D01*
X119636909Y-107435992D01*
X119866085Y-107246401D01*
X119908224Y-107203966D01*
X119950974Y-107162103D01*
X119956848Y-107155002D01*
X120144834Y-106924509D01*
X120177938Y-106874682D01*
X120211733Y-106825327D01*
X120216116Y-106817221D01*
X120355753Y-106554603D01*
X120378560Y-106499269D01*
X120402114Y-106444314D01*
X120404838Y-106435515D01*
X120404840Y-106435509D01*
X120490806Y-106150773D01*
X120502422Y-106092108D01*
X120514862Y-106033584D01*
X120515825Y-106024419D01*
X120544850Y-105728406D01*
X120544850Y-105599596D01*
X120524200Y-105495305D01*
X120524200Y-102274047D01*
X120534522Y-102240699D01*
X120543068Y-102159377D01*
X120544701Y-102151129D01*
X120544701Y-102143835D01*
X120547984Y-102112594D01*
X120547984Y-102103379D01*
X120547835Y-102082100D01*
X120544702Y-102052298D01*
X120544702Y-102022319D01*
X120543738Y-102013154D01*
X120510584Y-101717575D01*
X120498151Y-101659081D01*
X120486528Y-101600381D01*
X120483803Y-101591578D01*
X120393868Y-101308068D01*
X120370290Y-101253058D01*
X120347508Y-101197783D01*
X120343125Y-101189677D01*
X120199836Y-100929034D01*
X120166048Y-100879687D01*
X120132936Y-100829850D01*
X120127062Y-100822749D01*
X119935876Y-100594904D01*
X119893146Y-100553060D01*
X119850987Y-100510605D01*
X119843846Y-100504781D01*
X119612045Y-100318408D01*
X119562031Y-100285680D01*
X119512398Y-100252202D01*
X119504261Y-100247876D01*
X119240675Y-100110077D01*
X119185219Y-100087672D01*
X119130068Y-100064488D01*
X119121246Y-100061825D01*
X118835915Y-99977847D01*
X118777175Y-99966642D01*
X118718558Y-99954609D01*
X118709386Y-99953710D01*
X118413178Y-99926753D01*
X118353361Y-99927171D01*
X118293544Y-99926753D01*
X118284372Y-99927653D01*
X117988569Y-99958742D01*
X117929972Y-99970771D01*
X117871210Y-99981980D01*
X117862388Y-99984644D01*
X117578257Y-100072598D01*
X117523139Y-100095768D01*
X117467650Y-100118186D01*
X117459514Y-100122513D01*
X117197878Y-100263979D01*
X117148311Y-100297412D01*
X117098232Y-100330183D01*
X117091091Y-100336008D01*
X116861915Y-100525597D01*
X116819774Y-100568034D01*
X116777024Y-100609897D01*
X116771150Y-100616998D01*
X116583164Y-100847492D01*
X116550049Y-100897334D01*
X116516265Y-100946674D01*
X116511882Y-100954781D01*
X116372246Y-101217399D01*
X116349458Y-101272687D01*
X116325886Y-101327683D01*
X116323162Y-101336487D01*
X116237193Y-101621225D01*
X116230000Y-101657553D01*
X116230000Y-95021000D01*
X173330001Y-95021000D01*
X173330000Y-99854418D01*
G36*
X156661742Y-103679977D02*
G01*
X156545412Y-103977701D01*
X156489400Y-104292400D01*
X156489400Y-105283000D01*
X157988000Y-105283000D01*
X157988000Y-105263000D01*
X158242000Y-105263000D01*
X158242000Y-105283000D01*
X158262000Y-105283000D01*
X158262000Y-105537000D01*
X158242000Y-105537000D01*
X158242000Y-105557000D01*
X157988000Y-105557000D01*
X157988000Y-105537000D01*
X156489400Y-105537000D01*
X156489400Y-106527600D01*
X156545412Y-106842299D01*
X156661742Y-107140023D01*
X156833920Y-107409332D01*
X157055329Y-107639876D01*
X157317461Y-107822795D01*
X157610242Y-107951060D01*
X157736041Y-107981411D01*
X157987998Y-107861943D01*
X157987998Y-107891201D01*
X157730998Y-108148201D01*
X157702000Y-108171999D01*
X157678202Y-108200997D01*
X157678201Y-108200998D01*
X157607026Y-108287724D01*
X157536454Y-108419754D01*
X157512124Y-108499962D01*
X157507265Y-108515983D01*
X157491080Y-108490668D01*
X157269671Y-108260124D01*
X157007539Y-108077205D01*
X156714758Y-107948940D01*
X156588959Y-107918589D01*
X156337000Y-108038058D01*
X156337000Y-110363000D01*
X156357000Y-110363000D01*
X156357000Y-110617000D01*
X156337000Y-110617000D01*
X156337000Y-112941942D01*
X156588959Y-113061411D01*
X156714758Y-113031060D01*
X157007539Y-112902795D01*
X157269671Y-112719876D01*
X157491080Y-112489332D01*
X157651481Y-112238444D01*
X157701999Y-112300001D01*
X157731003Y-112323804D01*
X158831936Y-113424737D01*
X158803815Y-113447815D01*
X158724463Y-113544506D01*
X158665498Y-113654820D01*
X158629188Y-113774518D01*
X158616928Y-113899000D01*
X158616928Y-116699000D01*
X158629188Y-116823482D01*
X158665498Y-116943180D01*
X158724463Y-117053494D01*
X158803815Y-117150185D01*
X158900506Y-117229537D01*
X159010820Y-117288502D01*
X159130518Y-117324812D01*
X159255000Y-117337072D01*
X162055000Y-117337072D01*
X162179482Y-117324812D01*
X162299180Y-117288502D01*
X162409494Y-117229537D01*
X162506185Y-117150185D01*
X162585537Y-117053494D01*
X162644502Y-116943180D01*
X162680812Y-116823482D01*
X162689000Y-116740342D01*
X162689000Y-117770267D01*
X162558411Y-117683010D01*
X162288158Y-117571068D01*
X162001260Y-117514000D01*
X161708740Y-117514000D01*
X161421842Y-117571068D01*
X161151589Y-117683010D01*
X160908368Y-117845525D01*
X160701525Y-118052368D01*
X160539010Y-118295589D01*
X160427068Y-118565842D01*
X160370000Y-118852740D01*
X160370000Y-119145260D01*
X160427068Y-119432158D01*
X160539010Y-119702411D01*
X160701525Y-119945632D01*
X160908368Y-120152475D01*
X161151589Y-120314990D01*
X161421842Y-120426932D01*
X161708740Y-120484000D01*
X162001260Y-120484000D01*
X162288158Y-120426932D01*
X162558411Y-120314990D01*
X162801632Y-120152475D01*
X163008475Y-119945632D01*
X163170990Y-119702411D01*
X163282932Y-119432158D01*
X163340000Y-119145260D01*
X163340000Y-118901801D01*
X164834198Y-120396000D01*
X160535998Y-124694201D01*
X160507000Y-124717999D01*
X160483202Y-124746997D01*
X160483201Y-124746998D01*
X160412026Y-124833724D01*
X160392674Y-124869928D01*
X159797000Y-124869928D01*
X159672518Y-124882188D01*
X159552820Y-124918498D01*
X159442506Y-124977463D01*
X159345815Y-125056815D01*
X159266463Y-125153506D01*
X159229852Y-125222000D01*
X159064148Y-125222000D01*
X159027537Y-125153506D01*
X158948185Y-125056815D01*
X158851494Y-124977463D01*
X158741180Y-124918498D01*
X158621482Y-124882188D01*
X158497000Y-124869928D01*
X157532750Y-124873000D01*
X157374000Y-125031750D01*
X157374000Y-125222000D01*
X157120000Y-125222000D01*
X157120000Y-125031750D01*
X156961250Y-124873000D01*
X155997000Y-124869928D01*
X155872518Y-124882188D01*
X155752820Y-124918498D01*
X155642506Y-124977463D01*
X155545815Y-125056815D01*
X155466463Y-125153506D01*
X155429852Y-125222000D01*
X155264148Y-125222000D01*
X155227537Y-125153506D01*
X155148185Y-125056815D01*
X155051494Y-124977463D01*
X154941180Y-124918498D01*
X154878302Y-124899424D01*
X154939974Y-124824276D01*
X155010546Y-124692247D01*
X155054003Y-124548986D01*
X155065000Y-124437333D01*
X155065000Y-124437324D01*
X155068676Y-124400001D01*
X155065000Y-124362678D01*
X155065000Y-112631026D01*
X155150329Y-112719876D01*
X155412461Y-112902795D01*
X155705242Y-113031060D01*
X155831041Y-113061411D01*
X156083000Y-112941942D01*
X156083000Y-110617000D01*
X156063000Y-110617000D01*
X156063000Y-110363000D01*
X156083000Y-110363000D01*
X156083000Y-108038058D01*
X155831041Y-107918589D01*
X155705242Y-107948940D01*
X155412461Y-108077205D01*
X155150329Y-108260124D01*
X155065000Y-108348974D01*
X155065000Y-107837619D01*
X155212504Y-107758777D01*
X155460034Y-107555634D01*
X155663177Y-107308105D01*
X155814125Y-107025700D01*
X155907078Y-106719273D01*
X155930600Y-106480454D01*
X155930600Y-104339546D01*
X155907078Y-104100727D01*
X155814125Y-103794300D01*
X155663177Y-103511895D01*
X155655877Y-103503000D01*
X156774889Y-103503000D01*
X156661742Y-103679977D01*
X156661742Y-103679977D01*
G37*
X156661742Y-103679977D02*
X156545412Y-103977701D01*
X156489400Y-104292400D01*
X156489400Y-105283000D01*
X157988000Y-105283000D01*
X157988000Y-105263000D01*
X158242000Y-105263000D01*
X158242000Y-105283000D01*
X158262000Y-105283000D01*
X158262000Y-105537000D01*
X158242000Y-105537000D01*
X158242000Y-105557000D01*
X157988000Y-105557000D01*
X157988000Y-105537000D01*
X156489400Y-105537000D01*
X156489400Y-106527600D01*
X156545412Y-106842299D01*
X156661742Y-107140023D01*
X156833920Y-107409332D01*
X157055329Y-107639876D01*
X157317461Y-107822795D01*
X157610242Y-107951060D01*
X157736041Y-107981411D01*
X157987998Y-107861943D01*
X157987998Y-107891201D01*
X157730998Y-108148201D01*
X157702000Y-108171999D01*
X157678202Y-108200997D01*
X157678201Y-108200998D01*
X157607026Y-108287724D01*
X157536454Y-108419754D01*
X157512124Y-108499962D01*
X157507265Y-108515983D01*
X157491080Y-108490668D01*
X157269671Y-108260124D01*
X157007539Y-108077205D01*
X156714758Y-107948940D01*
X156588959Y-107918589D01*
X156337000Y-108038058D01*
X156337000Y-110363000D01*
X156357000Y-110363000D01*
X156357000Y-110617000D01*
X156337000Y-110617000D01*
X156337000Y-112941942D01*
X156588959Y-113061411D01*
X156714758Y-113031060D01*
X157007539Y-112902795D01*
X157269671Y-112719876D01*
X157491080Y-112489332D01*
X157651481Y-112238444D01*
X157701999Y-112300001D01*
X157731003Y-112323804D01*
X158831936Y-113424737D01*
X158803815Y-113447815D01*
X158724463Y-113544506D01*
X158665498Y-113654820D01*
X158629188Y-113774518D01*
X158616928Y-113899000D01*
X158616928Y-116699000D01*
X158629188Y-116823482D01*
X158665498Y-116943180D01*
X158724463Y-117053494D01*
X158803815Y-117150185D01*
X158900506Y-117229537D01*
X159010820Y-117288502D01*
X159130518Y-117324812D01*
X159255000Y-117337072D01*
X162055000Y-117337072D01*
X162179482Y-117324812D01*
X162299180Y-117288502D01*
X162409494Y-117229537D01*
X162506185Y-117150185D01*
X162585537Y-117053494D01*
X162644502Y-116943180D01*
X162680812Y-116823482D01*
X162689000Y-116740342D01*
X162689000Y-117770267D01*
X162558411Y-117683010D01*
X162288158Y-117571068D01*
X162001260Y-117514000D01*
X161708740Y-117514000D01*
X161421842Y-117571068D01*
X161151589Y-117683010D01*
X160908368Y-117845525D01*
X160701525Y-118052368D01*
X160539010Y-118295589D01*
X160427068Y-118565842D01*
X160370000Y-118852740D01*
X160370000Y-119145260D01*
X160427068Y-119432158D01*
X160539010Y-119702411D01*
X160701525Y-119945632D01*
X160908368Y-120152475D01*
X161151589Y-120314990D01*
X161421842Y-120426932D01*
X161708740Y-120484000D01*
X162001260Y-120484000D01*
X162288158Y-120426932D01*
X162558411Y-120314990D01*
X162801632Y-120152475D01*
X163008475Y-119945632D01*
X163170990Y-119702411D01*
X163282932Y-119432158D01*
X163340000Y-119145260D01*
X163340000Y-118901801D01*
X164834198Y-120396000D01*
X160535998Y-124694201D01*
X160507000Y-124717999D01*
X160483202Y-124746997D01*
X160483201Y-124746998D01*
X160412026Y-124833724D01*
X160392674Y-124869928D01*
X159797000Y-124869928D01*
X159672518Y-124882188D01*
X159552820Y-124918498D01*
X159442506Y-124977463D01*
X159345815Y-125056815D01*
X159266463Y-125153506D01*
X159229852Y-125222000D01*
X159064148Y-125222000D01*
X159027537Y-125153506D01*
X158948185Y-125056815D01*
X158851494Y-124977463D01*
X158741180Y-124918498D01*
X158621482Y-124882188D01*
X158497000Y-124869928D01*
X157532750Y-124873000D01*
X157374000Y-125031750D01*
X157374000Y-125222000D01*
X157120000Y-125222000D01*
X157120000Y-125031750D01*
X156961250Y-124873000D01*
X155997000Y-124869928D01*
X155872518Y-124882188D01*
X155752820Y-124918498D01*
X155642506Y-124977463D01*
X155545815Y-125056815D01*
X155466463Y-125153506D01*
X155429852Y-125222000D01*
X155264148Y-125222000D01*
X155227537Y-125153506D01*
X155148185Y-125056815D01*
X155051494Y-124977463D01*
X154941180Y-124918498D01*
X154878302Y-124899424D01*
X154939974Y-124824276D01*
X155010546Y-124692247D01*
X155054003Y-124548986D01*
X155065000Y-124437333D01*
X155065000Y-124437324D01*
X155068676Y-124400001D01*
X155065000Y-124362678D01*
X155065000Y-112631026D01*
X155150329Y-112719876D01*
X155412461Y-112902795D01*
X155705242Y-113031060D01*
X155831041Y-113061411D01*
X156083000Y-112941942D01*
X156083000Y-110617000D01*
X156063000Y-110617000D01*
X156063000Y-110363000D01*
X156083000Y-110363000D01*
X156083000Y-108038058D01*
X155831041Y-107918589D01*
X155705242Y-107948940D01*
X155412461Y-108077205D01*
X155150329Y-108260124D01*
X155065000Y-108348974D01*
X155065000Y-107837619D01*
X155212504Y-107758777D01*
X155460034Y-107555634D01*
X155663177Y-107308105D01*
X155814125Y-107025700D01*
X155907078Y-106719273D01*
X155930600Y-106480454D01*
X155930600Y-104339546D01*
X155907078Y-104100727D01*
X155814125Y-103794300D01*
X155663177Y-103511895D01*
X155655877Y-103503000D01*
X156774889Y-103503000D01*
X156661742Y-103679977D01*
G36*
X138305000Y-124125198D02*
G01*
X137735998Y-124694201D01*
X137707000Y-124717999D01*
X137683202Y-124746997D01*
X137683201Y-124746998D01*
X137612026Y-124833724D01*
X137592674Y-124869928D01*
X136997000Y-124869928D01*
X136872518Y-124882188D01*
X136752820Y-124918498D01*
X136642506Y-124977463D01*
X136545815Y-125056815D01*
X136466463Y-125153506D01*
X136429852Y-125222000D01*
X136264148Y-125222000D01*
X136227537Y-125153506D01*
X136148185Y-125056815D01*
X136051494Y-124977463D01*
X135941180Y-124918498D01*
X135871123Y-124897246D01*
X135889974Y-124874276D01*
X135960546Y-124742247D01*
X136004003Y-124598986D01*
X136015000Y-124487333D01*
X136015000Y-124487332D01*
X136018677Y-124450000D01*
X136015000Y-124412667D01*
X136015000Y-112643869D01*
X136252495Y-112838777D01*
X136534900Y-112989725D01*
X136841327Y-113082678D01*
X137160000Y-113114065D01*
X137478672Y-113082678D01*
X137785099Y-112989725D01*
X138067504Y-112838777D01*
X138305001Y-112643868D01*
X138305000Y-124125198D01*
X138305000Y-124125198D01*
G37*
X138305000Y-124125198D02*
X137735998Y-124694201D01*
X137707000Y-124717999D01*
X137683202Y-124746997D01*
X137683201Y-124746998D01*
X137612026Y-124833724D01*
X137592674Y-124869928D01*
X136997000Y-124869928D01*
X136872518Y-124882188D01*
X136752820Y-124918498D01*
X136642506Y-124977463D01*
X136545815Y-125056815D01*
X136466463Y-125153506D01*
X136429852Y-125222000D01*
X136264148Y-125222000D01*
X136227537Y-125153506D01*
X136148185Y-125056815D01*
X136051494Y-124977463D01*
X135941180Y-124918498D01*
X135871123Y-124897246D01*
X135889974Y-124874276D01*
X135960546Y-124742247D01*
X136004003Y-124598986D01*
X136015000Y-124487333D01*
X136015000Y-124487332D01*
X136018677Y-124450000D01*
X136015000Y-124412667D01*
X136015000Y-112643869D01*
X136252495Y-112838777D01*
X136534900Y-112989725D01*
X136841327Y-113082678D01*
X137160000Y-113114065D01*
X137478672Y-113082678D01*
X137785099Y-112989725D01*
X138067504Y-112838777D01*
X138305001Y-112643868D01*
X138305000Y-124125198D01*
G36*
X166329188Y-121174518D02*
G01*
X166316928Y-121299000D01*
X166316928Y-124099000D01*
X166329188Y-124223482D01*
X166365498Y-124343180D01*
X166424463Y-124453494D01*
X166503815Y-124550185D01*
X166518212Y-124562000D01*
X165513419Y-124562000D01*
X165481000Y-124558807D01*
X165448581Y-124562000D01*
X165351617Y-124571550D01*
X165227207Y-124609290D01*
X165112550Y-124670575D01*
X165012052Y-124753052D01*
X164929575Y-124853550D01*
X164868290Y-124968207D01*
X164830550Y-125092617D01*
X164817807Y-125222000D01*
X162864148Y-125222000D01*
X162827537Y-125153506D01*
X162748185Y-125056815D01*
X162651494Y-124977463D01*
X162541180Y-124918498D01*
X162479894Y-124899907D01*
X166223802Y-121156000D01*
X166334805Y-121156000D01*
X166329188Y-121174518D01*
X166329188Y-121174518D01*
G37*
X166329188Y-121174518D02*
X166316928Y-121299000D01*
X166316928Y-124099000D01*
X166329188Y-124223482D01*
X166365498Y-124343180D01*
X166424463Y-124453494D01*
X166503815Y-124550185D01*
X166518212Y-124562000D01*
X165513419Y-124562000D01*
X165481000Y-124558807D01*
X165448581Y-124562000D01*
X165351617Y-124571550D01*
X165227207Y-124609290D01*
X165112550Y-124670575D01*
X165012052Y-124753052D01*
X164929575Y-124853550D01*
X164868290Y-124968207D01*
X164830550Y-125092617D01*
X164817807Y-125222000D01*
X162864148Y-125222000D01*
X162827537Y-125153506D01*
X162748185Y-125056815D01*
X162651494Y-124977463D01*
X162541180Y-124918498D01*
X162479894Y-124899907D01*
X166223802Y-121156000D01*
X166334805Y-121156000D01*
X166329188Y-121174518D01*
G36*
X173330001Y-124554571D02*
G01*
X173330000Y-124554581D01*
X173330000Y-124562000D01*
X169591788Y-124562000D01*
X169606185Y-124550185D01*
X169685537Y-124453494D01*
X169744502Y-124343180D01*
X169780812Y-124223482D01*
X169793072Y-124099000D01*
X169793072Y-123583388D01*
X169816744Y-123599205D01*
X170005102Y-123677226D01*
X170205061Y-123717000D01*
X170408939Y-123717000D01*
X170608898Y-123677226D01*
X170797256Y-123599205D01*
X170966774Y-123485937D01*
X171110937Y-123341774D01*
X171224205Y-123172256D01*
X171302226Y-122983898D01*
X171342000Y-122783939D01*
X171342000Y-122580061D01*
X171302226Y-122380102D01*
X171224205Y-122191744D01*
X171110937Y-122022226D01*
X170966774Y-121878063D01*
X170797256Y-121764795D01*
X170608898Y-121686774D01*
X170408939Y-121647000D01*
X170205061Y-121647000D01*
X170005102Y-121686774D01*
X169816744Y-121764795D01*
X169793072Y-121780612D01*
X169793072Y-121299000D01*
X169780812Y-121174518D01*
X169773284Y-121149701D01*
X169820986Y-121145003D01*
X169964247Y-121101546D01*
X170096276Y-121030974D01*
X170212001Y-120936001D01*
X170235804Y-120906997D01*
X173266009Y-117876794D01*
X173295001Y-117853001D01*
X173318795Y-117824008D01*
X173318799Y-117824004D01*
X173330001Y-117810355D01*
X173330001Y-124554571D01*
X173330001Y-124554571D01*
G37*
X173330001Y-124554571D02*
X173330000Y-124554581D01*
X173330000Y-124562000D01*
X169591788Y-124562000D01*
X169606185Y-124550185D01*
X169685537Y-124453494D01*
X169744502Y-124343180D01*
X169780812Y-124223482D01*
X169793072Y-124099000D01*
X169793072Y-123583388D01*
X169816744Y-123599205D01*
X170005102Y-123677226D01*
X170205061Y-123717000D01*
X170408939Y-123717000D01*
X170608898Y-123677226D01*
X170797256Y-123599205D01*
X170966774Y-123485937D01*
X171110937Y-123341774D01*
X171224205Y-123172256D01*
X171302226Y-122983898D01*
X171342000Y-122783939D01*
X171342000Y-122580061D01*
X171302226Y-122380102D01*
X171224205Y-122191744D01*
X171110937Y-122022226D01*
X170966774Y-121878063D01*
X170797256Y-121764795D01*
X170608898Y-121686774D01*
X170408939Y-121647000D01*
X170205061Y-121647000D01*
X170005102Y-121686774D01*
X169816744Y-121764795D01*
X169793072Y-121780612D01*
X169793072Y-121299000D01*
X169780812Y-121174518D01*
X169773284Y-121149701D01*
X169820986Y-121145003D01*
X169964247Y-121101546D01*
X170096276Y-121030974D01*
X170212001Y-120936001D01*
X170235804Y-120906997D01*
X173266009Y-117876794D01*
X173295001Y-117853001D01*
X173318795Y-117824008D01*
X173318799Y-117824004D01*
X173330001Y-117810355D01*
X173330001Y-124554571D01*
G36*
X153545000Y-123637596D02*
G01*
X153522226Y-123523102D01*
X153444205Y-123334744D01*
X153330937Y-123165226D01*
X153287000Y-123121289D01*
X153287000Y-112849737D01*
X153307504Y-112838777D01*
X153545001Y-112643868D01*
X153545000Y-123637596D01*
X153545000Y-123637596D01*
G37*
X153545000Y-123637596D02*
X153522226Y-123523102D01*
X153444205Y-123334744D01*
X153330937Y-123165226D01*
X153287000Y-123121289D01*
X153287000Y-112849737D01*
X153307504Y-112838777D01*
X153545001Y-112643868D01*
X153545000Y-123637596D01*
M02*
