G04 #@! TF.GenerationSoftware,KiCad,Pcbnew,(5.1.0)-1*
G04 #@! TF.CreationDate,2019-04-07T00:40:10-04:00*
G04 #@! TF.ProjectId,Lightgunverter SCART Breakout,4c696768-7467-4756-9e76-657274657220,rev?*
G04 #@! TF.SameCoordinates,Original*
G04 #@! TF.FileFunction,Legend,Bot*
G04 #@! TF.FilePolarity,Positive*
%FSLAX46Y46*%
G04 Gerber Fmt 4.6, Leading zero omitted, Abs format (unit mm)*
G04 Created by KiCad (PCBNEW (5.1.0)-1) date 2019-04-07 00:40:10*
%MOMM*%
%LPD*%
G04 APERTURE LIST*
%ADD10C,0.150000*%
G04 APERTURE END LIST*
D10*
X155709238Y-118709761D02*
X156518761Y-118709761D01*
X156518761Y-116709761D01*
X155142571Y-118709761D02*
X155142571Y-117376428D01*
X155142571Y-116709761D02*
X155223523Y-116805000D01*
X155142571Y-116900238D01*
X155061619Y-116805000D01*
X155142571Y-116709761D01*
X155142571Y-116900238D01*
X153604476Y-118614523D02*
X153766380Y-118709761D01*
X154090190Y-118709761D01*
X154252095Y-118614523D01*
X154333047Y-118519285D01*
X154414000Y-118328809D01*
X154414000Y-117757380D01*
X154333047Y-117566904D01*
X154252095Y-117471666D01*
X154090190Y-117376428D01*
X153766380Y-117376428D01*
X153604476Y-117471666D01*
X152228285Y-118614523D02*
X152390190Y-118709761D01*
X152714000Y-118709761D01*
X152875904Y-118614523D01*
X152956857Y-118424047D01*
X152956857Y-117662142D01*
X152875904Y-117471666D01*
X152714000Y-117376428D01*
X152390190Y-117376428D01*
X152228285Y-117471666D01*
X152147333Y-117662142D01*
X152147333Y-117852619D01*
X152956857Y-118043095D01*
X151418761Y-117376428D02*
X151418761Y-118709761D01*
X151418761Y-117566904D02*
X151337809Y-117471666D01*
X151175904Y-117376428D01*
X150933047Y-117376428D01*
X150771142Y-117471666D01*
X150690190Y-117662142D01*
X150690190Y-118709761D01*
X149961619Y-118614523D02*
X149799714Y-118709761D01*
X149475904Y-118709761D01*
X149314000Y-118614523D01*
X149233047Y-118424047D01*
X149233047Y-118328809D01*
X149314000Y-118138333D01*
X149475904Y-118043095D01*
X149718761Y-118043095D01*
X149880666Y-117947857D01*
X149961619Y-117757380D01*
X149961619Y-117662142D01*
X149880666Y-117471666D01*
X149718761Y-117376428D01*
X149475904Y-117376428D01*
X149314000Y-117471666D01*
X147856857Y-118614523D02*
X148018761Y-118709761D01*
X148342571Y-118709761D01*
X148504476Y-118614523D01*
X148585428Y-118424047D01*
X148585428Y-117662142D01*
X148504476Y-117471666D01*
X148342571Y-117376428D01*
X148018761Y-117376428D01*
X147856857Y-117471666D01*
X147775904Y-117662142D01*
X147775904Y-117852619D01*
X148585428Y-118043095D01*
X146318761Y-118709761D02*
X146318761Y-116709761D01*
X146318761Y-118614523D02*
X146480666Y-118709761D01*
X146804476Y-118709761D01*
X146966380Y-118614523D01*
X147047333Y-118519285D01*
X147128285Y-118328809D01*
X147128285Y-117757380D01*
X147047333Y-117566904D01*
X146966380Y-117471666D01*
X146804476Y-117376428D01*
X146480666Y-117376428D01*
X146318761Y-117471666D01*
X143485428Y-117376428D02*
X143485428Y-118709761D01*
X144214000Y-117376428D02*
X144214000Y-118424047D01*
X144133047Y-118614523D01*
X143971142Y-118709761D01*
X143728285Y-118709761D01*
X143566380Y-118614523D01*
X143485428Y-118519285D01*
X142675904Y-117376428D02*
X142675904Y-118709761D01*
X142675904Y-117566904D02*
X142594952Y-117471666D01*
X142433047Y-117376428D01*
X142190190Y-117376428D01*
X142028285Y-117471666D01*
X141947333Y-117662142D01*
X141947333Y-118709761D01*
X140409238Y-118709761D02*
X140409238Y-116709761D01*
X140409238Y-118614523D02*
X140571142Y-118709761D01*
X140894952Y-118709761D01*
X141056857Y-118614523D01*
X141137809Y-118519285D01*
X141218761Y-118328809D01*
X141218761Y-117757380D01*
X141137809Y-117566904D01*
X141056857Y-117471666D01*
X140894952Y-117376428D01*
X140571142Y-117376428D01*
X140409238Y-117471666D01*
X138952095Y-118614523D02*
X139114000Y-118709761D01*
X139437809Y-118709761D01*
X139599714Y-118614523D01*
X139680666Y-118424047D01*
X139680666Y-117662142D01*
X139599714Y-117471666D01*
X139437809Y-117376428D01*
X139114000Y-117376428D01*
X138952095Y-117471666D01*
X138871142Y-117662142D01*
X138871142Y-117852619D01*
X139680666Y-118043095D01*
X138142571Y-118709761D02*
X138142571Y-117376428D01*
X138142571Y-117757380D02*
X138061619Y-117566904D01*
X137980666Y-117471666D01*
X137818761Y-117376428D01*
X137656857Y-117376428D01*
X134823523Y-118519285D02*
X134904476Y-118614523D01*
X135147333Y-118709761D01*
X135309238Y-118709761D01*
X135552095Y-118614523D01*
X135714000Y-118424047D01*
X135794952Y-118233571D01*
X135875904Y-117852619D01*
X135875904Y-117566904D01*
X135794952Y-117185952D01*
X135714000Y-116995476D01*
X135552095Y-116805000D01*
X135309238Y-116709761D01*
X135147333Y-116709761D01*
X134904476Y-116805000D01*
X134823523Y-116900238D01*
X134094952Y-117662142D02*
X133528285Y-117662142D01*
X133285428Y-118709761D02*
X134094952Y-118709761D01*
X134094952Y-116709761D01*
X133285428Y-116709761D01*
X131585428Y-118709761D02*
X132152095Y-117757380D01*
X132556857Y-118709761D02*
X132556857Y-116709761D01*
X131909238Y-116709761D01*
X131747333Y-116805000D01*
X131666380Y-116900238D01*
X131585428Y-117090714D01*
X131585428Y-117376428D01*
X131666380Y-117566904D01*
X131747333Y-117662142D01*
X131909238Y-117757380D01*
X132556857Y-117757380D01*
X130856857Y-118709761D02*
X130856857Y-116709761D01*
X129885428Y-118709761D01*
X129885428Y-116709761D01*
X127456857Y-116709761D02*
X127133047Y-116709761D01*
X126971142Y-116805000D01*
X126809238Y-116995476D01*
X126728285Y-117376428D01*
X126728285Y-118043095D01*
X126809238Y-118424047D01*
X126971142Y-118614523D01*
X127133047Y-118709761D01*
X127456857Y-118709761D01*
X127618761Y-118614523D01*
X127780666Y-118424047D01*
X127861619Y-118043095D01*
X127861619Y-117376428D01*
X127780666Y-116995476D01*
X127618761Y-116805000D01*
X127456857Y-116709761D01*
X125999714Y-118709761D02*
X125999714Y-116709761D01*
X125999714Y-117662142D02*
X125028285Y-117662142D01*
X125028285Y-118709761D02*
X125028285Y-116709761D01*
X123409238Y-118709761D02*
X124218761Y-118709761D01*
X124218761Y-116709761D01*
X120656857Y-118709761D02*
X121628285Y-118709761D01*
X121142571Y-118709761D02*
X121142571Y-116709761D01*
X121304476Y-116995476D01*
X121466380Y-117185952D01*
X121628285Y-117281190D01*
X119928285Y-118519285D02*
X119847333Y-118614523D01*
X119928285Y-118709761D01*
X120009238Y-118614523D01*
X119928285Y-118519285D01*
X119928285Y-118709761D01*
X119199714Y-116900238D02*
X119118761Y-116805000D01*
X118956857Y-116709761D01*
X118552095Y-116709761D01*
X118390190Y-116805000D01*
X118309238Y-116900238D01*
X118228285Y-117090714D01*
X118228285Y-117281190D01*
X118309238Y-117566904D01*
X119280666Y-118709761D01*
X118228285Y-118709761D01*
X157652095Y-121859761D02*
X157652095Y-119859761D01*
X156923523Y-121859761D02*
X156923523Y-120812142D01*
X157004476Y-120621666D01*
X157166380Y-120526428D01*
X157409238Y-120526428D01*
X157571142Y-120621666D01*
X157652095Y-120716904D01*
X156356857Y-120526428D02*
X155709238Y-120526428D01*
X156114000Y-119859761D02*
X156114000Y-121574047D01*
X156033047Y-121764523D01*
X155871142Y-121859761D01*
X155709238Y-121859761D01*
X155385428Y-120526428D02*
X154737809Y-120526428D01*
X155142571Y-119859761D02*
X155142571Y-121574047D01*
X155061619Y-121764523D01*
X154899714Y-121859761D01*
X154737809Y-121859761D01*
X154171142Y-120526428D02*
X154171142Y-122526428D01*
X154171142Y-120621666D02*
X154009238Y-120526428D01*
X153685428Y-120526428D01*
X153523523Y-120621666D01*
X153442571Y-120716904D01*
X153361619Y-120907380D01*
X153361619Y-121478809D01*
X153442571Y-121669285D01*
X153523523Y-121764523D01*
X153685428Y-121859761D01*
X154009238Y-121859761D01*
X154171142Y-121764523D01*
X152714000Y-121764523D02*
X152552095Y-121859761D01*
X152228285Y-121859761D01*
X152066380Y-121764523D01*
X151985428Y-121574047D01*
X151985428Y-121478809D01*
X152066380Y-121288333D01*
X152228285Y-121193095D01*
X152471142Y-121193095D01*
X152633047Y-121097857D01*
X152714000Y-120907380D01*
X152714000Y-120812142D01*
X152633047Y-120621666D01*
X152471142Y-120526428D01*
X152228285Y-120526428D01*
X152066380Y-120621666D01*
X151256857Y-121669285D02*
X151175904Y-121764523D01*
X151256857Y-121859761D01*
X151337809Y-121764523D01*
X151256857Y-121669285D01*
X151256857Y-121859761D01*
X151256857Y-120621666D02*
X151175904Y-120716904D01*
X151256857Y-120812142D01*
X151337809Y-120716904D01*
X151256857Y-120621666D01*
X151256857Y-120812142D01*
X149233047Y-119764523D02*
X150690190Y-122335952D01*
X147452095Y-119764523D02*
X148909238Y-122335952D01*
X146156857Y-120526428D02*
X146156857Y-122145476D01*
X146237809Y-122335952D01*
X146318761Y-122431190D01*
X146480666Y-122526428D01*
X146723523Y-122526428D01*
X146885428Y-122431190D01*
X146156857Y-121764523D02*
X146318761Y-121859761D01*
X146642571Y-121859761D01*
X146804476Y-121764523D01*
X146885428Y-121669285D01*
X146966380Y-121478809D01*
X146966380Y-120907380D01*
X146885428Y-120716904D01*
X146804476Y-120621666D01*
X146642571Y-120526428D01*
X146318761Y-120526428D01*
X146156857Y-120621666D01*
X145347333Y-121859761D02*
X145347333Y-120526428D01*
X145347333Y-119859761D02*
X145428285Y-119955000D01*
X145347333Y-120050238D01*
X145266380Y-119955000D01*
X145347333Y-119859761D01*
X145347333Y-120050238D01*
X144780666Y-120526428D02*
X144133047Y-120526428D01*
X144537809Y-119859761D02*
X144537809Y-121574047D01*
X144456857Y-121764523D01*
X144294952Y-121859761D01*
X144133047Y-121859761D01*
X143566380Y-121859761D02*
X143566380Y-119859761D01*
X142837809Y-121859761D02*
X142837809Y-120812142D01*
X142918761Y-120621666D01*
X143080666Y-120526428D01*
X143323523Y-120526428D01*
X143485428Y-120621666D01*
X143566380Y-120716904D01*
X141299714Y-120526428D02*
X141299714Y-121859761D01*
X142028285Y-120526428D02*
X142028285Y-121574047D01*
X141947333Y-121764523D01*
X141785428Y-121859761D01*
X141542571Y-121859761D01*
X141380666Y-121764523D01*
X141299714Y-121669285D01*
X140490190Y-121859761D02*
X140490190Y-119859761D01*
X140490190Y-120621666D02*
X140328285Y-120526428D01*
X140004476Y-120526428D01*
X139842571Y-120621666D01*
X139761619Y-120716904D01*
X139680666Y-120907380D01*
X139680666Y-121478809D01*
X139761619Y-121669285D01*
X139842571Y-121764523D01*
X140004476Y-121859761D01*
X140328285Y-121859761D01*
X140490190Y-121764523D01*
X138952095Y-121669285D02*
X138871142Y-121764523D01*
X138952095Y-121859761D01*
X139033047Y-121764523D01*
X138952095Y-121669285D01*
X138952095Y-121859761D01*
X137414000Y-121764523D02*
X137575904Y-121859761D01*
X137899714Y-121859761D01*
X138061619Y-121764523D01*
X138142571Y-121669285D01*
X138223523Y-121478809D01*
X138223523Y-120907380D01*
X138142571Y-120716904D01*
X138061619Y-120621666D01*
X137899714Y-120526428D01*
X137575904Y-120526428D01*
X137414000Y-120621666D01*
X136442571Y-121859761D02*
X136604476Y-121764523D01*
X136685428Y-121669285D01*
X136766380Y-121478809D01*
X136766380Y-120907380D01*
X136685428Y-120716904D01*
X136604476Y-120621666D01*
X136442571Y-120526428D01*
X136199714Y-120526428D01*
X136037809Y-120621666D01*
X135956857Y-120716904D01*
X135875904Y-120907380D01*
X135875904Y-121478809D01*
X135956857Y-121669285D01*
X136037809Y-121764523D01*
X136199714Y-121859761D01*
X136442571Y-121859761D01*
X135147333Y-121859761D02*
X135147333Y-120526428D01*
X135147333Y-120716904D02*
X135066380Y-120621666D01*
X134904476Y-120526428D01*
X134661619Y-120526428D01*
X134499714Y-120621666D01*
X134418761Y-120812142D01*
X134418761Y-121859761D01*
X134418761Y-120812142D02*
X134337809Y-120621666D01*
X134175904Y-120526428D01*
X133933047Y-120526428D01*
X133771142Y-120621666D01*
X133690190Y-120812142D01*
X133690190Y-121859761D01*
X131666380Y-119764523D02*
X133123523Y-122335952D01*
X130371142Y-121859761D02*
X130371142Y-120812142D01*
X130452095Y-120621666D01*
X130614000Y-120526428D01*
X130937809Y-120526428D01*
X131099714Y-120621666D01*
X130371142Y-121764523D02*
X130533047Y-121859761D01*
X130937809Y-121859761D01*
X131099714Y-121764523D01*
X131180666Y-121574047D01*
X131180666Y-121383571D01*
X131099714Y-121193095D01*
X130937809Y-121097857D01*
X130533047Y-121097857D01*
X130371142Y-121002619D01*
X129561619Y-121859761D02*
X129561619Y-120526428D01*
X129561619Y-120907380D02*
X129480666Y-120716904D01*
X129399714Y-120621666D01*
X129237809Y-120526428D01*
X129075904Y-120526428D01*
X128509238Y-121859761D02*
X128509238Y-120526428D01*
X128509238Y-119859761D02*
X128590190Y-119955000D01*
X128509238Y-120050238D01*
X128428285Y-119955000D01*
X128509238Y-119859761D01*
X128509238Y-120050238D01*
X127942571Y-120526428D02*
X127294952Y-120526428D01*
X127699714Y-119859761D02*
X127699714Y-121574047D01*
X127618761Y-121764523D01*
X127456857Y-121859761D01*
X127294952Y-121859761D01*
X126728285Y-121859761D02*
X126728285Y-119859761D01*
X125999714Y-121859761D02*
X125999714Y-120812142D01*
X126080666Y-120621666D01*
X126242571Y-120526428D01*
X126485428Y-120526428D01*
X126647333Y-120621666D01*
X126728285Y-120716904D01*
X125190190Y-121859761D02*
X125190190Y-120526428D01*
X125190190Y-120716904D02*
X125109238Y-120621666D01*
X124947333Y-120526428D01*
X124704476Y-120526428D01*
X124542571Y-120621666D01*
X124461619Y-120812142D01*
X124461619Y-121859761D01*
X124461619Y-120812142D02*
X124380666Y-120621666D01*
X124218761Y-120526428D01*
X123975904Y-120526428D01*
X123814000Y-120621666D01*
X123733047Y-120812142D01*
X123733047Y-121859761D01*
X122194952Y-121859761D02*
X122194952Y-120812142D01*
X122275904Y-120621666D01*
X122437809Y-120526428D01*
X122761619Y-120526428D01*
X122923523Y-120621666D01*
X122194952Y-121764523D02*
X122356857Y-121859761D01*
X122761619Y-121859761D01*
X122923523Y-121764523D01*
X123004476Y-121574047D01*
X123004476Y-121383571D01*
X122923523Y-121193095D01*
X122761619Y-121097857D01*
X122356857Y-121097857D01*
X122194952Y-121002619D01*
X121142571Y-121859761D02*
X121304476Y-121764523D01*
X121385428Y-121574047D01*
X121385428Y-119859761D01*
X119766380Y-121859761D02*
X119766380Y-119859761D01*
X119766380Y-121764523D02*
X119928285Y-121859761D01*
X120252095Y-121859761D01*
X120414000Y-121764523D01*
X120494952Y-121669285D01*
X120575904Y-121478809D01*
X120575904Y-120907380D01*
X120494952Y-120716904D01*
X120414000Y-120621666D01*
X120252095Y-120526428D01*
X119928285Y-120526428D01*
X119766380Y-120621666D01*
X118714000Y-121859761D02*
X118875904Y-121764523D01*
X118956857Y-121669285D01*
X119037809Y-121478809D01*
X119037809Y-120907380D01*
X118956857Y-120716904D01*
X118875904Y-120621666D01*
X118714000Y-120526428D01*
X118471142Y-120526428D01*
X118309238Y-120621666D01*
X118228285Y-120716904D01*
X118147333Y-120907380D01*
X118147333Y-121478809D01*
X118228285Y-121669285D01*
X118309238Y-121764523D01*
X118471142Y-121859761D01*
X118714000Y-121859761D01*
X117418761Y-121859761D02*
X117418761Y-120526428D01*
X117418761Y-120907380D02*
X117337809Y-120716904D01*
X117256857Y-120621666D01*
X117094952Y-120526428D01*
X116933047Y-120526428D01*
M02*
