G04 #@! TF.GenerationSoftware,KiCad,Pcbnew,(5.1.0)-1*
G04 #@! TF.CreationDate,2019-04-07T00:40:10-04:00*
G04 #@! TF.ProjectId,Lightgunverter SCART Breakout,4c696768-7467-4756-9e76-657274657220,rev?*
G04 #@! TF.SameCoordinates,Original*
G04 #@! TF.FileFunction,Copper,L2,Bot*
G04 #@! TF.FilePolarity,Positive*
%FSLAX46Y46*%
G04 Gerber Fmt 4.6, Leading zero omitted, Abs format (unit mm)*
G04 Created by KiCad (PCBNEW (5.1.0)-1) date 2019-04-07 00:40:10*
%MOMM*%
%LPD*%
G04 APERTURE LIST*
%ADD10O,1.981200X3.962400*%
%ADD11R,2.500000X4.000000*%
%ADD12C,0.800000*%
%ADD13C,0.250000*%
%ADD14C,0.254000*%
G04 APERTURE END LIST*
D10*
X125730000Y-110490000D03*
X127635000Y-105410000D03*
X129540000Y-110490000D03*
X131445000Y-105410000D03*
X133350000Y-110490000D03*
X135255000Y-105410000D03*
X137160000Y-110490000D03*
X139065000Y-105410000D03*
X140970000Y-110490000D03*
X142875000Y-105410000D03*
X144780000Y-110490000D03*
X146685000Y-105410000D03*
X148590000Y-110490000D03*
X150495000Y-105410000D03*
X152400000Y-110490000D03*
X154305000Y-105410000D03*
X156210000Y-110490000D03*
X158115000Y-105410000D03*
X160020000Y-110490000D03*
X161925000Y-105410000D03*
X163830000Y-110490000D03*
D11*
X163947000Y-127508000D03*
X160147000Y-127508000D03*
X156347000Y-127508000D03*
X152547000Y-127508000D03*
X148747000Y-127508000D03*
X144947000Y-127508000D03*
X141147000Y-127508000D03*
X137347000Y-127508000D03*
X133547000Y-127508000D03*
X129747000Y-127508000D03*
X125947000Y-127508000D03*
D12*
X164719000Y-124079000D03*
X172339000Y-122555000D03*
X153416000Y-117856000D03*
X148844000Y-124206000D03*
X136398000Y-118872000D03*
X170307000Y-122682000D03*
X152527000Y-123825000D03*
D13*
X163947000Y-125258000D02*
X163957000Y-125248000D01*
X163947000Y-127508000D02*
X163947000Y-125258000D01*
X163957000Y-125248000D02*
X163957000Y-124460000D01*
X156347000Y-127508000D02*
X156347000Y-124470000D01*
X148747000Y-127508000D02*
X148747000Y-124303000D01*
X148747000Y-124303000D02*
X148844000Y-124206000D01*
X141147000Y-125258000D02*
X141224000Y-125181000D01*
X141147000Y-127508000D02*
X141147000Y-125258000D01*
X141224000Y-125181000D02*
X141224000Y-124206000D01*
X133547000Y-125258000D02*
X133604000Y-125201000D01*
X133547000Y-127508000D02*
X133547000Y-125258000D01*
X133604000Y-125201000D02*
X133604000Y-123444000D01*
X149737998Y-122682000D02*
X170307000Y-122682000D01*
X149023000Y-122682000D02*
X149737998Y-122682000D01*
X144947000Y-127508000D02*
X144947000Y-126758000D01*
X144947000Y-126758000D02*
X149023000Y-122682000D01*
X137347000Y-110677000D02*
X137160000Y-110490000D01*
X137347000Y-127508000D02*
X137347000Y-110677000D01*
X152547000Y-127508000D02*
X152547000Y-123845000D01*
X152547000Y-123845000D02*
X152527000Y-123825000D01*
D14*
G36*
X151531774Y-123523102D02*
G01*
X151492000Y-123723061D01*
X151492000Y-123926939D01*
X151531774Y-124126898D01*
X151609795Y-124315256D01*
X151723063Y-124484774D01*
X151787001Y-124548712D01*
X151787001Y-124869928D01*
X151297000Y-124869928D01*
X151172518Y-124882188D01*
X151052820Y-124918498D01*
X150942506Y-124977463D01*
X150845815Y-125056815D01*
X150766463Y-125153506D01*
X150729852Y-125222000D01*
X150564148Y-125222000D01*
X150527537Y-125153506D01*
X150448185Y-125056815D01*
X150351494Y-124977463D01*
X150241180Y-124918498D01*
X150121482Y-124882188D01*
X149997000Y-124869928D01*
X149032750Y-124873000D01*
X148874000Y-125031750D01*
X148874000Y-125222000D01*
X148620000Y-125222000D01*
X148620000Y-125031750D01*
X148461250Y-124873000D01*
X147908563Y-124871239D01*
X149337803Y-123442000D01*
X151565368Y-123442000D01*
X151531774Y-123523102D01*
X151531774Y-123523102D01*
G37*
X151531774Y-123523102D02*
X151492000Y-123723061D01*
X151492000Y-123926939D01*
X151531774Y-124126898D01*
X151609795Y-124315256D01*
X151723063Y-124484774D01*
X151787001Y-124548712D01*
X151787001Y-124869928D01*
X151297000Y-124869928D01*
X151172518Y-124882188D01*
X151052820Y-124918498D01*
X150942506Y-124977463D01*
X150845815Y-125056815D01*
X150766463Y-125153506D01*
X150729852Y-125222000D01*
X150564148Y-125222000D01*
X150527537Y-125153506D01*
X150448185Y-125056815D01*
X150351494Y-124977463D01*
X150241180Y-124918498D01*
X150121482Y-124882188D01*
X149997000Y-124869928D01*
X149032750Y-124873000D01*
X148874000Y-125031750D01*
X148874000Y-125222000D01*
X148620000Y-125222000D01*
X148620000Y-125031750D01*
X148461250Y-124873000D01*
X147908563Y-124871239D01*
X149337803Y-123442000D01*
X151565368Y-123442000D01*
X151531774Y-123523102D01*
G36*
X173330000Y-99854418D02*
G01*
X173330001Y-99854428D01*
X173330001Y-101658323D01*
X173318528Y-101600381D01*
X173315803Y-101591578D01*
X173225868Y-101308068D01*
X173202290Y-101253058D01*
X173179508Y-101197783D01*
X173175125Y-101189677D01*
X173031836Y-100929034D01*
X172998048Y-100879687D01*
X172964936Y-100829850D01*
X172959062Y-100822749D01*
X172767876Y-100594904D01*
X172725146Y-100553060D01*
X172682987Y-100510605D01*
X172675846Y-100504781D01*
X172444045Y-100318408D01*
X172394031Y-100285680D01*
X172344398Y-100252202D01*
X172336261Y-100247876D01*
X172072675Y-100110077D01*
X172017219Y-100087672D01*
X171962068Y-100064488D01*
X171953246Y-100061825D01*
X171667915Y-99977847D01*
X171609175Y-99966642D01*
X171550558Y-99954609D01*
X171541386Y-99953710D01*
X171245178Y-99926753D01*
X171185361Y-99927171D01*
X171125544Y-99926753D01*
X171116372Y-99927653D01*
X170820569Y-99958742D01*
X170761972Y-99970771D01*
X170703210Y-99981980D01*
X170694388Y-99984644D01*
X170410257Y-100072598D01*
X170355139Y-100095768D01*
X170299650Y-100118186D01*
X170291514Y-100122513D01*
X170029878Y-100263979D01*
X169980311Y-100297412D01*
X169930232Y-100330183D01*
X169923091Y-100336008D01*
X169693915Y-100525597D01*
X169651774Y-100568034D01*
X169609024Y-100609897D01*
X169603150Y-100616998D01*
X169415164Y-100847492D01*
X169382049Y-100897334D01*
X169348265Y-100946674D01*
X169343882Y-100954781D01*
X169204246Y-101217399D01*
X169181458Y-101272687D01*
X169157886Y-101327683D01*
X169155162Y-101336487D01*
X169069193Y-101621225D01*
X169057570Y-101679925D01*
X169045137Y-101738419D01*
X169044174Y-101747584D01*
X169015150Y-102043596D01*
X169015150Y-102172406D01*
X169035801Y-102276697D01*
X169035800Y-105497952D01*
X169025478Y-105531300D01*
X169016932Y-105612622D01*
X169015299Y-105620870D01*
X169015299Y-105628164D01*
X169012016Y-105659404D01*
X169012016Y-105668620D01*
X169012165Y-105689898D01*
X169015298Y-105719700D01*
X169015298Y-105749680D01*
X169016262Y-105758844D01*
X169049416Y-106054424D01*
X169061853Y-106112936D01*
X169073471Y-106171614D01*
X169076196Y-106180413D01*
X169076197Y-106180419D01*
X169076199Y-106180425D01*
X169166130Y-106463928D01*
X169189691Y-106518899D01*
X169212491Y-106574217D01*
X169216874Y-106582323D01*
X169360163Y-106842965D01*
X169393947Y-106892305D01*
X169427062Y-106942147D01*
X169432936Y-106949247D01*
X169624122Y-107177094D01*
X169666853Y-107218939D01*
X169709013Y-107261395D01*
X169716155Y-107267219D01*
X169947956Y-107453591D01*
X169997968Y-107486318D01*
X170047600Y-107519795D01*
X170055737Y-107524121D01*
X170319323Y-107661921D01*
X170374783Y-107684328D01*
X170429931Y-107707511D01*
X170438753Y-107710174D01*
X170724083Y-107794152D01*
X170782837Y-107805360D01*
X170841441Y-107817390D01*
X170850613Y-107818289D01*
X171146820Y-107845246D01*
X171206638Y-107844828D01*
X171266455Y-107845246D01*
X171275626Y-107844347D01*
X171571430Y-107813257D01*
X171630017Y-107801230D01*
X171688787Y-107790020D01*
X171697609Y-107787356D01*
X171981740Y-107699403D01*
X172036883Y-107676223D01*
X172092348Y-107653814D01*
X172100485Y-107649487D01*
X172362121Y-107508021D01*
X172411705Y-107474576D01*
X172461768Y-107441816D01*
X172468909Y-107435992D01*
X172698085Y-107246401D01*
X172740224Y-107203966D01*
X172782974Y-107162103D01*
X172788848Y-107155002D01*
X172976834Y-106924509D01*
X173009938Y-106874682D01*
X173043733Y-106825327D01*
X173048116Y-106817221D01*
X173187753Y-106554603D01*
X173210560Y-106499269D01*
X173234114Y-106444314D01*
X173236838Y-106435515D01*
X173236840Y-106435509D01*
X173322806Y-106150773D01*
X173330000Y-106114440D01*
X173330000Y-106520582D01*
X173330001Y-124554571D01*
X173330000Y-124554581D01*
X173330000Y-124562000D01*
X165513419Y-124562000D01*
X165481000Y-124558807D01*
X165448581Y-124562000D01*
X165351617Y-124571550D01*
X165227207Y-124609290D01*
X165112550Y-124670575D01*
X165012052Y-124753052D01*
X164929575Y-124853550D01*
X164920350Y-124870809D01*
X164232750Y-124873000D01*
X164074000Y-125031750D01*
X164074000Y-125222000D01*
X163820000Y-125222000D01*
X163820000Y-125031750D01*
X163661250Y-124873000D01*
X162697000Y-124869928D01*
X162572518Y-124882188D01*
X162452820Y-124918498D01*
X162342506Y-124977463D01*
X162245815Y-125056815D01*
X162166463Y-125153506D01*
X162129852Y-125222000D01*
X161964148Y-125222000D01*
X161927537Y-125153506D01*
X161848185Y-125056815D01*
X161751494Y-124977463D01*
X161641180Y-124918498D01*
X161521482Y-124882188D01*
X161397000Y-124869928D01*
X158897000Y-124869928D01*
X158772518Y-124882188D01*
X158652820Y-124918498D01*
X158542506Y-124977463D01*
X158445815Y-125056815D01*
X158366463Y-125153506D01*
X158329852Y-125222000D01*
X158164148Y-125222000D01*
X158127537Y-125153506D01*
X158048185Y-125056815D01*
X157951494Y-124977463D01*
X157841180Y-124918498D01*
X157721482Y-124882188D01*
X157597000Y-124869928D01*
X156632750Y-124873000D01*
X156474000Y-125031750D01*
X156474000Y-125222000D01*
X156220000Y-125222000D01*
X156220000Y-125031750D01*
X156061250Y-124873000D01*
X155097000Y-124869928D01*
X154972518Y-124882188D01*
X154852820Y-124918498D01*
X154742506Y-124977463D01*
X154645815Y-125056815D01*
X154566463Y-125153506D01*
X154529852Y-125222000D01*
X154364148Y-125222000D01*
X154327537Y-125153506D01*
X154248185Y-125056815D01*
X154151494Y-124977463D01*
X154041180Y-124918498D01*
X153921482Y-124882188D01*
X153797000Y-124869928D01*
X153307000Y-124869928D01*
X153307000Y-124508711D01*
X153330937Y-124484774D01*
X153444205Y-124315256D01*
X153522226Y-124126898D01*
X153562000Y-123926939D01*
X153562000Y-123723061D01*
X153522226Y-123523102D01*
X153488632Y-123442000D01*
X169603289Y-123442000D01*
X169647226Y-123485937D01*
X169816744Y-123599205D01*
X170005102Y-123677226D01*
X170205061Y-123717000D01*
X170408939Y-123717000D01*
X170608898Y-123677226D01*
X170797256Y-123599205D01*
X170966774Y-123485937D01*
X171110937Y-123341774D01*
X171224205Y-123172256D01*
X171302226Y-122983898D01*
X171342000Y-122783939D01*
X171342000Y-122580061D01*
X171302226Y-122380102D01*
X171224205Y-122191744D01*
X171110937Y-122022226D01*
X170966774Y-121878063D01*
X170797256Y-121764795D01*
X170608898Y-121686774D01*
X170408939Y-121647000D01*
X170205061Y-121647000D01*
X170005102Y-121686774D01*
X169816744Y-121764795D01*
X169647226Y-121878063D01*
X169603289Y-121922000D01*
X149060322Y-121922000D01*
X149022999Y-121918324D01*
X148985676Y-121922000D01*
X148985667Y-121922000D01*
X148874014Y-121932997D01*
X148730753Y-121976454D01*
X148598724Y-122047026D01*
X148598722Y-122047027D01*
X148598723Y-122047027D01*
X148511996Y-122118201D01*
X148511992Y-122118205D01*
X148482999Y-122141999D01*
X148459205Y-122170992D01*
X145760270Y-124869928D01*
X143697000Y-124869928D01*
X143572518Y-124882188D01*
X143452820Y-124918498D01*
X143342506Y-124977463D01*
X143245815Y-125056815D01*
X143166463Y-125153506D01*
X143129852Y-125222000D01*
X142964148Y-125222000D01*
X142927537Y-125153506D01*
X142848185Y-125056815D01*
X142751494Y-124977463D01*
X142641180Y-124918498D01*
X142521482Y-124882188D01*
X142397000Y-124869928D01*
X141432750Y-124873000D01*
X141274000Y-125031750D01*
X141274000Y-125222000D01*
X141020000Y-125222000D01*
X141020000Y-125031750D01*
X140861250Y-124873000D01*
X139897000Y-124869928D01*
X139772518Y-124882188D01*
X139652820Y-124918498D01*
X139542506Y-124977463D01*
X139445815Y-125056815D01*
X139366463Y-125153506D01*
X139329852Y-125222000D01*
X139164148Y-125222000D01*
X139127537Y-125153506D01*
X139048185Y-125056815D01*
X138951494Y-124977463D01*
X138841180Y-124918498D01*
X138721482Y-124882188D01*
X138597000Y-124869928D01*
X138107000Y-124869928D01*
X138107000Y-118852740D01*
X160370000Y-118852740D01*
X160370000Y-119145260D01*
X160427068Y-119432158D01*
X160539010Y-119702411D01*
X160701525Y-119945632D01*
X160908368Y-120152475D01*
X161151589Y-120314990D01*
X161421842Y-120426932D01*
X161708740Y-120484000D01*
X162001260Y-120484000D01*
X162288158Y-120426932D01*
X162558411Y-120314990D01*
X162801632Y-120152475D01*
X163008475Y-119945632D01*
X163170990Y-119702411D01*
X163282932Y-119432158D01*
X163340000Y-119145260D01*
X163340000Y-118852740D01*
X167370000Y-118852740D01*
X167370000Y-119145260D01*
X167427068Y-119432158D01*
X167539010Y-119702411D01*
X167701525Y-119945632D01*
X167908368Y-120152475D01*
X168151589Y-120314990D01*
X168421842Y-120426932D01*
X168708740Y-120484000D01*
X169001260Y-120484000D01*
X169288158Y-120426932D01*
X169558411Y-120314990D01*
X169801632Y-120152475D01*
X170008475Y-119945632D01*
X170170990Y-119702411D01*
X170282932Y-119432158D01*
X170340000Y-119145260D01*
X170340000Y-118852740D01*
X170282932Y-118565842D01*
X170170990Y-118295589D01*
X170008475Y-118052368D01*
X169801632Y-117845525D01*
X169558411Y-117683010D01*
X169288158Y-117571068D01*
X169001260Y-117514000D01*
X168708740Y-117514000D01*
X168421842Y-117571068D01*
X168151589Y-117683010D01*
X167908368Y-117845525D01*
X167701525Y-118052368D01*
X167539010Y-118295589D01*
X167427068Y-118565842D01*
X167370000Y-118852740D01*
X163340000Y-118852740D01*
X163282932Y-118565842D01*
X163170990Y-118295589D01*
X163008475Y-118052368D01*
X162801632Y-117845525D01*
X162558411Y-117683010D01*
X162288158Y-117571068D01*
X162001260Y-117514000D01*
X161708740Y-117514000D01*
X161421842Y-117571068D01*
X161151589Y-117683010D01*
X160908368Y-117845525D01*
X160701525Y-118052368D01*
X160539010Y-118295589D01*
X160427068Y-118565842D01*
X160370000Y-118852740D01*
X138107000Y-118852740D01*
X138107000Y-112806363D01*
X138315034Y-112635634D01*
X138518177Y-112388105D01*
X138669125Y-112105700D01*
X138762078Y-111799273D01*
X138785600Y-111560454D01*
X138785600Y-110617000D01*
X139344400Y-110617000D01*
X139344400Y-111607600D01*
X139400412Y-111922299D01*
X139516742Y-112220023D01*
X139688920Y-112489332D01*
X139910329Y-112719876D01*
X140172461Y-112902795D01*
X140465242Y-113031060D01*
X140591041Y-113061411D01*
X140843000Y-112941942D01*
X140843000Y-110617000D01*
X141097000Y-110617000D01*
X141097000Y-112941942D01*
X141348959Y-113061411D01*
X141474758Y-113031060D01*
X141767539Y-112902795D01*
X142029671Y-112719876D01*
X142251080Y-112489332D01*
X142423258Y-112220023D01*
X142539588Y-111922299D01*
X142595600Y-111607600D01*
X142595600Y-111560453D01*
X143154400Y-111560453D01*
X143177922Y-111799272D01*
X143270875Y-112105699D01*
X143421823Y-112388104D01*
X143624966Y-112635634D01*
X143872495Y-112838777D01*
X144154900Y-112989725D01*
X144461327Y-113082678D01*
X144780000Y-113114065D01*
X145098672Y-113082678D01*
X145405099Y-112989725D01*
X145687504Y-112838777D01*
X145935034Y-112635634D01*
X146138177Y-112388105D01*
X146289125Y-112105700D01*
X146382078Y-111799273D01*
X146405600Y-111560454D01*
X146405600Y-110617000D01*
X146964400Y-110617000D01*
X146964400Y-111607600D01*
X147020412Y-111922299D01*
X147136742Y-112220023D01*
X147308920Y-112489332D01*
X147530329Y-112719876D01*
X147792461Y-112902795D01*
X148085242Y-113031060D01*
X148211041Y-113061411D01*
X148463000Y-112941942D01*
X148463000Y-110617000D01*
X148717000Y-110617000D01*
X148717000Y-112941942D01*
X148968959Y-113061411D01*
X149094758Y-113031060D01*
X149387539Y-112902795D01*
X149649671Y-112719876D01*
X149871080Y-112489332D01*
X150043258Y-112220023D01*
X150159588Y-111922299D01*
X150215600Y-111607600D01*
X150215600Y-111560453D01*
X150774400Y-111560453D01*
X150797922Y-111799272D01*
X150890875Y-112105699D01*
X151041823Y-112388104D01*
X151244966Y-112635634D01*
X151492495Y-112838777D01*
X151774900Y-112989725D01*
X152081327Y-113082678D01*
X152400000Y-113114065D01*
X152718672Y-113082678D01*
X153025099Y-112989725D01*
X153307504Y-112838777D01*
X153555034Y-112635634D01*
X153758177Y-112388105D01*
X153909125Y-112105700D01*
X154002078Y-111799273D01*
X154025600Y-111560454D01*
X154025600Y-110617000D01*
X154584400Y-110617000D01*
X154584400Y-111607600D01*
X154640412Y-111922299D01*
X154756742Y-112220023D01*
X154928920Y-112489332D01*
X155150329Y-112719876D01*
X155412461Y-112902795D01*
X155705242Y-113031060D01*
X155831041Y-113061411D01*
X156083000Y-112941942D01*
X156083000Y-110617000D01*
X156337000Y-110617000D01*
X156337000Y-112941942D01*
X156588959Y-113061411D01*
X156714758Y-113031060D01*
X157007539Y-112902795D01*
X157269671Y-112719876D01*
X157491080Y-112489332D01*
X157663258Y-112220023D01*
X157779588Y-111922299D01*
X157835600Y-111607600D01*
X157835600Y-111560453D01*
X158394400Y-111560453D01*
X158417922Y-111799272D01*
X158510875Y-112105699D01*
X158661823Y-112388104D01*
X158864966Y-112635634D01*
X159112495Y-112838777D01*
X159394900Y-112989725D01*
X159701327Y-113082678D01*
X160020000Y-113114065D01*
X160338672Y-113082678D01*
X160645099Y-112989725D01*
X160927504Y-112838777D01*
X161175034Y-112635634D01*
X161378177Y-112388105D01*
X161529125Y-112105700D01*
X161622078Y-111799273D01*
X161645600Y-111560454D01*
X161645600Y-110617000D01*
X162204400Y-110617000D01*
X162204400Y-111607600D01*
X162260412Y-111922299D01*
X162376742Y-112220023D01*
X162548920Y-112489332D01*
X162770329Y-112719876D01*
X163032461Y-112902795D01*
X163325242Y-113031060D01*
X163451041Y-113061411D01*
X163703000Y-112941942D01*
X163703000Y-110617000D01*
X163957000Y-110617000D01*
X163957000Y-112941942D01*
X164208959Y-113061411D01*
X164334758Y-113031060D01*
X164627539Y-112902795D01*
X164889671Y-112719876D01*
X165111080Y-112489332D01*
X165283258Y-112220023D01*
X165399588Y-111922299D01*
X165455600Y-111607600D01*
X165455600Y-110617000D01*
X163957000Y-110617000D01*
X163703000Y-110617000D01*
X162204400Y-110617000D01*
X161645600Y-110617000D01*
X161645600Y-109419546D01*
X161640957Y-109372400D01*
X162204400Y-109372400D01*
X162204400Y-110363000D01*
X163703000Y-110363000D01*
X163703000Y-108038058D01*
X163957000Y-108038058D01*
X163957000Y-110363000D01*
X165455600Y-110363000D01*
X165455600Y-110015872D01*
X166421000Y-110015872D01*
X166421000Y-110456128D01*
X166506890Y-110887925D01*
X166675369Y-111294669D01*
X166919962Y-111660729D01*
X167231271Y-111972038D01*
X167597331Y-112216631D01*
X168004075Y-112385110D01*
X168435872Y-112471000D01*
X168876128Y-112471000D01*
X169307925Y-112385110D01*
X169714669Y-112216631D01*
X170080729Y-111972038D01*
X170392038Y-111660729D01*
X170636631Y-111294669D01*
X170805110Y-110887925D01*
X170891000Y-110456128D01*
X170891000Y-110015872D01*
X170805110Y-109584075D01*
X170636631Y-109177331D01*
X170392038Y-108811271D01*
X170080729Y-108499962D01*
X169714669Y-108255369D01*
X169307925Y-108086890D01*
X168876128Y-108001000D01*
X168435872Y-108001000D01*
X168004075Y-108086890D01*
X167597331Y-108255369D01*
X167231271Y-108499962D01*
X166919962Y-108811271D01*
X166675369Y-109177331D01*
X166506890Y-109584075D01*
X166421000Y-110015872D01*
X165455600Y-110015872D01*
X165455600Y-109372400D01*
X165399588Y-109057701D01*
X165283258Y-108759977D01*
X165111080Y-108490668D01*
X164889671Y-108260124D01*
X164627539Y-108077205D01*
X164334758Y-107948940D01*
X164208959Y-107918589D01*
X163957000Y-108038058D01*
X163703000Y-108038058D01*
X163451041Y-107918589D01*
X163325242Y-107948940D01*
X163032461Y-108077205D01*
X162770329Y-108260124D01*
X162548920Y-108490668D01*
X162376742Y-108759977D01*
X162260412Y-109057701D01*
X162204400Y-109372400D01*
X161640957Y-109372400D01*
X161622078Y-109180727D01*
X161529125Y-108874300D01*
X161378177Y-108591895D01*
X161175034Y-108344366D01*
X160927505Y-108141223D01*
X160645100Y-107990275D01*
X160338673Y-107897322D01*
X160020000Y-107865935D01*
X159701328Y-107897322D01*
X159394901Y-107990275D01*
X159112496Y-108141223D01*
X158864967Y-108344366D01*
X158661824Y-108591895D01*
X158510876Y-108874300D01*
X158417923Y-109180727D01*
X158394401Y-109419546D01*
X158394400Y-111560453D01*
X157835600Y-111560453D01*
X157835600Y-110617000D01*
X156337000Y-110617000D01*
X156083000Y-110617000D01*
X154584400Y-110617000D01*
X154025600Y-110617000D01*
X154025600Y-109419546D01*
X154020957Y-109372400D01*
X154584400Y-109372400D01*
X154584400Y-110363000D01*
X156083000Y-110363000D01*
X156083000Y-108038058D01*
X156337000Y-108038058D01*
X156337000Y-110363000D01*
X157835600Y-110363000D01*
X157835600Y-109372400D01*
X157779588Y-109057701D01*
X157663258Y-108759977D01*
X157491080Y-108490668D01*
X157269671Y-108260124D01*
X157007539Y-108077205D01*
X156714758Y-107948940D01*
X156588959Y-107918589D01*
X156337000Y-108038058D01*
X156083000Y-108038058D01*
X155831041Y-107918589D01*
X155705242Y-107948940D01*
X155412461Y-108077205D01*
X155150329Y-108260124D01*
X154928920Y-108490668D01*
X154756742Y-108759977D01*
X154640412Y-109057701D01*
X154584400Y-109372400D01*
X154020957Y-109372400D01*
X154002078Y-109180727D01*
X153909125Y-108874300D01*
X153758177Y-108591895D01*
X153555034Y-108344366D01*
X153307505Y-108141223D01*
X153025100Y-107990275D01*
X152718673Y-107897322D01*
X152400000Y-107865935D01*
X152081328Y-107897322D01*
X151774901Y-107990275D01*
X151492496Y-108141223D01*
X151244967Y-108344366D01*
X151041824Y-108591895D01*
X150890876Y-108874300D01*
X150797923Y-109180727D01*
X150774401Y-109419546D01*
X150774400Y-111560453D01*
X150215600Y-111560453D01*
X150215600Y-110617000D01*
X148717000Y-110617000D01*
X148463000Y-110617000D01*
X146964400Y-110617000D01*
X146405600Y-110617000D01*
X146405600Y-109419546D01*
X146400957Y-109372400D01*
X146964400Y-109372400D01*
X146964400Y-110363000D01*
X148463000Y-110363000D01*
X148463000Y-108038058D01*
X148717000Y-108038058D01*
X148717000Y-110363000D01*
X150215600Y-110363000D01*
X150215600Y-109372400D01*
X150159588Y-109057701D01*
X150043258Y-108759977D01*
X149871080Y-108490668D01*
X149649671Y-108260124D01*
X149387539Y-108077205D01*
X149094758Y-107948940D01*
X148968959Y-107918589D01*
X148717000Y-108038058D01*
X148463000Y-108038058D01*
X148211041Y-107918589D01*
X148085242Y-107948940D01*
X147792461Y-108077205D01*
X147530329Y-108260124D01*
X147308920Y-108490668D01*
X147136742Y-108759977D01*
X147020412Y-109057701D01*
X146964400Y-109372400D01*
X146400957Y-109372400D01*
X146382078Y-109180727D01*
X146289125Y-108874300D01*
X146138177Y-108591895D01*
X145935034Y-108344366D01*
X145687505Y-108141223D01*
X145405100Y-107990275D01*
X145098673Y-107897322D01*
X144780000Y-107865935D01*
X144461328Y-107897322D01*
X144154901Y-107990275D01*
X143872496Y-108141223D01*
X143624967Y-108344366D01*
X143421824Y-108591895D01*
X143270876Y-108874300D01*
X143177923Y-109180727D01*
X143154401Y-109419546D01*
X143154400Y-111560453D01*
X142595600Y-111560453D01*
X142595600Y-110617000D01*
X141097000Y-110617000D01*
X140843000Y-110617000D01*
X139344400Y-110617000D01*
X138785600Y-110617000D01*
X138785600Y-109419546D01*
X138780957Y-109372400D01*
X139344400Y-109372400D01*
X139344400Y-110363000D01*
X140843000Y-110363000D01*
X140843000Y-108038058D01*
X141097000Y-108038058D01*
X141097000Y-110363000D01*
X142595600Y-110363000D01*
X142595600Y-109372400D01*
X142539588Y-109057701D01*
X142423258Y-108759977D01*
X142251080Y-108490668D01*
X142029671Y-108260124D01*
X141767539Y-108077205D01*
X141474758Y-107948940D01*
X141348959Y-107918589D01*
X141097000Y-108038058D01*
X140843000Y-108038058D01*
X140591041Y-107918589D01*
X140465242Y-107948940D01*
X140172461Y-108077205D01*
X139910329Y-108260124D01*
X139688920Y-108490668D01*
X139516742Y-108759977D01*
X139400412Y-109057701D01*
X139344400Y-109372400D01*
X138780957Y-109372400D01*
X138762078Y-109180727D01*
X138669125Y-108874300D01*
X138518177Y-108591895D01*
X138315034Y-108344366D01*
X138067505Y-108141223D01*
X137785100Y-107990275D01*
X137478673Y-107897322D01*
X137160000Y-107865935D01*
X136841328Y-107897322D01*
X136534901Y-107990275D01*
X136252496Y-108141223D01*
X136004967Y-108344366D01*
X135801824Y-108591895D01*
X135650876Y-108874300D01*
X135557923Y-109180727D01*
X135534401Y-109419546D01*
X135534400Y-111560453D01*
X135557922Y-111799272D01*
X135650875Y-112105699D01*
X135801823Y-112388104D01*
X136004966Y-112635634D01*
X136252495Y-112838777D01*
X136534900Y-112989725D01*
X136587001Y-113005530D01*
X136587000Y-124869928D01*
X136097000Y-124869928D01*
X135972518Y-124882188D01*
X135852820Y-124918498D01*
X135742506Y-124977463D01*
X135645815Y-125056815D01*
X135566463Y-125153506D01*
X135529852Y-125222000D01*
X135364148Y-125222000D01*
X135327537Y-125153506D01*
X135248185Y-125056815D01*
X135151494Y-124977463D01*
X135041180Y-124918498D01*
X134921482Y-124882188D01*
X134797000Y-124869928D01*
X133832750Y-124873000D01*
X133674000Y-125031750D01*
X133674000Y-125222000D01*
X133420000Y-125222000D01*
X133420000Y-125031750D01*
X133261250Y-124873000D01*
X132297000Y-124869928D01*
X132172518Y-124882188D01*
X132052820Y-124918498D01*
X131942506Y-124977463D01*
X131845815Y-125056815D01*
X131766463Y-125153506D01*
X131729852Y-125222000D01*
X131564148Y-125222000D01*
X131527537Y-125153506D01*
X131448185Y-125056815D01*
X131351494Y-124977463D01*
X131241180Y-124918498D01*
X131121482Y-124882188D01*
X130997000Y-124869928D01*
X128497000Y-124869928D01*
X128372518Y-124882188D01*
X128252820Y-124918498D01*
X128142506Y-124977463D01*
X128045815Y-125056815D01*
X127966463Y-125153506D01*
X127929852Y-125222000D01*
X127764148Y-125222000D01*
X127727537Y-125153506D01*
X127648185Y-125056815D01*
X127551494Y-124977463D01*
X127441180Y-124918498D01*
X127321482Y-124882188D01*
X127197000Y-124869928D01*
X124697000Y-124869928D01*
X124666297Y-124872952D01*
X124574450Y-124797575D01*
X124459793Y-124736290D01*
X124335383Y-124698550D01*
X124238419Y-124689000D01*
X124206000Y-124685807D01*
X124173581Y-124689000D01*
X116230000Y-124689000D01*
X116230000Y-110015872D01*
X118669000Y-110015872D01*
X118669000Y-110456128D01*
X118754890Y-110887925D01*
X118923369Y-111294669D01*
X119167962Y-111660729D01*
X119479271Y-111972038D01*
X119845331Y-112216631D01*
X120252075Y-112385110D01*
X120683872Y-112471000D01*
X121124128Y-112471000D01*
X121555925Y-112385110D01*
X121962669Y-112216631D01*
X122328729Y-111972038D01*
X122640038Y-111660729D01*
X122707040Y-111560453D01*
X124104400Y-111560453D01*
X124127922Y-111799272D01*
X124220875Y-112105699D01*
X124371823Y-112388104D01*
X124574966Y-112635634D01*
X124822495Y-112838777D01*
X125104900Y-112989725D01*
X125411327Y-113082678D01*
X125730000Y-113114065D01*
X126048672Y-113082678D01*
X126355099Y-112989725D01*
X126637504Y-112838777D01*
X126885034Y-112635634D01*
X127088177Y-112388105D01*
X127239125Y-112105700D01*
X127332078Y-111799273D01*
X127355600Y-111560454D01*
X127355600Y-111560453D01*
X127914400Y-111560453D01*
X127937922Y-111799272D01*
X128030875Y-112105699D01*
X128181823Y-112388104D01*
X128384966Y-112635634D01*
X128632495Y-112838777D01*
X128914900Y-112989725D01*
X129221327Y-113082678D01*
X129540000Y-113114065D01*
X129858672Y-113082678D01*
X130165099Y-112989725D01*
X130447504Y-112838777D01*
X130695034Y-112635634D01*
X130898177Y-112388105D01*
X131049125Y-112105700D01*
X131142078Y-111799273D01*
X131165600Y-111560454D01*
X131165600Y-110617000D01*
X131724400Y-110617000D01*
X131724400Y-111607600D01*
X131780412Y-111922299D01*
X131896742Y-112220023D01*
X132068920Y-112489332D01*
X132290329Y-112719876D01*
X132552461Y-112902795D01*
X132845242Y-113031060D01*
X132971041Y-113061411D01*
X133223000Y-112941942D01*
X133223000Y-110617000D01*
X133477000Y-110617000D01*
X133477000Y-112941942D01*
X133728959Y-113061411D01*
X133854758Y-113031060D01*
X134147539Y-112902795D01*
X134409671Y-112719876D01*
X134631080Y-112489332D01*
X134803258Y-112220023D01*
X134919588Y-111922299D01*
X134975600Y-111607600D01*
X134975600Y-110617000D01*
X133477000Y-110617000D01*
X133223000Y-110617000D01*
X131724400Y-110617000D01*
X131165600Y-110617000D01*
X131165600Y-109419546D01*
X131160957Y-109372400D01*
X131724400Y-109372400D01*
X131724400Y-110363000D01*
X133223000Y-110363000D01*
X133223000Y-108038058D01*
X133477000Y-108038058D01*
X133477000Y-110363000D01*
X134975600Y-110363000D01*
X134975600Y-109372400D01*
X134919588Y-109057701D01*
X134803258Y-108759977D01*
X134631080Y-108490668D01*
X134409671Y-108260124D01*
X134147539Y-108077205D01*
X133854758Y-107948940D01*
X133728959Y-107918589D01*
X133477000Y-108038058D01*
X133223000Y-108038058D01*
X132971041Y-107918589D01*
X132845242Y-107948940D01*
X132552461Y-108077205D01*
X132290329Y-108260124D01*
X132068920Y-108490668D01*
X131896742Y-108759977D01*
X131780412Y-109057701D01*
X131724400Y-109372400D01*
X131160957Y-109372400D01*
X131142078Y-109180727D01*
X131049125Y-108874300D01*
X130898177Y-108591895D01*
X130695034Y-108344366D01*
X130447505Y-108141223D01*
X130165100Y-107990275D01*
X129858673Y-107897322D01*
X129540000Y-107865935D01*
X129221328Y-107897322D01*
X128914901Y-107990275D01*
X128632496Y-108141223D01*
X128384967Y-108344366D01*
X128181824Y-108591895D01*
X128030876Y-108874300D01*
X127937923Y-109180727D01*
X127914401Y-109419546D01*
X127914400Y-111560453D01*
X127355600Y-111560453D01*
X127355600Y-109419546D01*
X127332078Y-109180727D01*
X127239125Y-108874300D01*
X127088177Y-108591895D01*
X126885034Y-108344366D01*
X126637505Y-108141223D01*
X126355100Y-107990275D01*
X126048673Y-107897322D01*
X125730000Y-107865935D01*
X125411328Y-107897322D01*
X125104901Y-107990275D01*
X124822496Y-108141223D01*
X124574967Y-108344366D01*
X124371824Y-108591895D01*
X124220876Y-108874300D01*
X124127923Y-109180727D01*
X124104401Y-109419546D01*
X124104400Y-111560453D01*
X122707040Y-111560453D01*
X122884631Y-111294669D01*
X123053110Y-110887925D01*
X123139000Y-110456128D01*
X123139000Y-110015872D01*
X123053110Y-109584075D01*
X122884631Y-109177331D01*
X122640038Y-108811271D01*
X122328729Y-108499962D01*
X121962669Y-108255369D01*
X121555925Y-108086890D01*
X121124128Y-108001000D01*
X120683872Y-108001000D01*
X120252075Y-108086890D01*
X119845331Y-108255369D01*
X119479271Y-108499962D01*
X119167962Y-108811271D01*
X118923369Y-109177331D01*
X118754890Y-109584075D01*
X118669000Y-110015872D01*
X116230000Y-110015872D01*
X116230000Y-106113678D01*
X116241471Y-106171614D01*
X116244196Y-106180413D01*
X116244197Y-106180419D01*
X116244199Y-106180425D01*
X116334130Y-106463928D01*
X116357691Y-106518899D01*
X116380491Y-106574217D01*
X116384874Y-106582323D01*
X116528163Y-106842965D01*
X116561947Y-106892305D01*
X116595062Y-106942147D01*
X116600936Y-106949247D01*
X116792122Y-107177094D01*
X116834853Y-107218939D01*
X116877013Y-107261395D01*
X116884155Y-107267219D01*
X117115956Y-107453591D01*
X117165968Y-107486318D01*
X117215600Y-107519795D01*
X117223737Y-107524121D01*
X117487323Y-107661921D01*
X117542783Y-107684328D01*
X117597931Y-107707511D01*
X117606753Y-107710174D01*
X117892083Y-107794152D01*
X117950837Y-107805360D01*
X118009441Y-107817390D01*
X118018613Y-107818289D01*
X118314820Y-107845246D01*
X118374638Y-107844828D01*
X118434455Y-107845246D01*
X118443626Y-107844347D01*
X118739430Y-107813257D01*
X118798017Y-107801230D01*
X118856787Y-107790020D01*
X118865609Y-107787356D01*
X119149740Y-107699403D01*
X119204883Y-107676223D01*
X119260348Y-107653814D01*
X119268485Y-107649487D01*
X119530121Y-107508021D01*
X119579705Y-107474576D01*
X119629768Y-107441816D01*
X119636909Y-107435992D01*
X119866085Y-107246401D01*
X119908224Y-107203966D01*
X119950974Y-107162103D01*
X119956848Y-107155002D01*
X120144834Y-106924509D01*
X120177938Y-106874682D01*
X120211733Y-106825327D01*
X120216116Y-106817221D01*
X120355753Y-106554603D01*
X120378560Y-106499269D01*
X120386624Y-106480453D01*
X126009400Y-106480453D01*
X126032922Y-106719272D01*
X126125875Y-107025699D01*
X126276823Y-107308104D01*
X126479966Y-107555634D01*
X126727495Y-107758777D01*
X127009900Y-107909725D01*
X127316327Y-108002678D01*
X127635000Y-108034065D01*
X127953672Y-108002678D01*
X128260099Y-107909725D01*
X128542504Y-107758777D01*
X128790034Y-107555634D01*
X128993177Y-107308105D01*
X129144125Y-107025700D01*
X129237078Y-106719273D01*
X129260600Y-106480454D01*
X129260600Y-105537000D01*
X129819400Y-105537000D01*
X129819400Y-106527600D01*
X129875412Y-106842299D01*
X129991742Y-107140023D01*
X130163920Y-107409332D01*
X130385329Y-107639876D01*
X130647461Y-107822795D01*
X130940242Y-107951060D01*
X131066041Y-107981411D01*
X131318000Y-107861942D01*
X131318000Y-105537000D01*
X131572000Y-105537000D01*
X131572000Y-107861942D01*
X131823959Y-107981411D01*
X131949758Y-107951060D01*
X132242539Y-107822795D01*
X132504671Y-107639876D01*
X132726080Y-107409332D01*
X132898258Y-107140023D01*
X133014588Y-106842299D01*
X133070600Y-106527600D01*
X133070600Y-106480453D01*
X133629400Y-106480453D01*
X133652922Y-106719272D01*
X133745875Y-107025699D01*
X133896823Y-107308104D01*
X134099966Y-107555634D01*
X134347495Y-107758777D01*
X134629900Y-107909725D01*
X134936327Y-108002678D01*
X135255000Y-108034065D01*
X135573672Y-108002678D01*
X135880099Y-107909725D01*
X136162504Y-107758777D01*
X136410034Y-107555634D01*
X136613177Y-107308105D01*
X136764125Y-107025700D01*
X136857078Y-106719273D01*
X136880600Y-106480454D01*
X136880600Y-106480453D01*
X137439400Y-106480453D01*
X137462922Y-106719272D01*
X137555875Y-107025699D01*
X137706823Y-107308104D01*
X137909966Y-107555634D01*
X138157495Y-107758777D01*
X138439900Y-107909725D01*
X138746327Y-108002678D01*
X139065000Y-108034065D01*
X139383672Y-108002678D01*
X139690099Y-107909725D01*
X139972504Y-107758777D01*
X140220034Y-107555634D01*
X140423177Y-107308105D01*
X140574125Y-107025700D01*
X140667078Y-106719273D01*
X140690600Y-106480454D01*
X140690600Y-106480453D01*
X141249400Y-106480453D01*
X141272922Y-106719272D01*
X141365875Y-107025699D01*
X141516823Y-107308104D01*
X141719966Y-107555634D01*
X141967495Y-107758777D01*
X142249900Y-107909725D01*
X142556327Y-108002678D01*
X142875000Y-108034065D01*
X143193672Y-108002678D01*
X143500099Y-107909725D01*
X143782504Y-107758777D01*
X144030034Y-107555634D01*
X144233177Y-107308105D01*
X144384125Y-107025700D01*
X144477078Y-106719273D01*
X144500600Y-106480454D01*
X144500600Y-106480453D01*
X145059400Y-106480453D01*
X145082922Y-106719272D01*
X145175875Y-107025699D01*
X145326823Y-107308104D01*
X145529966Y-107555634D01*
X145777495Y-107758777D01*
X146059900Y-107909725D01*
X146366327Y-108002678D01*
X146685000Y-108034065D01*
X147003672Y-108002678D01*
X147310099Y-107909725D01*
X147592504Y-107758777D01*
X147840034Y-107555634D01*
X148043177Y-107308105D01*
X148194125Y-107025700D01*
X148287078Y-106719273D01*
X148310600Y-106480454D01*
X148310600Y-106480453D01*
X148869400Y-106480453D01*
X148892922Y-106719272D01*
X148985875Y-107025699D01*
X149136823Y-107308104D01*
X149339966Y-107555634D01*
X149587495Y-107758777D01*
X149869900Y-107909725D01*
X150176327Y-108002678D01*
X150495000Y-108034065D01*
X150813672Y-108002678D01*
X151120099Y-107909725D01*
X151402504Y-107758777D01*
X151650034Y-107555634D01*
X151853177Y-107308105D01*
X152004125Y-107025700D01*
X152097078Y-106719273D01*
X152120600Y-106480454D01*
X152120600Y-106480453D01*
X152679400Y-106480453D01*
X152702922Y-106719272D01*
X152795875Y-107025699D01*
X152946823Y-107308104D01*
X153149966Y-107555634D01*
X153397495Y-107758777D01*
X153679900Y-107909725D01*
X153986327Y-108002678D01*
X154305000Y-108034065D01*
X154623672Y-108002678D01*
X154930099Y-107909725D01*
X155212504Y-107758777D01*
X155460034Y-107555634D01*
X155663177Y-107308105D01*
X155814125Y-107025700D01*
X155907078Y-106719273D01*
X155930600Y-106480454D01*
X155930600Y-105537000D01*
X156489400Y-105537000D01*
X156489400Y-106527600D01*
X156545412Y-106842299D01*
X156661742Y-107140023D01*
X156833920Y-107409332D01*
X157055329Y-107639876D01*
X157317461Y-107822795D01*
X157610242Y-107951060D01*
X157736041Y-107981411D01*
X157988000Y-107861942D01*
X157988000Y-105537000D01*
X158242000Y-105537000D01*
X158242000Y-107861942D01*
X158493959Y-107981411D01*
X158619758Y-107951060D01*
X158912539Y-107822795D01*
X159174671Y-107639876D01*
X159396080Y-107409332D01*
X159568258Y-107140023D01*
X159684588Y-106842299D01*
X159740600Y-106527600D01*
X159740600Y-106480453D01*
X160299400Y-106480453D01*
X160322922Y-106719272D01*
X160415875Y-107025699D01*
X160566823Y-107308104D01*
X160769966Y-107555634D01*
X161017495Y-107758777D01*
X161299900Y-107909725D01*
X161606327Y-108002678D01*
X161925000Y-108034065D01*
X162243672Y-108002678D01*
X162550099Y-107909725D01*
X162832504Y-107758777D01*
X163080034Y-107555634D01*
X163283177Y-107308105D01*
X163434125Y-107025700D01*
X163527078Y-106719273D01*
X163550600Y-106480454D01*
X163550600Y-104339546D01*
X163527078Y-104100727D01*
X163434125Y-103794300D01*
X163283177Y-103511895D01*
X163080034Y-103264366D01*
X162832505Y-103061223D01*
X162550100Y-102910275D01*
X162243673Y-102817322D01*
X161925000Y-102785935D01*
X161606328Y-102817322D01*
X161299901Y-102910275D01*
X161017496Y-103061223D01*
X160769967Y-103264366D01*
X160566824Y-103511895D01*
X160415876Y-103794300D01*
X160322923Y-104100727D01*
X160299401Y-104339546D01*
X160299400Y-106480453D01*
X159740600Y-106480453D01*
X159740600Y-105537000D01*
X158242000Y-105537000D01*
X157988000Y-105537000D01*
X156489400Y-105537000D01*
X155930600Y-105537000D01*
X155930600Y-104339546D01*
X155925957Y-104292400D01*
X156489400Y-104292400D01*
X156489400Y-105283000D01*
X157988000Y-105283000D01*
X157988000Y-102958058D01*
X158242000Y-102958058D01*
X158242000Y-105283000D01*
X159740600Y-105283000D01*
X159740600Y-104292400D01*
X159684588Y-103977701D01*
X159568258Y-103679977D01*
X159396080Y-103410668D01*
X159174671Y-103180124D01*
X158912539Y-102997205D01*
X158619758Y-102868940D01*
X158493959Y-102838589D01*
X158242000Y-102958058D01*
X157988000Y-102958058D01*
X157736041Y-102838589D01*
X157610242Y-102868940D01*
X157317461Y-102997205D01*
X157055329Y-103180124D01*
X156833920Y-103410668D01*
X156661742Y-103679977D01*
X156545412Y-103977701D01*
X156489400Y-104292400D01*
X155925957Y-104292400D01*
X155907078Y-104100727D01*
X155814125Y-103794300D01*
X155663177Y-103511895D01*
X155460034Y-103264366D01*
X155212505Y-103061223D01*
X154930100Y-102910275D01*
X154623673Y-102817322D01*
X154305000Y-102785935D01*
X153986328Y-102817322D01*
X153679901Y-102910275D01*
X153397496Y-103061223D01*
X153149967Y-103264366D01*
X152946824Y-103511895D01*
X152795876Y-103794300D01*
X152702923Y-104100727D01*
X152679401Y-104339546D01*
X152679400Y-106480453D01*
X152120600Y-106480453D01*
X152120600Y-104339546D01*
X152097078Y-104100727D01*
X152004125Y-103794300D01*
X151853177Y-103511895D01*
X151650034Y-103264366D01*
X151402505Y-103061223D01*
X151120100Y-102910275D01*
X150813673Y-102817322D01*
X150495000Y-102785935D01*
X150176328Y-102817322D01*
X149869901Y-102910275D01*
X149587496Y-103061223D01*
X149339967Y-103264366D01*
X149136824Y-103511895D01*
X148985876Y-103794300D01*
X148892923Y-104100727D01*
X148869401Y-104339546D01*
X148869400Y-106480453D01*
X148310600Y-106480453D01*
X148310600Y-104339546D01*
X148287078Y-104100727D01*
X148194125Y-103794300D01*
X148043177Y-103511895D01*
X147840034Y-103264366D01*
X147592505Y-103061223D01*
X147310100Y-102910275D01*
X147003673Y-102817322D01*
X146685000Y-102785935D01*
X146366328Y-102817322D01*
X146059901Y-102910275D01*
X145777496Y-103061223D01*
X145529967Y-103264366D01*
X145326824Y-103511895D01*
X145175876Y-103794300D01*
X145082923Y-104100727D01*
X145059401Y-104339546D01*
X145059400Y-106480453D01*
X144500600Y-106480453D01*
X144500600Y-104339546D01*
X144477078Y-104100727D01*
X144384125Y-103794300D01*
X144233177Y-103511895D01*
X144030034Y-103264366D01*
X143782505Y-103061223D01*
X143500100Y-102910275D01*
X143193673Y-102817322D01*
X142875000Y-102785935D01*
X142556328Y-102817322D01*
X142249901Y-102910275D01*
X141967496Y-103061223D01*
X141719967Y-103264366D01*
X141516824Y-103511895D01*
X141365876Y-103794300D01*
X141272923Y-104100727D01*
X141249401Y-104339546D01*
X141249400Y-106480453D01*
X140690600Y-106480453D01*
X140690600Y-104339546D01*
X140667078Y-104100727D01*
X140574125Y-103794300D01*
X140423177Y-103511895D01*
X140220034Y-103264366D01*
X139972505Y-103061223D01*
X139690100Y-102910275D01*
X139383673Y-102817322D01*
X139065000Y-102785935D01*
X138746328Y-102817322D01*
X138439901Y-102910275D01*
X138157496Y-103061223D01*
X137909967Y-103264366D01*
X137706824Y-103511895D01*
X137555876Y-103794300D01*
X137462923Y-104100727D01*
X137439401Y-104339546D01*
X137439400Y-106480453D01*
X136880600Y-106480453D01*
X136880600Y-104339546D01*
X136857078Y-104100727D01*
X136764125Y-103794300D01*
X136613177Y-103511895D01*
X136410034Y-103264366D01*
X136162505Y-103061223D01*
X135880100Y-102910275D01*
X135573673Y-102817322D01*
X135255000Y-102785935D01*
X134936328Y-102817322D01*
X134629901Y-102910275D01*
X134347496Y-103061223D01*
X134099967Y-103264366D01*
X133896824Y-103511895D01*
X133745876Y-103794300D01*
X133652923Y-104100727D01*
X133629401Y-104339546D01*
X133629400Y-106480453D01*
X133070600Y-106480453D01*
X133070600Y-105537000D01*
X131572000Y-105537000D01*
X131318000Y-105537000D01*
X129819400Y-105537000D01*
X129260600Y-105537000D01*
X129260600Y-104339546D01*
X129255957Y-104292400D01*
X129819400Y-104292400D01*
X129819400Y-105283000D01*
X131318000Y-105283000D01*
X131318000Y-102958058D01*
X131572000Y-102958058D01*
X131572000Y-105283000D01*
X133070600Y-105283000D01*
X133070600Y-104292400D01*
X133014588Y-103977701D01*
X132898258Y-103679977D01*
X132726080Y-103410668D01*
X132504671Y-103180124D01*
X132242539Y-102997205D01*
X131949758Y-102868940D01*
X131823959Y-102838589D01*
X131572000Y-102958058D01*
X131318000Y-102958058D01*
X131066041Y-102838589D01*
X130940242Y-102868940D01*
X130647461Y-102997205D01*
X130385329Y-103180124D01*
X130163920Y-103410668D01*
X129991742Y-103679977D01*
X129875412Y-103977701D01*
X129819400Y-104292400D01*
X129255957Y-104292400D01*
X129237078Y-104100727D01*
X129144125Y-103794300D01*
X128993177Y-103511895D01*
X128790034Y-103264366D01*
X128542505Y-103061223D01*
X128260100Y-102910275D01*
X127953673Y-102817322D01*
X127635000Y-102785935D01*
X127316328Y-102817322D01*
X127009901Y-102910275D01*
X126727496Y-103061223D01*
X126479967Y-103264366D01*
X126276824Y-103511895D01*
X126125876Y-103794300D01*
X126032923Y-104100727D01*
X126009401Y-104339546D01*
X126009400Y-106480453D01*
X120386624Y-106480453D01*
X120402114Y-106444314D01*
X120404838Y-106435515D01*
X120404840Y-106435509D01*
X120490806Y-106150773D01*
X120502422Y-106092108D01*
X120514862Y-106033584D01*
X120515825Y-106024419D01*
X120544850Y-105728406D01*
X120544850Y-105599596D01*
X120524200Y-105495305D01*
X120524200Y-102274047D01*
X120534522Y-102240699D01*
X120543068Y-102159377D01*
X120544701Y-102151129D01*
X120544701Y-102143835D01*
X120547984Y-102112594D01*
X120547984Y-102103379D01*
X120547835Y-102082100D01*
X120544702Y-102052298D01*
X120544702Y-102022319D01*
X120543738Y-102013154D01*
X120510584Y-101717575D01*
X120498151Y-101659081D01*
X120486528Y-101600381D01*
X120483803Y-101591578D01*
X120393868Y-101308068D01*
X120370290Y-101253058D01*
X120347508Y-101197783D01*
X120343125Y-101189677D01*
X120199836Y-100929034D01*
X120166048Y-100879687D01*
X120132936Y-100829850D01*
X120127062Y-100822749D01*
X119935876Y-100594904D01*
X119893146Y-100553060D01*
X119850987Y-100510605D01*
X119843846Y-100504781D01*
X119612045Y-100318408D01*
X119562031Y-100285680D01*
X119512398Y-100252202D01*
X119504261Y-100247876D01*
X119240675Y-100110077D01*
X119185219Y-100087672D01*
X119130068Y-100064488D01*
X119121246Y-100061825D01*
X118835915Y-99977847D01*
X118777175Y-99966642D01*
X118718558Y-99954609D01*
X118709386Y-99953710D01*
X118413178Y-99926753D01*
X118353361Y-99927171D01*
X118293544Y-99926753D01*
X118284372Y-99927653D01*
X117988569Y-99958742D01*
X117929972Y-99970771D01*
X117871210Y-99981980D01*
X117862388Y-99984644D01*
X117578257Y-100072598D01*
X117523139Y-100095768D01*
X117467650Y-100118186D01*
X117459514Y-100122513D01*
X117197878Y-100263979D01*
X117148311Y-100297412D01*
X117098232Y-100330183D01*
X117091091Y-100336008D01*
X116861915Y-100525597D01*
X116819774Y-100568034D01*
X116777024Y-100609897D01*
X116771150Y-100616998D01*
X116583164Y-100847492D01*
X116550049Y-100897334D01*
X116516265Y-100946674D01*
X116511882Y-100954781D01*
X116372246Y-101217399D01*
X116349458Y-101272687D01*
X116325886Y-101327683D01*
X116323162Y-101336487D01*
X116237193Y-101621225D01*
X116230000Y-101657553D01*
X116230000Y-95021000D01*
X173330001Y-95021000D01*
X173330000Y-99854418D01*
X173330000Y-99854418D01*
G37*
X173330000Y-99854418D02*
X173330001Y-99854428D01*
X173330001Y-101658323D01*
X173318528Y-101600381D01*
X173315803Y-101591578D01*
X173225868Y-101308068D01*
X173202290Y-101253058D01*
X173179508Y-101197783D01*
X173175125Y-101189677D01*
X173031836Y-100929034D01*
X172998048Y-100879687D01*
X172964936Y-100829850D01*
X172959062Y-100822749D01*
X172767876Y-100594904D01*
X172725146Y-100553060D01*
X172682987Y-100510605D01*
X172675846Y-100504781D01*
X172444045Y-100318408D01*
X172394031Y-100285680D01*
X172344398Y-100252202D01*
X172336261Y-100247876D01*
X172072675Y-100110077D01*
X172017219Y-100087672D01*
X171962068Y-100064488D01*
X171953246Y-100061825D01*
X171667915Y-99977847D01*
X171609175Y-99966642D01*
X171550558Y-99954609D01*
X171541386Y-99953710D01*
X171245178Y-99926753D01*
X171185361Y-99927171D01*
X171125544Y-99926753D01*
X171116372Y-99927653D01*
X170820569Y-99958742D01*
X170761972Y-99970771D01*
X170703210Y-99981980D01*
X170694388Y-99984644D01*
X170410257Y-100072598D01*
X170355139Y-100095768D01*
X170299650Y-100118186D01*
X170291514Y-100122513D01*
X170029878Y-100263979D01*
X169980311Y-100297412D01*
X169930232Y-100330183D01*
X169923091Y-100336008D01*
X169693915Y-100525597D01*
X169651774Y-100568034D01*
X169609024Y-100609897D01*
X169603150Y-100616998D01*
X169415164Y-100847492D01*
X169382049Y-100897334D01*
X169348265Y-100946674D01*
X169343882Y-100954781D01*
X169204246Y-101217399D01*
X169181458Y-101272687D01*
X169157886Y-101327683D01*
X169155162Y-101336487D01*
X169069193Y-101621225D01*
X169057570Y-101679925D01*
X169045137Y-101738419D01*
X169044174Y-101747584D01*
X169015150Y-102043596D01*
X169015150Y-102172406D01*
X169035801Y-102276697D01*
X169035800Y-105497952D01*
X169025478Y-105531300D01*
X169016932Y-105612622D01*
X169015299Y-105620870D01*
X169015299Y-105628164D01*
X169012016Y-105659404D01*
X169012016Y-105668620D01*
X169012165Y-105689898D01*
X169015298Y-105719700D01*
X169015298Y-105749680D01*
X169016262Y-105758844D01*
X169049416Y-106054424D01*
X169061853Y-106112936D01*
X169073471Y-106171614D01*
X169076196Y-106180413D01*
X169076197Y-106180419D01*
X169076199Y-106180425D01*
X169166130Y-106463928D01*
X169189691Y-106518899D01*
X169212491Y-106574217D01*
X169216874Y-106582323D01*
X169360163Y-106842965D01*
X169393947Y-106892305D01*
X169427062Y-106942147D01*
X169432936Y-106949247D01*
X169624122Y-107177094D01*
X169666853Y-107218939D01*
X169709013Y-107261395D01*
X169716155Y-107267219D01*
X169947956Y-107453591D01*
X169997968Y-107486318D01*
X170047600Y-107519795D01*
X170055737Y-107524121D01*
X170319323Y-107661921D01*
X170374783Y-107684328D01*
X170429931Y-107707511D01*
X170438753Y-107710174D01*
X170724083Y-107794152D01*
X170782837Y-107805360D01*
X170841441Y-107817390D01*
X170850613Y-107818289D01*
X171146820Y-107845246D01*
X171206638Y-107844828D01*
X171266455Y-107845246D01*
X171275626Y-107844347D01*
X171571430Y-107813257D01*
X171630017Y-107801230D01*
X171688787Y-107790020D01*
X171697609Y-107787356D01*
X171981740Y-107699403D01*
X172036883Y-107676223D01*
X172092348Y-107653814D01*
X172100485Y-107649487D01*
X172362121Y-107508021D01*
X172411705Y-107474576D01*
X172461768Y-107441816D01*
X172468909Y-107435992D01*
X172698085Y-107246401D01*
X172740224Y-107203966D01*
X172782974Y-107162103D01*
X172788848Y-107155002D01*
X172976834Y-106924509D01*
X173009938Y-106874682D01*
X173043733Y-106825327D01*
X173048116Y-106817221D01*
X173187753Y-106554603D01*
X173210560Y-106499269D01*
X173234114Y-106444314D01*
X173236838Y-106435515D01*
X173236840Y-106435509D01*
X173322806Y-106150773D01*
X173330000Y-106114440D01*
X173330000Y-106520582D01*
X173330001Y-124554571D01*
X173330000Y-124554581D01*
X173330000Y-124562000D01*
X165513419Y-124562000D01*
X165481000Y-124558807D01*
X165448581Y-124562000D01*
X165351617Y-124571550D01*
X165227207Y-124609290D01*
X165112550Y-124670575D01*
X165012052Y-124753052D01*
X164929575Y-124853550D01*
X164920350Y-124870809D01*
X164232750Y-124873000D01*
X164074000Y-125031750D01*
X164074000Y-125222000D01*
X163820000Y-125222000D01*
X163820000Y-125031750D01*
X163661250Y-124873000D01*
X162697000Y-124869928D01*
X162572518Y-124882188D01*
X162452820Y-124918498D01*
X162342506Y-124977463D01*
X162245815Y-125056815D01*
X162166463Y-125153506D01*
X162129852Y-125222000D01*
X161964148Y-125222000D01*
X161927537Y-125153506D01*
X161848185Y-125056815D01*
X161751494Y-124977463D01*
X161641180Y-124918498D01*
X161521482Y-124882188D01*
X161397000Y-124869928D01*
X158897000Y-124869928D01*
X158772518Y-124882188D01*
X158652820Y-124918498D01*
X158542506Y-124977463D01*
X158445815Y-125056815D01*
X158366463Y-125153506D01*
X158329852Y-125222000D01*
X158164148Y-125222000D01*
X158127537Y-125153506D01*
X158048185Y-125056815D01*
X157951494Y-124977463D01*
X157841180Y-124918498D01*
X157721482Y-124882188D01*
X157597000Y-124869928D01*
X156632750Y-124873000D01*
X156474000Y-125031750D01*
X156474000Y-125222000D01*
X156220000Y-125222000D01*
X156220000Y-125031750D01*
X156061250Y-124873000D01*
X155097000Y-124869928D01*
X154972518Y-124882188D01*
X154852820Y-124918498D01*
X154742506Y-124977463D01*
X154645815Y-125056815D01*
X154566463Y-125153506D01*
X154529852Y-125222000D01*
X154364148Y-125222000D01*
X154327537Y-125153506D01*
X154248185Y-125056815D01*
X154151494Y-124977463D01*
X154041180Y-124918498D01*
X153921482Y-124882188D01*
X153797000Y-124869928D01*
X153307000Y-124869928D01*
X153307000Y-124508711D01*
X153330937Y-124484774D01*
X153444205Y-124315256D01*
X153522226Y-124126898D01*
X153562000Y-123926939D01*
X153562000Y-123723061D01*
X153522226Y-123523102D01*
X153488632Y-123442000D01*
X169603289Y-123442000D01*
X169647226Y-123485937D01*
X169816744Y-123599205D01*
X170005102Y-123677226D01*
X170205061Y-123717000D01*
X170408939Y-123717000D01*
X170608898Y-123677226D01*
X170797256Y-123599205D01*
X170966774Y-123485937D01*
X171110937Y-123341774D01*
X171224205Y-123172256D01*
X171302226Y-122983898D01*
X171342000Y-122783939D01*
X171342000Y-122580061D01*
X171302226Y-122380102D01*
X171224205Y-122191744D01*
X171110937Y-122022226D01*
X170966774Y-121878063D01*
X170797256Y-121764795D01*
X170608898Y-121686774D01*
X170408939Y-121647000D01*
X170205061Y-121647000D01*
X170005102Y-121686774D01*
X169816744Y-121764795D01*
X169647226Y-121878063D01*
X169603289Y-121922000D01*
X149060322Y-121922000D01*
X149022999Y-121918324D01*
X148985676Y-121922000D01*
X148985667Y-121922000D01*
X148874014Y-121932997D01*
X148730753Y-121976454D01*
X148598724Y-122047026D01*
X148598722Y-122047027D01*
X148598723Y-122047027D01*
X148511996Y-122118201D01*
X148511992Y-122118205D01*
X148482999Y-122141999D01*
X148459205Y-122170992D01*
X145760270Y-124869928D01*
X143697000Y-124869928D01*
X143572518Y-124882188D01*
X143452820Y-124918498D01*
X143342506Y-124977463D01*
X143245815Y-125056815D01*
X143166463Y-125153506D01*
X143129852Y-125222000D01*
X142964148Y-125222000D01*
X142927537Y-125153506D01*
X142848185Y-125056815D01*
X142751494Y-124977463D01*
X142641180Y-124918498D01*
X142521482Y-124882188D01*
X142397000Y-124869928D01*
X141432750Y-124873000D01*
X141274000Y-125031750D01*
X141274000Y-125222000D01*
X141020000Y-125222000D01*
X141020000Y-125031750D01*
X140861250Y-124873000D01*
X139897000Y-124869928D01*
X139772518Y-124882188D01*
X139652820Y-124918498D01*
X139542506Y-124977463D01*
X139445815Y-125056815D01*
X139366463Y-125153506D01*
X139329852Y-125222000D01*
X139164148Y-125222000D01*
X139127537Y-125153506D01*
X139048185Y-125056815D01*
X138951494Y-124977463D01*
X138841180Y-124918498D01*
X138721482Y-124882188D01*
X138597000Y-124869928D01*
X138107000Y-124869928D01*
X138107000Y-118852740D01*
X160370000Y-118852740D01*
X160370000Y-119145260D01*
X160427068Y-119432158D01*
X160539010Y-119702411D01*
X160701525Y-119945632D01*
X160908368Y-120152475D01*
X161151589Y-120314990D01*
X161421842Y-120426932D01*
X161708740Y-120484000D01*
X162001260Y-120484000D01*
X162288158Y-120426932D01*
X162558411Y-120314990D01*
X162801632Y-120152475D01*
X163008475Y-119945632D01*
X163170990Y-119702411D01*
X163282932Y-119432158D01*
X163340000Y-119145260D01*
X163340000Y-118852740D01*
X167370000Y-118852740D01*
X167370000Y-119145260D01*
X167427068Y-119432158D01*
X167539010Y-119702411D01*
X167701525Y-119945632D01*
X167908368Y-120152475D01*
X168151589Y-120314990D01*
X168421842Y-120426932D01*
X168708740Y-120484000D01*
X169001260Y-120484000D01*
X169288158Y-120426932D01*
X169558411Y-120314990D01*
X169801632Y-120152475D01*
X170008475Y-119945632D01*
X170170990Y-119702411D01*
X170282932Y-119432158D01*
X170340000Y-119145260D01*
X170340000Y-118852740D01*
X170282932Y-118565842D01*
X170170990Y-118295589D01*
X170008475Y-118052368D01*
X169801632Y-117845525D01*
X169558411Y-117683010D01*
X169288158Y-117571068D01*
X169001260Y-117514000D01*
X168708740Y-117514000D01*
X168421842Y-117571068D01*
X168151589Y-117683010D01*
X167908368Y-117845525D01*
X167701525Y-118052368D01*
X167539010Y-118295589D01*
X167427068Y-118565842D01*
X167370000Y-118852740D01*
X163340000Y-118852740D01*
X163282932Y-118565842D01*
X163170990Y-118295589D01*
X163008475Y-118052368D01*
X162801632Y-117845525D01*
X162558411Y-117683010D01*
X162288158Y-117571068D01*
X162001260Y-117514000D01*
X161708740Y-117514000D01*
X161421842Y-117571068D01*
X161151589Y-117683010D01*
X160908368Y-117845525D01*
X160701525Y-118052368D01*
X160539010Y-118295589D01*
X160427068Y-118565842D01*
X160370000Y-118852740D01*
X138107000Y-118852740D01*
X138107000Y-112806363D01*
X138315034Y-112635634D01*
X138518177Y-112388105D01*
X138669125Y-112105700D01*
X138762078Y-111799273D01*
X138785600Y-111560454D01*
X138785600Y-110617000D01*
X139344400Y-110617000D01*
X139344400Y-111607600D01*
X139400412Y-111922299D01*
X139516742Y-112220023D01*
X139688920Y-112489332D01*
X139910329Y-112719876D01*
X140172461Y-112902795D01*
X140465242Y-113031060D01*
X140591041Y-113061411D01*
X140843000Y-112941942D01*
X140843000Y-110617000D01*
X141097000Y-110617000D01*
X141097000Y-112941942D01*
X141348959Y-113061411D01*
X141474758Y-113031060D01*
X141767539Y-112902795D01*
X142029671Y-112719876D01*
X142251080Y-112489332D01*
X142423258Y-112220023D01*
X142539588Y-111922299D01*
X142595600Y-111607600D01*
X142595600Y-111560453D01*
X143154400Y-111560453D01*
X143177922Y-111799272D01*
X143270875Y-112105699D01*
X143421823Y-112388104D01*
X143624966Y-112635634D01*
X143872495Y-112838777D01*
X144154900Y-112989725D01*
X144461327Y-113082678D01*
X144780000Y-113114065D01*
X145098672Y-113082678D01*
X145405099Y-112989725D01*
X145687504Y-112838777D01*
X145935034Y-112635634D01*
X146138177Y-112388105D01*
X146289125Y-112105700D01*
X146382078Y-111799273D01*
X146405600Y-111560454D01*
X146405600Y-110617000D01*
X146964400Y-110617000D01*
X146964400Y-111607600D01*
X147020412Y-111922299D01*
X147136742Y-112220023D01*
X147308920Y-112489332D01*
X147530329Y-112719876D01*
X147792461Y-112902795D01*
X148085242Y-113031060D01*
X148211041Y-113061411D01*
X148463000Y-112941942D01*
X148463000Y-110617000D01*
X148717000Y-110617000D01*
X148717000Y-112941942D01*
X148968959Y-113061411D01*
X149094758Y-113031060D01*
X149387539Y-112902795D01*
X149649671Y-112719876D01*
X149871080Y-112489332D01*
X150043258Y-112220023D01*
X150159588Y-111922299D01*
X150215600Y-111607600D01*
X150215600Y-111560453D01*
X150774400Y-111560453D01*
X150797922Y-111799272D01*
X150890875Y-112105699D01*
X151041823Y-112388104D01*
X151244966Y-112635634D01*
X151492495Y-112838777D01*
X151774900Y-112989725D01*
X152081327Y-113082678D01*
X152400000Y-113114065D01*
X152718672Y-113082678D01*
X153025099Y-112989725D01*
X153307504Y-112838777D01*
X153555034Y-112635634D01*
X153758177Y-112388105D01*
X153909125Y-112105700D01*
X154002078Y-111799273D01*
X154025600Y-111560454D01*
X154025600Y-110617000D01*
X154584400Y-110617000D01*
X154584400Y-111607600D01*
X154640412Y-111922299D01*
X154756742Y-112220023D01*
X154928920Y-112489332D01*
X155150329Y-112719876D01*
X155412461Y-112902795D01*
X155705242Y-113031060D01*
X155831041Y-113061411D01*
X156083000Y-112941942D01*
X156083000Y-110617000D01*
X156337000Y-110617000D01*
X156337000Y-112941942D01*
X156588959Y-113061411D01*
X156714758Y-113031060D01*
X157007539Y-112902795D01*
X157269671Y-112719876D01*
X157491080Y-112489332D01*
X157663258Y-112220023D01*
X157779588Y-111922299D01*
X157835600Y-111607600D01*
X157835600Y-111560453D01*
X158394400Y-111560453D01*
X158417922Y-111799272D01*
X158510875Y-112105699D01*
X158661823Y-112388104D01*
X158864966Y-112635634D01*
X159112495Y-112838777D01*
X159394900Y-112989725D01*
X159701327Y-113082678D01*
X160020000Y-113114065D01*
X160338672Y-113082678D01*
X160645099Y-112989725D01*
X160927504Y-112838777D01*
X161175034Y-112635634D01*
X161378177Y-112388105D01*
X161529125Y-112105700D01*
X161622078Y-111799273D01*
X161645600Y-111560454D01*
X161645600Y-110617000D01*
X162204400Y-110617000D01*
X162204400Y-111607600D01*
X162260412Y-111922299D01*
X162376742Y-112220023D01*
X162548920Y-112489332D01*
X162770329Y-112719876D01*
X163032461Y-112902795D01*
X163325242Y-113031060D01*
X163451041Y-113061411D01*
X163703000Y-112941942D01*
X163703000Y-110617000D01*
X163957000Y-110617000D01*
X163957000Y-112941942D01*
X164208959Y-113061411D01*
X164334758Y-113031060D01*
X164627539Y-112902795D01*
X164889671Y-112719876D01*
X165111080Y-112489332D01*
X165283258Y-112220023D01*
X165399588Y-111922299D01*
X165455600Y-111607600D01*
X165455600Y-110617000D01*
X163957000Y-110617000D01*
X163703000Y-110617000D01*
X162204400Y-110617000D01*
X161645600Y-110617000D01*
X161645600Y-109419546D01*
X161640957Y-109372400D01*
X162204400Y-109372400D01*
X162204400Y-110363000D01*
X163703000Y-110363000D01*
X163703000Y-108038058D01*
X163957000Y-108038058D01*
X163957000Y-110363000D01*
X165455600Y-110363000D01*
X165455600Y-110015872D01*
X166421000Y-110015872D01*
X166421000Y-110456128D01*
X166506890Y-110887925D01*
X166675369Y-111294669D01*
X166919962Y-111660729D01*
X167231271Y-111972038D01*
X167597331Y-112216631D01*
X168004075Y-112385110D01*
X168435872Y-112471000D01*
X168876128Y-112471000D01*
X169307925Y-112385110D01*
X169714669Y-112216631D01*
X170080729Y-111972038D01*
X170392038Y-111660729D01*
X170636631Y-111294669D01*
X170805110Y-110887925D01*
X170891000Y-110456128D01*
X170891000Y-110015872D01*
X170805110Y-109584075D01*
X170636631Y-109177331D01*
X170392038Y-108811271D01*
X170080729Y-108499962D01*
X169714669Y-108255369D01*
X169307925Y-108086890D01*
X168876128Y-108001000D01*
X168435872Y-108001000D01*
X168004075Y-108086890D01*
X167597331Y-108255369D01*
X167231271Y-108499962D01*
X166919962Y-108811271D01*
X166675369Y-109177331D01*
X166506890Y-109584075D01*
X166421000Y-110015872D01*
X165455600Y-110015872D01*
X165455600Y-109372400D01*
X165399588Y-109057701D01*
X165283258Y-108759977D01*
X165111080Y-108490668D01*
X164889671Y-108260124D01*
X164627539Y-108077205D01*
X164334758Y-107948940D01*
X164208959Y-107918589D01*
X163957000Y-108038058D01*
X163703000Y-108038058D01*
X163451041Y-107918589D01*
X163325242Y-107948940D01*
X163032461Y-108077205D01*
X162770329Y-108260124D01*
X162548920Y-108490668D01*
X162376742Y-108759977D01*
X162260412Y-109057701D01*
X162204400Y-109372400D01*
X161640957Y-109372400D01*
X161622078Y-109180727D01*
X161529125Y-108874300D01*
X161378177Y-108591895D01*
X161175034Y-108344366D01*
X160927505Y-108141223D01*
X160645100Y-107990275D01*
X160338673Y-107897322D01*
X160020000Y-107865935D01*
X159701328Y-107897322D01*
X159394901Y-107990275D01*
X159112496Y-108141223D01*
X158864967Y-108344366D01*
X158661824Y-108591895D01*
X158510876Y-108874300D01*
X158417923Y-109180727D01*
X158394401Y-109419546D01*
X158394400Y-111560453D01*
X157835600Y-111560453D01*
X157835600Y-110617000D01*
X156337000Y-110617000D01*
X156083000Y-110617000D01*
X154584400Y-110617000D01*
X154025600Y-110617000D01*
X154025600Y-109419546D01*
X154020957Y-109372400D01*
X154584400Y-109372400D01*
X154584400Y-110363000D01*
X156083000Y-110363000D01*
X156083000Y-108038058D01*
X156337000Y-108038058D01*
X156337000Y-110363000D01*
X157835600Y-110363000D01*
X157835600Y-109372400D01*
X157779588Y-109057701D01*
X157663258Y-108759977D01*
X157491080Y-108490668D01*
X157269671Y-108260124D01*
X157007539Y-108077205D01*
X156714758Y-107948940D01*
X156588959Y-107918589D01*
X156337000Y-108038058D01*
X156083000Y-108038058D01*
X155831041Y-107918589D01*
X155705242Y-107948940D01*
X155412461Y-108077205D01*
X155150329Y-108260124D01*
X154928920Y-108490668D01*
X154756742Y-108759977D01*
X154640412Y-109057701D01*
X154584400Y-109372400D01*
X154020957Y-109372400D01*
X154002078Y-109180727D01*
X153909125Y-108874300D01*
X153758177Y-108591895D01*
X153555034Y-108344366D01*
X153307505Y-108141223D01*
X153025100Y-107990275D01*
X152718673Y-107897322D01*
X152400000Y-107865935D01*
X152081328Y-107897322D01*
X151774901Y-107990275D01*
X151492496Y-108141223D01*
X151244967Y-108344366D01*
X151041824Y-108591895D01*
X150890876Y-108874300D01*
X150797923Y-109180727D01*
X150774401Y-109419546D01*
X150774400Y-111560453D01*
X150215600Y-111560453D01*
X150215600Y-110617000D01*
X148717000Y-110617000D01*
X148463000Y-110617000D01*
X146964400Y-110617000D01*
X146405600Y-110617000D01*
X146405600Y-109419546D01*
X146400957Y-109372400D01*
X146964400Y-109372400D01*
X146964400Y-110363000D01*
X148463000Y-110363000D01*
X148463000Y-108038058D01*
X148717000Y-108038058D01*
X148717000Y-110363000D01*
X150215600Y-110363000D01*
X150215600Y-109372400D01*
X150159588Y-109057701D01*
X150043258Y-108759977D01*
X149871080Y-108490668D01*
X149649671Y-108260124D01*
X149387539Y-108077205D01*
X149094758Y-107948940D01*
X148968959Y-107918589D01*
X148717000Y-108038058D01*
X148463000Y-108038058D01*
X148211041Y-107918589D01*
X148085242Y-107948940D01*
X147792461Y-108077205D01*
X147530329Y-108260124D01*
X147308920Y-108490668D01*
X147136742Y-108759977D01*
X147020412Y-109057701D01*
X146964400Y-109372400D01*
X146400957Y-109372400D01*
X146382078Y-109180727D01*
X146289125Y-108874300D01*
X146138177Y-108591895D01*
X145935034Y-108344366D01*
X145687505Y-108141223D01*
X145405100Y-107990275D01*
X145098673Y-107897322D01*
X144780000Y-107865935D01*
X144461328Y-107897322D01*
X144154901Y-107990275D01*
X143872496Y-108141223D01*
X143624967Y-108344366D01*
X143421824Y-108591895D01*
X143270876Y-108874300D01*
X143177923Y-109180727D01*
X143154401Y-109419546D01*
X143154400Y-111560453D01*
X142595600Y-111560453D01*
X142595600Y-110617000D01*
X141097000Y-110617000D01*
X140843000Y-110617000D01*
X139344400Y-110617000D01*
X138785600Y-110617000D01*
X138785600Y-109419546D01*
X138780957Y-109372400D01*
X139344400Y-109372400D01*
X139344400Y-110363000D01*
X140843000Y-110363000D01*
X140843000Y-108038058D01*
X141097000Y-108038058D01*
X141097000Y-110363000D01*
X142595600Y-110363000D01*
X142595600Y-109372400D01*
X142539588Y-109057701D01*
X142423258Y-108759977D01*
X142251080Y-108490668D01*
X142029671Y-108260124D01*
X141767539Y-108077205D01*
X141474758Y-107948940D01*
X141348959Y-107918589D01*
X141097000Y-108038058D01*
X140843000Y-108038058D01*
X140591041Y-107918589D01*
X140465242Y-107948940D01*
X140172461Y-108077205D01*
X139910329Y-108260124D01*
X139688920Y-108490668D01*
X139516742Y-108759977D01*
X139400412Y-109057701D01*
X139344400Y-109372400D01*
X138780957Y-109372400D01*
X138762078Y-109180727D01*
X138669125Y-108874300D01*
X138518177Y-108591895D01*
X138315034Y-108344366D01*
X138067505Y-108141223D01*
X137785100Y-107990275D01*
X137478673Y-107897322D01*
X137160000Y-107865935D01*
X136841328Y-107897322D01*
X136534901Y-107990275D01*
X136252496Y-108141223D01*
X136004967Y-108344366D01*
X135801824Y-108591895D01*
X135650876Y-108874300D01*
X135557923Y-109180727D01*
X135534401Y-109419546D01*
X135534400Y-111560453D01*
X135557922Y-111799272D01*
X135650875Y-112105699D01*
X135801823Y-112388104D01*
X136004966Y-112635634D01*
X136252495Y-112838777D01*
X136534900Y-112989725D01*
X136587001Y-113005530D01*
X136587000Y-124869928D01*
X136097000Y-124869928D01*
X135972518Y-124882188D01*
X135852820Y-124918498D01*
X135742506Y-124977463D01*
X135645815Y-125056815D01*
X135566463Y-125153506D01*
X135529852Y-125222000D01*
X135364148Y-125222000D01*
X135327537Y-125153506D01*
X135248185Y-125056815D01*
X135151494Y-124977463D01*
X135041180Y-124918498D01*
X134921482Y-124882188D01*
X134797000Y-124869928D01*
X133832750Y-124873000D01*
X133674000Y-125031750D01*
X133674000Y-125222000D01*
X133420000Y-125222000D01*
X133420000Y-125031750D01*
X133261250Y-124873000D01*
X132297000Y-124869928D01*
X132172518Y-124882188D01*
X132052820Y-124918498D01*
X131942506Y-124977463D01*
X131845815Y-125056815D01*
X131766463Y-125153506D01*
X131729852Y-125222000D01*
X131564148Y-125222000D01*
X131527537Y-125153506D01*
X131448185Y-125056815D01*
X131351494Y-124977463D01*
X131241180Y-124918498D01*
X131121482Y-124882188D01*
X130997000Y-124869928D01*
X128497000Y-124869928D01*
X128372518Y-124882188D01*
X128252820Y-124918498D01*
X128142506Y-124977463D01*
X128045815Y-125056815D01*
X127966463Y-125153506D01*
X127929852Y-125222000D01*
X127764148Y-125222000D01*
X127727537Y-125153506D01*
X127648185Y-125056815D01*
X127551494Y-124977463D01*
X127441180Y-124918498D01*
X127321482Y-124882188D01*
X127197000Y-124869928D01*
X124697000Y-124869928D01*
X124666297Y-124872952D01*
X124574450Y-124797575D01*
X124459793Y-124736290D01*
X124335383Y-124698550D01*
X124238419Y-124689000D01*
X124206000Y-124685807D01*
X124173581Y-124689000D01*
X116230000Y-124689000D01*
X116230000Y-110015872D01*
X118669000Y-110015872D01*
X118669000Y-110456128D01*
X118754890Y-110887925D01*
X118923369Y-111294669D01*
X119167962Y-111660729D01*
X119479271Y-111972038D01*
X119845331Y-112216631D01*
X120252075Y-112385110D01*
X120683872Y-112471000D01*
X121124128Y-112471000D01*
X121555925Y-112385110D01*
X121962669Y-112216631D01*
X122328729Y-111972038D01*
X122640038Y-111660729D01*
X122707040Y-111560453D01*
X124104400Y-111560453D01*
X124127922Y-111799272D01*
X124220875Y-112105699D01*
X124371823Y-112388104D01*
X124574966Y-112635634D01*
X124822495Y-112838777D01*
X125104900Y-112989725D01*
X125411327Y-113082678D01*
X125730000Y-113114065D01*
X126048672Y-113082678D01*
X126355099Y-112989725D01*
X126637504Y-112838777D01*
X126885034Y-112635634D01*
X127088177Y-112388105D01*
X127239125Y-112105700D01*
X127332078Y-111799273D01*
X127355600Y-111560454D01*
X127355600Y-111560453D01*
X127914400Y-111560453D01*
X127937922Y-111799272D01*
X128030875Y-112105699D01*
X128181823Y-112388104D01*
X128384966Y-112635634D01*
X128632495Y-112838777D01*
X128914900Y-112989725D01*
X129221327Y-113082678D01*
X129540000Y-113114065D01*
X129858672Y-113082678D01*
X130165099Y-112989725D01*
X130447504Y-112838777D01*
X130695034Y-112635634D01*
X130898177Y-112388105D01*
X131049125Y-112105700D01*
X131142078Y-111799273D01*
X131165600Y-111560454D01*
X131165600Y-110617000D01*
X131724400Y-110617000D01*
X131724400Y-111607600D01*
X131780412Y-111922299D01*
X131896742Y-112220023D01*
X132068920Y-112489332D01*
X132290329Y-112719876D01*
X132552461Y-112902795D01*
X132845242Y-113031060D01*
X132971041Y-113061411D01*
X133223000Y-112941942D01*
X133223000Y-110617000D01*
X133477000Y-110617000D01*
X133477000Y-112941942D01*
X133728959Y-113061411D01*
X133854758Y-113031060D01*
X134147539Y-112902795D01*
X134409671Y-112719876D01*
X134631080Y-112489332D01*
X134803258Y-112220023D01*
X134919588Y-111922299D01*
X134975600Y-111607600D01*
X134975600Y-110617000D01*
X133477000Y-110617000D01*
X133223000Y-110617000D01*
X131724400Y-110617000D01*
X131165600Y-110617000D01*
X131165600Y-109419546D01*
X131160957Y-109372400D01*
X131724400Y-109372400D01*
X131724400Y-110363000D01*
X133223000Y-110363000D01*
X133223000Y-108038058D01*
X133477000Y-108038058D01*
X133477000Y-110363000D01*
X134975600Y-110363000D01*
X134975600Y-109372400D01*
X134919588Y-109057701D01*
X134803258Y-108759977D01*
X134631080Y-108490668D01*
X134409671Y-108260124D01*
X134147539Y-108077205D01*
X133854758Y-107948940D01*
X133728959Y-107918589D01*
X133477000Y-108038058D01*
X133223000Y-108038058D01*
X132971041Y-107918589D01*
X132845242Y-107948940D01*
X132552461Y-108077205D01*
X132290329Y-108260124D01*
X132068920Y-108490668D01*
X131896742Y-108759977D01*
X131780412Y-109057701D01*
X131724400Y-109372400D01*
X131160957Y-109372400D01*
X131142078Y-109180727D01*
X131049125Y-108874300D01*
X130898177Y-108591895D01*
X130695034Y-108344366D01*
X130447505Y-108141223D01*
X130165100Y-107990275D01*
X129858673Y-107897322D01*
X129540000Y-107865935D01*
X129221328Y-107897322D01*
X128914901Y-107990275D01*
X128632496Y-108141223D01*
X128384967Y-108344366D01*
X128181824Y-108591895D01*
X128030876Y-108874300D01*
X127937923Y-109180727D01*
X127914401Y-109419546D01*
X127914400Y-111560453D01*
X127355600Y-111560453D01*
X127355600Y-109419546D01*
X127332078Y-109180727D01*
X127239125Y-108874300D01*
X127088177Y-108591895D01*
X126885034Y-108344366D01*
X126637505Y-108141223D01*
X126355100Y-107990275D01*
X126048673Y-107897322D01*
X125730000Y-107865935D01*
X125411328Y-107897322D01*
X125104901Y-107990275D01*
X124822496Y-108141223D01*
X124574967Y-108344366D01*
X124371824Y-108591895D01*
X124220876Y-108874300D01*
X124127923Y-109180727D01*
X124104401Y-109419546D01*
X124104400Y-111560453D01*
X122707040Y-111560453D01*
X122884631Y-111294669D01*
X123053110Y-110887925D01*
X123139000Y-110456128D01*
X123139000Y-110015872D01*
X123053110Y-109584075D01*
X122884631Y-109177331D01*
X122640038Y-108811271D01*
X122328729Y-108499962D01*
X121962669Y-108255369D01*
X121555925Y-108086890D01*
X121124128Y-108001000D01*
X120683872Y-108001000D01*
X120252075Y-108086890D01*
X119845331Y-108255369D01*
X119479271Y-108499962D01*
X119167962Y-108811271D01*
X118923369Y-109177331D01*
X118754890Y-109584075D01*
X118669000Y-110015872D01*
X116230000Y-110015872D01*
X116230000Y-106113678D01*
X116241471Y-106171614D01*
X116244196Y-106180413D01*
X116244197Y-106180419D01*
X116244199Y-106180425D01*
X116334130Y-106463928D01*
X116357691Y-106518899D01*
X116380491Y-106574217D01*
X116384874Y-106582323D01*
X116528163Y-106842965D01*
X116561947Y-106892305D01*
X116595062Y-106942147D01*
X116600936Y-106949247D01*
X116792122Y-107177094D01*
X116834853Y-107218939D01*
X116877013Y-107261395D01*
X116884155Y-107267219D01*
X117115956Y-107453591D01*
X117165968Y-107486318D01*
X117215600Y-107519795D01*
X117223737Y-107524121D01*
X117487323Y-107661921D01*
X117542783Y-107684328D01*
X117597931Y-107707511D01*
X117606753Y-107710174D01*
X117892083Y-107794152D01*
X117950837Y-107805360D01*
X118009441Y-107817390D01*
X118018613Y-107818289D01*
X118314820Y-107845246D01*
X118374638Y-107844828D01*
X118434455Y-107845246D01*
X118443626Y-107844347D01*
X118739430Y-107813257D01*
X118798017Y-107801230D01*
X118856787Y-107790020D01*
X118865609Y-107787356D01*
X119149740Y-107699403D01*
X119204883Y-107676223D01*
X119260348Y-107653814D01*
X119268485Y-107649487D01*
X119530121Y-107508021D01*
X119579705Y-107474576D01*
X119629768Y-107441816D01*
X119636909Y-107435992D01*
X119866085Y-107246401D01*
X119908224Y-107203966D01*
X119950974Y-107162103D01*
X119956848Y-107155002D01*
X120144834Y-106924509D01*
X120177938Y-106874682D01*
X120211733Y-106825327D01*
X120216116Y-106817221D01*
X120355753Y-106554603D01*
X120378560Y-106499269D01*
X120386624Y-106480453D01*
X126009400Y-106480453D01*
X126032922Y-106719272D01*
X126125875Y-107025699D01*
X126276823Y-107308104D01*
X126479966Y-107555634D01*
X126727495Y-107758777D01*
X127009900Y-107909725D01*
X127316327Y-108002678D01*
X127635000Y-108034065D01*
X127953672Y-108002678D01*
X128260099Y-107909725D01*
X128542504Y-107758777D01*
X128790034Y-107555634D01*
X128993177Y-107308105D01*
X129144125Y-107025700D01*
X129237078Y-106719273D01*
X129260600Y-106480454D01*
X129260600Y-105537000D01*
X129819400Y-105537000D01*
X129819400Y-106527600D01*
X129875412Y-106842299D01*
X129991742Y-107140023D01*
X130163920Y-107409332D01*
X130385329Y-107639876D01*
X130647461Y-107822795D01*
X130940242Y-107951060D01*
X131066041Y-107981411D01*
X131318000Y-107861942D01*
X131318000Y-105537000D01*
X131572000Y-105537000D01*
X131572000Y-107861942D01*
X131823959Y-107981411D01*
X131949758Y-107951060D01*
X132242539Y-107822795D01*
X132504671Y-107639876D01*
X132726080Y-107409332D01*
X132898258Y-107140023D01*
X133014588Y-106842299D01*
X133070600Y-106527600D01*
X133070600Y-106480453D01*
X133629400Y-106480453D01*
X133652922Y-106719272D01*
X133745875Y-107025699D01*
X133896823Y-107308104D01*
X134099966Y-107555634D01*
X134347495Y-107758777D01*
X134629900Y-107909725D01*
X134936327Y-108002678D01*
X135255000Y-108034065D01*
X135573672Y-108002678D01*
X135880099Y-107909725D01*
X136162504Y-107758777D01*
X136410034Y-107555634D01*
X136613177Y-107308105D01*
X136764125Y-107025700D01*
X136857078Y-106719273D01*
X136880600Y-106480454D01*
X136880600Y-106480453D01*
X137439400Y-106480453D01*
X137462922Y-106719272D01*
X137555875Y-107025699D01*
X137706823Y-107308104D01*
X137909966Y-107555634D01*
X138157495Y-107758777D01*
X138439900Y-107909725D01*
X138746327Y-108002678D01*
X139065000Y-108034065D01*
X139383672Y-108002678D01*
X139690099Y-107909725D01*
X139972504Y-107758777D01*
X140220034Y-107555634D01*
X140423177Y-107308105D01*
X140574125Y-107025700D01*
X140667078Y-106719273D01*
X140690600Y-106480454D01*
X140690600Y-106480453D01*
X141249400Y-106480453D01*
X141272922Y-106719272D01*
X141365875Y-107025699D01*
X141516823Y-107308104D01*
X141719966Y-107555634D01*
X141967495Y-107758777D01*
X142249900Y-107909725D01*
X142556327Y-108002678D01*
X142875000Y-108034065D01*
X143193672Y-108002678D01*
X143500099Y-107909725D01*
X143782504Y-107758777D01*
X144030034Y-107555634D01*
X144233177Y-107308105D01*
X144384125Y-107025700D01*
X144477078Y-106719273D01*
X144500600Y-106480454D01*
X144500600Y-106480453D01*
X145059400Y-106480453D01*
X145082922Y-106719272D01*
X145175875Y-107025699D01*
X145326823Y-107308104D01*
X145529966Y-107555634D01*
X145777495Y-107758777D01*
X146059900Y-107909725D01*
X146366327Y-108002678D01*
X146685000Y-108034065D01*
X147003672Y-108002678D01*
X147310099Y-107909725D01*
X147592504Y-107758777D01*
X147840034Y-107555634D01*
X148043177Y-107308105D01*
X148194125Y-107025700D01*
X148287078Y-106719273D01*
X148310600Y-106480454D01*
X148310600Y-106480453D01*
X148869400Y-106480453D01*
X148892922Y-106719272D01*
X148985875Y-107025699D01*
X149136823Y-107308104D01*
X149339966Y-107555634D01*
X149587495Y-107758777D01*
X149869900Y-107909725D01*
X150176327Y-108002678D01*
X150495000Y-108034065D01*
X150813672Y-108002678D01*
X151120099Y-107909725D01*
X151402504Y-107758777D01*
X151650034Y-107555634D01*
X151853177Y-107308105D01*
X152004125Y-107025700D01*
X152097078Y-106719273D01*
X152120600Y-106480454D01*
X152120600Y-106480453D01*
X152679400Y-106480453D01*
X152702922Y-106719272D01*
X152795875Y-107025699D01*
X152946823Y-107308104D01*
X153149966Y-107555634D01*
X153397495Y-107758777D01*
X153679900Y-107909725D01*
X153986327Y-108002678D01*
X154305000Y-108034065D01*
X154623672Y-108002678D01*
X154930099Y-107909725D01*
X155212504Y-107758777D01*
X155460034Y-107555634D01*
X155663177Y-107308105D01*
X155814125Y-107025700D01*
X155907078Y-106719273D01*
X155930600Y-106480454D01*
X155930600Y-105537000D01*
X156489400Y-105537000D01*
X156489400Y-106527600D01*
X156545412Y-106842299D01*
X156661742Y-107140023D01*
X156833920Y-107409332D01*
X157055329Y-107639876D01*
X157317461Y-107822795D01*
X157610242Y-107951060D01*
X157736041Y-107981411D01*
X157988000Y-107861942D01*
X157988000Y-105537000D01*
X158242000Y-105537000D01*
X158242000Y-107861942D01*
X158493959Y-107981411D01*
X158619758Y-107951060D01*
X158912539Y-107822795D01*
X159174671Y-107639876D01*
X159396080Y-107409332D01*
X159568258Y-107140023D01*
X159684588Y-106842299D01*
X159740600Y-106527600D01*
X159740600Y-106480453D01*
X160299400Y-106480453D01*
X160322922Y-106719272D01*
X160415875Y-107025699D01*
X160566823Y-107308104D01*
X160769966Y-107555634D01*
X161017495Y-107758777D01*
X161299900Y-107909725D01*
X161606327Y-108002678D01*
X161925000Y-108034065D01*
X162243672Y-108002678D01*
X162550099Y-107909725D01*
X162832504Y-107758777D01*
X163080034Y-107555634D01*
X163283177Y-107308105D01*
X163434125Y-107025700D01*
X163527078Y-106719273D01*
X163550600Y-106480454D01*
X163550600Y-104339546D01*
X163527078Y-104100727D01*
X163434125Y-103794300D01*
X163283177Y-103511895D01*
X163080034Y-103264366D01*
X162832505Y-103061223D01*
X162550100Y-102910275D01*
X162243673Y-102817322D01*
X161925000Y-102785935D01*
X161606328Y-102817322D01*
X161299901Y-102910275D01*
X161017496Y-103061223D01*
X160769967Y-103264366D01*
X160566824Y-103511895D01*
X160415876Y-103794300D01*
X160322923Y-104100727D01*
X160299401Y-104339546D01*
X160299400Y-106480453D01*
X159740600Y-106480453D01*
X159740600Y-105537000D01*
X158242000Y-105537000D01*
X157988000Y-105537000D01*
X156489400Y-105537000D01*
X155930600Y-105537000D01*
X155930600Y-104339546D01*
X155925957Y-104292400D01*
X156489400Y-104292400D01*
X156489400Y-105283000D01*
X157988000Y-105283000D01*
X157988000Y-102958058D01*
X158242000Y-102958058D01*
X158242000Y-105283000D01*
X159740600Y-105283000D01*
X159740600Y-104292400D01*
X159684588Y-103977701D01*
X159568258Y-103679977D01*
X159396080Y-103410668D01*
X159174671Y-103180124D01*
X158912539Y-102997205D01*
X158619758Y-102868940D01*
X158493959Y-102838589D01*
X158242000Y-102958058D01*
X157988000Y-102958058D01*
X157736041Y-102838589D01*
X157610242Y-102868940D01*
X157317461Y-102997205D01*
X157055329Y-103180124D01*
X156833920Y-103410668D01*
X156661742Y-103679977D01*
X156545412Y-103977701D01*
X156489400Y-104292400D01*
X155925957Y-104292400D01*
X155907078Y-104100727D01*
X155814125Y-103794300D01*
X155663177Y-103511895D01*
X155460034Y-103264366D01*
X155212505Y-103061223D01*
X154930100Y-102910275D01*
X154623673Y-102817322D01*
X154305000Y-102785935D01*
X153986328Y-102817322D01*
X153679901Y-102910275D01*
X153397496Y-103061223D01*
X153149967Y-103264366D01*
X152946824Y-103511895D01*
X152795876Y-103794300D01*
X152702923Y-104100727D01*
X152679401Y-104339546D01*
X152679400Y-106480453D01*
X152120600Y-106480453D01*
X152120600Y-104339546D01*
X152097078Y-104100727D01*
X152004125Y-103794300D01*
X151853177Y-103511895D01*
X151650034Y-103264366D01*
X151402505Y-103061223D01*
X151120100Y-102910275D01*
X150813673Y-102817322D01*
X150495000Y-102785935D01*
X150176328Y-102817322D01*
X149869901Y-102910275D01*
X149587496Y-103061223D01*
X149339967Y-103264366D01*
X149136824Y-103511895D01*
X148985876Y-103794300D01*
X148892923Y-104100727D01*
X148869401Y-104339546D01*
X148869400Y-106480453D01*
X148310600Y-106480453D01*
X148310600Y-104339546D01*
X148287078Y-104100727D01*
X148194125Y-103794300D01*
X148043177Y-103511895D01*
X147840034Y-103264366D01*
X147592505Y-103061223D01*
X147310100Y-102910275D01*
X147003673Y-102817322D01*
X146685000Y-102785935D01*
X146366328Y-102817322D01*
X146059901Y-102910275D01*
X145777496Y-103061223D01*
X145529967Y-103264366D01*
X145326824Y-103511895D01*
X145175876Y-103794300D01*
X145082923Y-104100727D01*
X145059401Y-104339546D01*
X145059400Y-106480453D01*
X144500600Y-106480453D01*
X144500600Y-104339546D01*
X144477078Y-104100727D01*
X144384125Y-103794300D01*
X144233177Y-103511895D01*
X144030034Y-103264366D01*
X143782505Y-103061223D01*
X143500100Y-102910275D01*
X143193673Y-102817322D01*
X142875000Y-102785935D01*
X142556328Y-102817322D01*
X142249901Y-102910275D01*
X141967496Y-103061223D01*
X141719967Y-103264366D01*
X141516824Y-103511895D01*
X141365876Y-103794300D01*
X141272923Y-104100727D01*
X141249401Y-104339546D01*
X141249400Y-106480453D01*
X140690600Y-106480453D01*
X140690600Y-104339546D01*
X140667078Y-104100727D01*
X140574125Y-103794300D01*
X140423177Y-103511895D01*
X140220034Y-103264366D01*
X139972505Y-103061223D01*
X139690100Y-102910275D01*
X139383673Y-102817322D01*
X139065000Y-102785935D01*
X138746328Y-102817322D01*
X138439901Y-102910275D01*
X138157496Y-103061223D01*
X137909967Y-103264366D01*
X137706824Y-103511895D01*
X137555876Y-103794300D01*
X137462923Y-104100727D01*
X137439401Y-104339546D01*
X137439400Y-106480453D01*
X136880600Y-106480453D01*
X136880600Y-104339546D01*
X136857078Y-104100727D01*
X136764125Y-103794300D01*
X136613177Y-103511895D01*
X136410034Y-103264366D01*
X136162505Y-103061223D01*
X135880100Y-102910275D01*
X135573673Y-102817322D01*
X135255000Y-102785935D01*
X134936328Y-102817322D01*
X134629901Y-102910275D01*
X134347496Y-103061223D01*
X134099967Y-103264366D01*
X133896824Y-103511895D01*
X133745876Y-103794300D01*
X133652923Y-104100727D01*
X133629401Y-104339546D01*
X133629400Y-106480453D01*
X133070600Y-106480453D01*
X133070600Y-105537000D01*
X131572000Y-105537000D01*
X131318000Y-105537000D01*
X129819400Y-105537000D01*
X129260600Y-105537000D01*
X129260600Y-104339546D01*
X129255957Y-104292400D01*
X129819400Y-104292400D01*
X129819400Y-105283000D01*
X131318000Y-105283000D01*
X131318000Y-102958058D01*
X131572000Y-102958058D01*
X131572000Y-105283000D01*
X133070600Y-105283000D01*
X133070600Y-104292400D01*
X133014588Y-103977701D01*
X132898258Y-103679977D01*
X132726080Y-103410668D01*
X132504671Y-103180124D01*
X132242539Y-102997205D01*
X131949758Y-102868940D01*
X131823959Y-102838589D01*
X131572000Y-102958058D01*
X131318000Y-102958058D01*
X131066041Y-102838589D01*
X130940242Y-102868940D01*
X130647461Y-102997205D01*
X130385329Y-103180124D01*
X130163920Y-103410668D01*
X129991742Y-103679977D01*
X129875412Y-103977701D01*
X129819400Y-104292400D01*
X129255957Y-104292400D01*
X129237078Y-104100727D01*
X129144125Y-103794300D01*
X128993177Y-103511895D01*
X128790034Y-103264366D01*
X128542505Y-103061223D01*
X128260100Y-102910275D01*
X127953673Y-102817322D01*
X127635000Y-102785935D01*
X127316328Y-102817322D01*
X127009901Y-102910275D01*
X126727496Y-103061223D01*
X126479967Y-103264366D01*
X126276824Y-103511895D01*
X126125876Y-103794300D01*
X126032923Y-104100727D01*
X126009401Y-104339546D01*
X126009400Y-106480453D01*
X120386624Y-106480453D01*
X120402114Y-106444314D01*
X120404838Y-106435515D01*
X120404840Y-106435509D01*
X120490806Y-106150773D01*
X120502422Y-106092108D01*
X120514862Y-106033584D01*
X120515825Y-106024419D01*
X120544850Y-105728406D01*
X120544850Y-105599596D01*
X120524200Y-105495305D01*
X120524200Y-102274047D01*
X120534522Y-102240699D01*
X120543068Y-102159377D01*
X120544701Y-102151129D01*
X120544701Y-102143835D01*
X120547984Y-102112594D01*
X120547984Y-102103379D01*
X120547835Y-102082100D01*
X120544702Y-102052298D01*
X120544702Y-102022319D01*
X120543738Y-102013154D01*
X120510584Y-101717575D01*
X120498151Y-101659081D01*
X120486528Y-101600381D01*
X120483803Y-101591578D01*
X120393868Y-101308068D01*
X120370290Y-101253058D01*
X120347508Y-101197783D01*
X120343125Y-101189677D01*
X120199836Y-100929034D01*
X120166048Y-100879687D01*
X120132936Y-100829850D01*
X120127062Y-100822749D01*
X119935876Y-100594904D01*
X119893146Y-100553060D01*
X119850987Y-100510605D01*
X119843846Y-100504781D01*
X119612045Y-100318408D01*
X119562031Y-100285680D01*
X119512398Y-100252202D01*
X119504261Y-100247876D01*
X119240675Y-100110077D01*
X119185219Y-100087672D01*
X119130068Y-100064488D01*
X119121246Y-100061825D01*
X118835915Y-99977847D01*
X118777175Y-99966642D01*
X118718558Y-99954609D01*
X118709386Y-99953710D01*
X118413178Y-99926753D01*
X118353361Y-99927171D01*
X118293544Y-99926753D01*
X118284372Y-99927653D01*
X117988569Y-99958742D01*
X117929972Y-99970771D01*
X117871210Y-99981980D01*
X117862388Y-99984644D01*
X117578257Y-100072598D01*
X117523139Y-100095768D01*
X117467650Y-100118186D01*
X117459514Y-100122513D01*
X117197878Y-100263979D01*
X117148311Y-100297412D01*
X117098232Y-100330183D01*
X117091091Y-100336008D01*
X116861915Y-100525597D01*
X116819774Y-100568034D01*
X116777024Y-100609897D01*
X116771150Y-100616998D01*
X116583164Y-100847492D01*
X116550049Y-100897334D01*
X116516265Y-100946674D01*
X116511882Y-100954781D01*
X116372246Y-101217399D01*
X116349458Y-101272687D01*
X116325886Y-101327683D01*
X116323162Y-101336487D01*
X116237193Y-101621225D01*
X116230000Y-101657553D01*
X116230000Y-95021000D01*
X173330001Y-95021000D01*
X173330000Y-99854418D01*
M02*
